<svg width="74" height="74" viewBox="0 0 74 74" fill="none" xmlns="http://www.w3.org/2000/svg">
<rect width="74" height="74" rx="8" fill="#EFFFF8"/>
<path fill-rule="evenodd" clip-rule="evenodd" d="M49.1722 44.6996V54.9113H44.4506L42.952 49.3395C42.9074 49.1968 42.81 49.0765 42.6796 49.0033C42.5492 48.9301 42.3958 48.9095 42.2507 48.9457C42.1778 48.965 42.1095 48.9988 42.0499 49.0451C41.9903 49.0914 41.9407 49.1492 41.9039 49.2151C41.8672 49.281 41.8441 49.3536 41.836 49.4287C41.8279 49.5037 41.835 49.5795 41.8568 49.6518L43.269 54.9354H23.052L24.4402 49.6518C24.4685 49.5777 24.4811 49.4986 24.4772 49.4194C24.4733 49.3402 24.453 49.2627 24.4175 49.1918C24.382 49.1209 24.3322 49.0581 24.2712 49.0075C24.2102 48.9569 24.1393 48.9195 24.063 48.8978C23.9868 48.8761 23.9068 48.8704 23.8283 48.8812C23.7498 48.8921 23.6743 48.9191 23.6068 48.9606C23.5393 49.0022 23.4811 49.0573 23.436 49.1226C23.391 49.1878 23.36 49.2617 23.345 49.3395L21.8704 54.9113H17.1248V44.6996C17.1248 41.0395 20.4871 38.0566 24.6083 38.0566H25.9052L30.5451 42.7014C30.6497 42.8064 30.7909 42.8666 30.939 42.8695C31.0171 42.8714 31.0948 42.8574 31.1675 42.8285C31.2401 42.7997 31.3061 42.7564 31.3617 42.7014L33.1389 40.905L34.9353 42.7014C35.0393 42.8072 35.1809 42.8677 35.3292 42.8695C35.403 42.8708 35.4762 42.8566 35.5441 42.8276C35.612 42.7986 35.673 42.7556 35.7231 42.7014L40.3918 38.0566H41.6887C45.8244 38.0566 49.1722 41.0395 49.1722 44.6996Z" fill="#66D5A6"/>
<path fill-rule="evenodd" clip-rule="evenodd" d="M41.9964 11.5969C41.9676 11.5681 41.9676 11.5393 41.9387 11.5393C40.7571 9.6516 36.8761 11.3616 36.8473 11.3616C36.7194 11.4268 36.5713 11.4397 36.4341 11.3975C36.2969 11.3554 36.1815 11.2615 36.1124 11.1358C35.1853 9.47388 33.0191 8.73417 30.4301 9.2145C27.5289 9.70924 24.2963 11.8755 23.6863 15.5068V20.9681C23.7829 20.9504 23.8811 20.9424 23.9793 20.9441H24.8535V20.3581C24.8519 20.2614 24.876 20.1661 24.9232 20.0817C24.9705 19.9973 25.0392 19.927 25.1225 19.8778L25.1993 19.8346C25.2689 19.8036 25.3441 19.7875 25.4203 19.7875C25.4964 19.7875 25.5717 19.8036 25.6412 19.8346C26.6122 20.1937 27.6499 20.3363 28.6817 20.2524C30.9056 20.0843 32.7309 18.9604 34.0806 16.8901C34.1265 16.8115 34.1926 16.7465 34.2719 16.7018C34.3512 16.657 34.441 16.6342 34.5321 16.6356C34.6271 16.6339 34.7211 16.6564 34.8051 16.7009C34.8891 16.7454 34.9604 16.8105 35.0124 16.8901C35.6894 17.7928 36.5688 18.5239 37.58 19.0244C38.5911 19.525 39.7057 19.7811 40.834 19.7721H40.9493C41.0231 19.7721 41.0961 19.7866 41.1643 19.8149C41.2325 19.8431 41.2945 19.8845 41.3467 19.9367C41.3988 19.9889 41.4402 20.0508 41.4685 20.119C41.4967 20.1872 41.5113 20.2603 41.5113 20.3341V20.9681H42.4191H42.6352C42.7697 15.2042 42.4191 12.0917 41.9964 11.5969Z" fill="#66D5A6"/>
<path fill-rule="evenodd" clip-rule="evenodd" d="M49.7391 56.0301H16.5628C16.4889 56.0321 16.4153 56.0191 16.3466 55.9918C16.2778 55.9646 16.2153 55.9237 16.1628 55.8716C16.1103 55.8195 16.0688 55.7574 16.041 55.6889C16.0132 55.6203 15.9995 55.5469 16.0008 55.473C15.9967 55.3981 16.0083 55.3231 16.0351 55.2531C16.0619 55.183 16.1031 55.1194 16.1562 55.0663C16.2092 55.0133 16.2728 54.972 16.3429 54.9453C16.413 54.9185 16.4879 54.9068 16.5628 54.911H49.7391C49.8136 54.9083 49.8879 54.921 49.9573 54.9483C50.0267 54.9756 50.0897 55.0169 50.1424 55.0696C50.1952 55.1223 50.2365 55.1854 50.2637 55.2548C50.291 55.3242 50.3037 55.3984 50.3011 55.473C50.2998 55.6212 50.24 55.7629 50.1348 55.8672C50.0295 55.9716 49.8873 56.0302 49.7391 56.0301Z" fill="#219D69"/>
<path fill-rule="evenodd" clip-rule="evenodd" d="M32.1544 44.0516C32.0641 44.0494 31.9756 44.025 31.8969 43.9806C31.8182 43.9362 31.7516 43.8732 31.7029 43.797L30.7422 42.3561C30.6614 42.2315 30.6318 42.0806 30.6596 41.9347C30.6873 41.7889 30.7703 41.6593 30.8911 41.5731C30.9534 41.5308 31.0235 41.5015 31.0974 41.487C31.1713 41.4725 31.2473 41.4731 31.3209 41.4888C31.3946 41.5045 31.4642 41.535 31.5257 41.5784C31.5873 41.6218 31.6394 41.6772 31.6789 41.7412L32.6395 43.1822C32.6828 43.2417 32.7129 43.3096 32.7279 43.3816C32.7429 43.4535 32.7424 43.5278 32.7265 43.5996C32.7106 43.6713 32.6796 43.7389 32.6357 43.7978C32.5917 43.8567 32.5357 43.9055 32.4714 43.9411C32.4308 43.9804 32.3825 44.0108 32.3297 44.0306C32.2768 44.0505 32.2204 44.0592 32.164 44.0564L32.1544 44.0516Z" fill="#219D69"/>
<path fill-rule="evenodd" clip-rule="evenodd" d="M34.1476 44.0507C34.0353 44.0469 33.9273 44.0064 33.8402 43.9354C33.7809 43.895 33.7302 43.8432 33.6911 43.783C33.652 43.7229 33.6251 43.6556 33.6122 43.585C33.5992 43.5144 33.6004 43.442 33.6156 43.3719C33.6309 43.3017 33.6598 43.2353 33.7009 43.1765L34.6279 41.7355C34.6665 41.6744 34.7168 41.6216 34.7759 41.58C34.8351 41.5385 34.9018 41.5091 34.9724 41.4934C35.0429 41.4778 35.1159 41.4763 35.187 41.489C35.2581 41.5017 35.326 41.5283 35.3868 41.5674C35.5132 41.6499 35.6017 41.779 35.6332 41.9266C35.6647 42.0742 35.6366 42.2282 35.5549 42.3551L34.6279 43.7961C34.5722 43.872 34.5001 43.9343 34.4169 43.9784C34.3337 44.0225 34.2417 44.0472 34.1476 44.0507Z" fill="#219D69"/>
<path fill-rule="evenodd" clip-rule="evenodd" d="M33.1389 53.5343C33.0695 53.5343 33.0009 53.5193 32.9379 53.4902C32.8749 53.4612 32.8189 53.4189 32.7738 53.3662L30.5499 51.3104C30.481 51.2468 30.4293 51.1666 30.3999 51.0776C30.3705 50.9885 30.3643 50.8934 30.3818 50.8012L31.621 43.3753C31.6416 43.2489 31.7066 43.134 31.8043 43.0513C31.9021 42.9685 32.0261 42.9233 32.1542 42.9238H34.1524C34.2836 42.9231 34.4112 42.9676 34.5135 43.0498C34.6158 43.132 34.6868 43.247 34.7143 43.3753L35.9248 50.7724C35.9423 50.8646 35.936 50.9597 35.9066 51.0487C35.8772 51.1378 35.8256 51.2179 35.7567 51.2815L33.5327 53.3662C33.4288 53.472 33.2872 53.5324 33.1389 53.5343ZM31.5346 50.6907L33.1389 52.1894L34.772 50.6715L33.672 44.0478H32.6345L31.5346 50.6907Z" fill="#219D69"/>
<path fill-rule="evenodd" clip-rule="evenodd" d="M22.3028 56.0311C22.2571 56.0181 22.2106 56.0085 22.1635 56.0023C22.0209 55.9587 21.9003 55.8624 21.8262 55.733C21.7521 55.6036 21.7302 55.4509 21.7648 55.3059L23.3403 49.3402C23.3849 49.1964 23.4831 49.0753 23.6145 49.002C23.746 48.9286 23.9006 48.9087 24.0464 48.9463C24.1895 48.9919 24.3098 49.0903 24.383 49.2214C24.4561 49.3526 24.4766 49.5067 24.4402 49.6524L22.8696 55.6133C22.8313 55.7342 22.756 55.8401 22.6543 55.916C22.5526 55.9918 22.4296 56.0338 22.3028 56.036V56.0311Z" fill="#219D69"/>
<path fill-rule="evenodd" clip-rule="evenodd" d="M43.9992 56.031C43.8753 56.0328 43.7545 55.9917 43.6573 55.9146C43.5602 55.8376 43.4926 55.7294 43.4661 55.6083L41.8618 49.6522C41.8399 49.58 41.8328 49.5042 41.8409 49.4291C41.849 49.3541 41.8721 49.2815 41.9088 49.2156C41.9456 49.1497 41.9952 49.0919 42.0548 49.0456C42.1144 48.9993 42.1827 48.9655 42.2556 48.9462C42.4008 48.9087 42.5547 48.9288 42.6854 49.0022C42.8161 49.0756 42.9134 49.1966 42.9569 49.34L44.5612 55.3057C44.5938 55.4545 44.5681 55.6101 44.4895 55.7405C44.4109 55.8709 44.2853 55.9663 44.1385 56.007C44.0927 56.0195 44.0462 56.0291 43.9992 56.0358V56.031Z" fill="#219D69"/>
<path fill-rule="evenodd" clip-rule="evenodd" d="M49.7391 56.0304C49.5904 56.0291 49.4482 55.9695 49.3431 55.8644C49.2379 55.7593 49.1783 55.6171 49.1771 55.4684V44.6946C49.1771 41.0393 45.8148 38.0565 41.6936 38.0565H40.1709C40.0302 38.0435 39.8995 37.9784 39.8042 37.874C39.709 37.7696 39.6563 37.6334 39.6563 37.4921C39.6563 37.3508 39.709 37.2146 39.8042 37.1102C39.8995 37.0058 40.0302 36.9407 40.1709 36.9277H41.6936C46.4488 36.9277 50.301 40.4197 50.301 44.6946V55.4732C50.2998 55.6214 50.24 55.7631 50.1348 55.8675C50.0295 55.9718 49.8873 56.0304 49.7391 56.0304ZM16.5628 56.0304C16.4889 56.0323 16.4153 56.0193 16.3466 55.9921C16.2778 55.9648 16.2153 55.9239 16.1628 55.8718C16.1103 55.8198 16.0688 55.7576 16.041 55.6891C16.0132 55.6206 15.9995 55.5471 16.0008 55.4732V44.6946C16.0008 40.4197 19.8434 36.9277 24.6131 36.9277H26.1309C26.2716 36.9407 26.4024 37.0058 26.4976 37.1102C26.5928 37.2146 26.6456 37.3508 26.6456 37.4921C26.6456 37.6334 26.5928 37.7696 26.4976 37.874C26.4024 37.9784 26.2716 38.0435 26.1309 38.0565H24.6131C20.4727 38.0565 17.1248 41.0393 17.1248 44.6946V55.4732C17.1235 55.6214 17.0638 55.7631 16.9585 55.8675C16.8532 55.9718 16.711 56.0304 16.5628 56.0304Z" fill="#219D69"/>
<path fill-rule="evenodd" clip-rule="evenodd" d="M30.9439 42.8662C30.8702 42.8663 30.7974 42.8515 30.7296 42.8226C30.6619 42.7937 30.6008 42.7513 30.55 42.6981L25.5402 37.6931C25.4867 37.6423 25.4441 37.5813 25.415 37.5136C25.3859 37.4458 25.3708 37.3729 25.3708 37.2992C25.3708 37.2255 25.3859 37.1525 25.415 37.0848C25.4441 37.0171 25.4867 36.956 25.5402 36.9053L27.7353 34.7102C27.7862 34.6567 27.8472 34.6139 27.9148 34.5842C27.9825 34.5545 28.0553 34.5386 28.1291 34.5373C28.2077 34.5352 28.2859 34.5495 28.3587 34.5793C28.4314 34.6091 28.4972 34.6537 28.5518 34.7102L33.5328 39.7008C33.5863 39.7515 33.6289 39.8126 33.658 39.8803C33.6871 39.9481 33.7021 40.021 33.7021 40.0947C33.7021 40.1684 33.6871 40.2413 33.658 40.3091C33.6289 40.3768 33.5863 40.4379 33.5328 40.4886L31.3713 42.6981C31.3163 42.7538 31.2504 42.7975 31.1776 42.8264C31.1049 42.8553 31.0269 42.8689 30.9487 42.8662H30.9439ZM26.7506 37.2992L30.9439 41.4925L32.332 40.1139L28.1099 35.8918L26.7506 37.2992Z" fill="#219D69"/>
<path fill-rule="evenodd" clip-rule="evenodd" d="M35.334 42.8643C35.2603 42.8651 35.1873 42.8505 35.1195 42.8216C35.0517 42.7926 34.9906 42.75 34.9402 42.6962L32.7451 40.5011C32.6911 40.4506 32.648 40.3896 32.6183 40.3219C32.5886 40.2542 32.5729 40.1812 32.5721 40.1073C32.5684 40.0327 32.582 39.9583 32.6121 39.8899C32.6421 39.8215 32.6876 39.7611 32.7451 39.7134L37.7789 34.7084C37.8296 34.6549 37.8907 34.6123 37.9584 34.5832C38.0261 34.5541 38.0991 34.5391 38.1728 34.5391C38.2465 34.5391 38.3194 34.5541 38.3871 34.5832C38.4548 34.6123 38.5159 34.6549 38.5666 34.7084L40.7617 36.9035C40.8183 36.9517 40.863 37.0123 40.8921 37.0806C40.9213 37.149 40.9342 37.2232 40.9299 37.2973C40.927 37.4455 40.8667 37.5867 40.7617 37.6912L35.7279 42.6962C35.6786 42.7514 35.6178 42.7951 35.5497 42.8242C35.4816 42.8532 35.408 42.8669 35.334 42.8643ZM33.9507 40.1073L35.334 41.4858L39.5801 37.2973L38.1728 35.89L33.9507 40.1073Z" fill="#219D69"/>
<path fill-rule="evenodd" clip-rule="evenodd" d="M28.1291 35.6656C27.9805 35.6643 27.8382 35.6047 27.7331 35.4996C27.628 35.3945 27.5684 35.2523 27.5671 35.1036V32.0151C27.5671 31.8661 27.6263 31.7231 27.7317 31.6177C27.8371 31.5123 27.9801 31.4531 28.1291 31.4531C28.2782 31.4531 28.4211 31.5123 28.5265 31.6177C28.6319 31.7231 28.6911 31.8661 28.6911 32.0151V35.1132C28.6874 35.2602 28.6267 35.4 28.5218 35.5031C28.417 35.6061 28.2761 35.6644 28.1291 35.6656Z" fill="#219D69"/>
<path fill-rule="evenodd" clip-rule="evenodd" d="M38.1729 35.6652C38.0251 35.6627 37.8841 35.6025 37.78 35.4975C37.6759 35.3925 37.617 35.251 37.6157 35.1032V32.0147C37.6287 31.874 37.6938 31.7432 37.7982 31.648C37.9026 31.5528 38.0388 31.5 38.1801 31.5C38.3214 31.5 38.4576 31.5528 38.562 31.648C38.6664 31.7432 38.7315 31.874 38.7445 32.0147V35.1128C38.7407 35.2614 38.6787 35.4026 38.5718 35.506C38.4648 35.6093 38.3216 35.6665 38.1729 35.6652Z" fill="#219D69"/>
<path fill-rule="evenodd" clip-rule="evenodd" d="M23.0954 22.0479C22.945 22.0479 22.8009 21.9881 22.6946 21.8818C22.5883 21.7755 22.5286 21.6314 22.5286 21.4811V15.5202C22.5286 15.4914 22.5574 15.4626 22.5574 15.4337C23.2058 11.2117 26.8659 8.73796 30.2138 8.14716C33.0526 7.63801 35.531 8.47858 36.7943 10.227C38.0336 9.74665 41.4103 8.73796 42.8464 10.9619C43.1827 11.3846 43.5477 12.2828 43.6918 15.5778C43.8023 17.6288 43.7735 19.9008 43.7158 21.457C43.7185 21.5316 43.7058 21.6059 43.6785 21.6752C43.6512 21.7446 43.6099 21.8077 43.5572 21.8604C43.5045 21.9131 43.4415 21.9544 43.3721 21.9817C43.3027 22.009 43.2284 22.0217 43.1538 22.019C43.0051 22.013 42.8642 21.9505 42.7598 21.8444C42.6555 21.7382 42.5954 21.5963 42.5919 21.4474C42.76 15.4097 42.4189 12.1723 41.9722 11.6632C41.9386 11.6343 41.9386 11.6103 41.9386 11.6103C40.757 9.72263 36.876 11.4374 36.8471 11.4374C36.7208 11.504 36.5734 11.5182 36.4367 11.4768C36.3001 11.4355 36.1852 11.3419 36.117 11.2165C35.1852 9.55452 33.0189 8.81481 30.4348 9.27113C27.4807 9.78027 24.277 11.9466 23.6573 15.573V21.4811C23.66 21.5558 23.6473 21.6303 23.6201 21.6999C23.5928 21.7696 23.5516 21.8329 23.4989 21.886C23.4463 21.9391 23.3833 21.9809 23.3139 22.0087C23.2445 22.0365 23.1701 22.0499 23.0954 22.0479Z" fill="#219D69"/>
<path fill-rule="evenodd" clip-rule="evenodd" d="M44.4121 23.0426V25.2906C44.4127 25.5569 44.3607 25.8208 44.2591 26.067C44.1574 26.3132 44.0081 26.5369 43.8198 26.7253C43.6314 26.9136 43.4077 27.0629 43.1615 27.1646C42.9153 27.2662 42.6514 27.3182 42.3851 27.3176H41.458C41.3503 29.1951 40.5296 30.9607 39.1637 32.2534C37.7977 33.5462 35.9897 34.2685 34.109 34.2727H32.2261C30.3416 34.2714 28.5285 33.5518 27.156 32.2605C25.7835 30.9692 24.9548 29.2033 24.8387 27.3224H23.9501C23.4128 27.3186 22.8987 27.1032 22.5193 26.7228C22.1398 26.3424 21.9256 25.8278 21.9231 25.2906V23.0426C21.9225 22.7763 21.9745 22.5124 22.0761 22.2662C22.1777 22.02 22.327 21.7963 22.5154 21.6079C22.7037 21.4196 22.9274 21.2703 23.1736 21.1687C23.4199 21.067 23.6837 21.015 23.9501 21.0157H24.8243V20.4297C24.8227 20.333 24.8468 20.2376 24.894 20.1532C24.9413 20.0689 25.01 19.9985 25.0933 19.9493L25.1701 19.9061C25.2397 19.8751 25.3149 19.8591 25.3911 19.8591C25.4672 19.8591 25.5425 19.8751 25.612 19.9061C26.583 20.2653 27.6207 20.4079 28.6525 20.324C30.8764 20.1559 32.7017 19.0319 34.0514 16.9617C34.0973 16.8831 34.1634 16.818 34.2427 16.7733C34.322 16.7286 34.4118 16.7057 34.5029 16.7071C34.598 16.7055 34.6919 16.7279 34.7759 16.7725C34.8599 16.817 34.9312 16.8821 34.9832 16.9617C35.6602 17.8643 36.5396 18.5954 37.5508 19.096C38.562 19.5966 39.6765 19.8527 40.8048 19.8437H40.9201C41.0691 19.8437 41.2121 19.9029 41.3175 20.0083C41.4228 20.1137 41.4821 20.2566 41.4821 20.4056V21.0157H42.3851C42.6522 21.0124 42.9172 21.0627 43.1646 21.1634C43.4119 21.2641 43.6367 21.4133 43.8256 21.6022C44.0144 21.791 44.1636 22.0158 44.2643 22.2632C44.3651 22.5105 44.4153 22.7756 44.4121 23.0426Z" fill="white"/>
<path fill-rule="evenodd" clip-rule="evenodd" d="M44.4123 23.0428V25.2907C44.4129 25.5571 44.3609 25.8209 44.2593 26.0671C44.1576 26.3133 44.0083 26.537 43.82 26.7254C43.6317 26.9137 43.4079 27.063 43.1617 27.1647C42.9155 27.2663 42.6517 27.3183 42.3853 27.3177H40.9443C40.7953 27.3177 40.6523 27.2585 40.5469 27.1531C40.4415 27.0477 40.3823 26.9047 40.3823 26.7557C40.3823 26.6066 40.4415 26.4637 40.5469 26.3583C40.6523 26.2529 40.7953 26.1937 40.9443 26.1937H42.3853C42.6236 26.1912 42.8513 26.0951 43.0193 25.9261C43.1874 25.7572 43.2823 25.529 43.2835 25.2907V23.0428C43.2848 22.9244 43.2624 22.8071 43.2178 22.6975C43.1731 22.588 43.107 22.4884 43.0233 22.4048C42.9396 22.3211 42.8401 22.255 42.7305 22.2103C42.621 22.1656 42.5036 22.1433 42.3853 22.1445H40.9443C40.8036 22.1315 40.6728 22.0665 40.5776 21.9621C40.4824 21.8577 40.4296 21.7215 40.4296 21.5802C40.4296 21.4389 40.4824 21.3027 40.5776 21.1982C40.6728 21.0938 40.8036 21.0288 40.9443 21.0158H42.3853C42.6524 21.0125 42.9174 21.0628 43.1648 21.1635C43.4122 21.2642 43.6369 21.4134 43.8258 21.6023C44.0146 21.7911 44.1638 22.0159 44.2645 22.2633C44.3653 22.5106 44.4155 22.7757 44.4123 23.0428Z" fill="#219D69"/>
<path fill-rule="evenodd" clip-rule="evenodd" d="M25.9482 26.7604C25.9482 26.9094 25.889 27.0523 25.7836 27.1577C25.6783 27.2631 25.5353 27.3223 25.3863 27.3223H23.9453C23.4089 27.3173 22.896 27.1013 22.5176 26.7211C22.1392 26.3409 21.9256 25.827 21.9231 25.2905V23.0426C21.9225 22.7762 21.9745 22.5124 22.0761 22.2662C22.1777 22.02 22.327 21.7963 22.5154 21.6079C22.7037 21.4196 22.9274 21.2703 23.1736 21.1686C23.4199 21.067 23.6837 21.015 23.9501 21.0156H25.3911C25.5075 21.016 25.6213 21.0512 25.7177 21.1165C25.7931 21.1713 25.854 21.2437 25.895 21.3274C25.936 21.4112 25.956 21.5036 25.9531 21.5968C25.9531 21.6706 25.9385 21.7437 25.9103 21.8119C25.882 21.8801 25.8406 21.942 25.7885 21.9942C25.7363 22.0464 25.6743 22.0878 25.6061 22.116C25.5379 22.1443 25.4649 22.1588 25.3911 22.1588H23.9501C23.7126 22.1613 23.4856 22.2567 23.3177 22.4247C23.1498 22.5926 23.0544 22.8196 23.0519 23.057V25.2905C23.0579 25.5273 23.1543 25.7528 23.3213 25.9207C23.4884 26.0887 23.7133 26.1863 23.9501 26.1936H25.3911C25.4649 26.1942 25.5378 26.2094 25.6058 26.2382C25.6737 26.267 25.7353 26.3089 25.7871 26.3616C25.8388 26.4142 25.8797 26.4765 25.9073 26.5449C25.935 26.6133 25.9489 26.6866 25.9482 26.7604Z" fill="#219D69"/>
<path fill-rule="evenodd" clip-rule="evenodd" d="M34.671 33.7112C34.671 33.8602 34.6118 34.0031 34.5064 34.1085C34.401 34.2139 34.2581 34.2731 34.109 34.2731H32.2261C30.3417 34.2718 28.5285 33.5522 27.156 32.2609C25.7835 30.9696 24.9548 29.2037 24.8387 27.3228C24.8387 27.1835 24.8387 27.0442 24.8387 26.9001V20.4301C24.8371 20.3334 24.8612 20.238 24.9084 20.1537C24.9557 20.0693 25.0244 19.9989 25.1077 19.9498L25.1845 19.9065C25.2529 19.8775 25.3264 19.8628 25.4007 19.8633C25.5497 19.8633 25.6927 19.9225 25.7981 20.0279C25.9035 20.1333 25.9627 20.2762 25.9627 20.4253V26.9001C25.9703 28.5588 26.6346 30.147 27.8102 31.3172C28.9858 32.4874 30.577 33.1444 32.2357 33.1444H34.1571C34.2989 33.1554 34.4311 33.2202 34.5267 33.3256C34.6223 33.431 34.6739 33.5689 34.671 33.7112Z" fill="#219D69"/>
<path fill-rule="evenodd" clip-rule="evenodd" d="M41.4821 20.4287V26.8987C41.4821 27.038 41.4821 27.1821 41.4821 27.3214C41.373 29.2023 40.5484 30.9701 39.1775 32.2625C37.8065 33.5548 35.9931 34.2737 34.1091 34.2718C33.9601 34.2718 33.8171 34.2126 33.7117 34.1072C33.6063 34.0018 33.5471 33.8588 33.5471 33.7098C33.5471 33.5608 33.6063 33.4178 33.7117 33.3124C33.8171 33.207 33.9601 33.1478 34.1091 33.1478H34.1523C35.8009 33.1364 37.3781 32.4735 38.5398 31.3037C39.7015 30.1339 40.3534 28.5522 40.3534 26.9036V20.4287C40.3664 20.288 40.4314 20.1573 40.5358 20.062C40.6403 19.9668 40.7765 19.9141 40.9178 19.9141C41.0591 19.9141 41.1953 19.9668 41.2997 20.062C41.4041 20.1573 41.4691 20.288 41.4821 20.4287Z" fill="#219D69"/>
<path fill-rule="evenodd" clip-rule="evenodd" d="M41.4822 20.4298C41.4848 20.5023 41.4728 20.5745 41.447 20.6423C41.4212 20.7101 41.382 20.772 41.3319 20.8244C41.2817 20.8768 41.2216 20.9186 41.155 20.9473C41.0884 20.9761 41.0168 20.9912 40.9443 20.9918H40.805H40.3535C39.2481 20.9348 38.165 20.6603 37.166 20.1839C36.167 19.7075 35.2718 19.0385 34.5319 18.2155C33.8534 19.1503 32.9776 19.9245 31.9665 20.4831C30.9555 21.0417 29.834 21.3712 28.6815 21.4481H28.1147C27.3848 21.445 26.6577 21.3564 25.9484 21.1839L25.7131 21.1215L25.3672 21.0206L25.1895 20.9678C25.0963 20.9249 25.0161 20.8583 24.9567 20.7746C24.8974 20.691 24.861 20.5932 24.8513 20.4911C24.8415 20.389 24.8588 20.2861 24.9013 20.1927C24.9438 20.0994 25.01 20.0188 25.0934 19.9591L25.1703 19.9159C25.2398 19.8849 25.3151 19.8689 25.3912 19.8689C25.4674 19.8689 25.5427 19.8849 25.6122 19.9159C26.5831 20.275 27.6208 20.4177 28.6527 20.3338C30.8766 20.1656 32.7018 19.0417 34.0516 16.9715C34.0975 16.8928 34.1635 16.8278 34.2429 16.7831C34.3222 16.7384 34.412 16.7155 34.5031 16.7169C34.5981 16.7152 34.692 16.7377 34.7761 16.7822C34.8601 16.8268 34.9314 16.8919 34.9834 16.9715C35.6603 17.8741 36.5398 18.6052 37.551 19.1057C38.5621 19.6063 39.6767 19.8624 40.805 19.8534H40.9202C40.9953 19.8534 41.0695 19.8684 41.1387 19.8975C41.2078 19.9267 41.2704 19.9694 41.3228 20.0231C41.3752 20.0768 41.4163 20.1405 41.4437 20.2103C41.471 20.2802 41.4841 20.3548 41.4822 20.4298Z" fill="#219D69"/>
<path fill-rule="evenodd" clip-rule="evenodd" d="M30.0407 24.7182C29.8917 24.7182 29.7488 24.659 29.6434 24.5536C29.538 24.4482 29.4788 24.3053 29.4788 24.1562V23.5654C29.4918 23.4247 29.5568 23.294 29.6612 23.1988C29.7656 23.1036 29.9018 23.0508 30.0431 23.0508C30.1844 23.0508 30.3206 23.1036 30.4251 23.1988C30.5295 23.294 30.5945 23.4247 30.6075 23.5654V24.1562C30.6075 24.2305 30.5928 24.3039 30.5643 24.3724C30.5358 24.4409 30.4939 24.5031 30.4412 24.5553C30.3885 24.6076 30.326 24.6489 30.2573 24.6768C30.1885 24.7048 30.1149 24.7189 30.0407 24.7182Z" fill="#219D69"/>
<path fill-rule="evenodd" clip-rule="evenodd" d="M36.2323 24.7187C36.0875 24.7125 35.9506 24.6505 35.8504 24.5458C35.7501 24.4411 35.6942 24.3017 35.6943 24.1567V23.5659C35.6943 23.4168 35.7535 23.2739 35.8589 23.1685C35.9643 23.0631 36.1073 23.0039 36.2563 23.0039C36.4054 23.0039 36.5483 23.0631 36.6537 23.1685C36.7591 23.2739 36.8183 23.4168 36.8183 23.5659V24.1567C36.8184 24.2326 36.8031 24.3077 36.7733 24.3775C36.7436 24.4472 36.7001 24.5103 36.6453 24.5628C36.5905 24.6153 36.5257 24.6562 36.4547 24.683C36.3838 24.7098 36.3081 24.7219 36.2323 24.7187Z" fill="#219D69"/>
<path fill-rule="evenodd" clip-rule="evenodd" d="M33.11 30.4866C32.7022 30.4841 32.2994 30.3975 31.9267 30.2322C31.5539 30.0669 31.2193 29.8264 30.9437 29.5259C30.8918 29.4705 30.8514 29.4054 30.8248 29.3343C30.7981 29.2632 30.7858 29.1875 30.7884 29.1116C30.7911 29.0358 30.8088 28.9612 30.8404 28.8921C30.8719 28.8231 30.9169 28.761 30.9725 28.7094C31.0824 28.6121 31.2255 28.5609 31.3722 28.5663C31.5188 28.5716 31.6578 28.6332 31.7603 28.7382C31.93 28.9294 32.1377 29.0832 32.37 29.1898C32.6024 29.2965 32.8544 29.3537 33.11 29.3578C33.3815 29.3525 33.6491 29.2924 33.8968 29.1809C34.1444 29.0695 34.367 28.9091 34.551 28.7094C34.6526 28.5947 34.7955 28.5248 34.9484 28.5149C35.1013 28.505 35.252 28.5559 35.3675 28.6565C35.4229 28.7052 35.4678 28.7648 35.4994 28.8314C35.531 28.8981 35.5487 28.9705 35.5514 29.0442C35.5541 29.1179 35.5418 29.1914 35.5151 29.2602C35.4884 29.329 35.448 29.3916 35.3964 29.4443C35.1109 29.7685 34.7599 30.0285 34.3667 30.2073C33.9734 30.3862 33.5468 30.4797 33.1148 30.4818L33.11 30.4866Z" fill="#219D69"/>
<path fill-rule="evenodd" clip-rule="evenodd" d="M26.6112 16.4473H26.5247C26.3813 16.4182 26.2551 16.334 26.1733 16.2126C26.0915 16.0913 26.0607 15.9427 26.0876 15.7988C26.5103 13.0946 29.1569 11.5768 31.4337 11.6344C31.5071 11.6374 31.5792 11.6552 31.6456 11.6869C31.7119 11.7185 31.7712 11.7634 31.8197 11.8186C31.8682 11.8739 31.905 11.9384 31.9278 12.0083C31.9506 12.0782 31.959 12.152 31.9524 12.2252C31.952 12.2992 31.9363 12.3724 31.9063 12.4401C31.8763 12.5078 31.8327 12.5685 31.7781 12.6186C31.7236 12.6686 31.6593 12.7069 31.5893 12.7309C31.5192 12.755 31.445 12.7643 31.3712 12.7584C29.5988 12.7007 27.4902 13.9112 27.1491 15.967C27.1324 16.1028 27.0654 16.2274 26.9614 16.3163C26.8574 16.4052 26.7239 16.4519 26.5871 16.4473H26.6112Z" fill="#219D69"/>
<path fill-rule="evenodd" clip-rule="evenodd" d="M34.7673 50.6572L33.1342 52.1799L31.5347 50.6909L32.6298 44.0527H33.6721L34.7673 50.6572Z" fill="white"/>
<path fill-rule="evenodd" clip-rule="evenodd" d="M34.3685 42.1359L33.8594 42.9236H32.4616L31.9285 42.1263L33.1389 40.9062L34.3685 42.1359Z" fill="#EFFFF8"/>
<path fill-rule="evenodd" clip-rule="evenodd" d="M28.11 35.9004L32.3321 40.1225L30.9247 41.501L26.7314 37.3078L28.11 35.9004Z" fill="#66D5A6"/>
<path fill-rule="evenodd" clip-rule="evenodd" d="M38.1584 35.9004L33.9363 40.1177L35.3148 41.501L39.5657 37.2981L38.1584 35.9004ZM38.1584 35.9004L33.9363 40.1177L35.3148 41.501L39.5657 37.2981L38.1584 35.9004ZM38.1584 35.9004L33.9363 40.1177L35.3148 41.501L39.5657 37.2981L38.1584 35.9004ZM38.1584 35.9004L33.9363 40.1177L35.3148 41.501L39.5657 37.2981L38.1584 35.9004ZM38.1584 35.9004L33.9363 40.1177L35.3148 41.501L39.5657 37.2981L38.1584 35.9004Z" fill="#66D5A6"/>
<path fill-rule="evenodd" clip-rule="evenodd" d="M57.9909 36.266C57.8005 36.1038 57.559 36.0136 57.3089 36.0114C56.4967 35.9338 55.693 35.7843 54.9072 35.5647C54.1083 35.3509 53.329 35.0697 52.5776 34.7241C51.556 34.2562 50.5987 33.6589 49.7293 32.9469C49.1315 32.4599 48.5988 31.8982 48.1442 31.2754C47.6904 31.8899 47.1629 32.4465 46.5735 32.9325C45.7041 33.6469 44.7449 34.2443 43.7204 34.7097C42.9723 35.0591 42.1963 35.3451 41.4004 35.5647C40.616 35.7971 39.8122 35.9579 38.9988 36.045C38.7411 36.0411 38.4905 36.1297 38.2927 36.2948C38.1601 36.4628 38.0905 36.6717 38.0957 36.8856V45.3298C38.1062 48.2193 39.1085 51.0177 40.9349 53.2568C42.7614 55.496 45.3013 57.0401 48.1298 57.631C50.9606 57.0422 53.5032 55.4991 55.3324 53.2598C57.1615 51.0206 58.1662 48.2211 58.1782 45.3298V36.876C58.1974 36.6561 58.1302 36.4373 57.9909 36.266ZM56.4443 45.0656C56.4372 47.4227 55.6171 49.7053 54.1226 51.528C52.628 53.3507 50.5503 54.6021 48.2403 55.0708C48.2211 55.0732 48.2018 55.0732 48.1826 55.0708C48.1524 55.0756 48.1216 55.0756 48.0914 55.0708C45.7742 54.6099 43.6877 53.3619 42.1855 51.5384C40.6833 49.7149 39.8578 47.4281 39.8489 45.0656V38.7061C39.8348 38.3522 39.9608 38.007 40.1996 37.7454C40.4672 37.4771 40.825 37.3179 41.2035 37.2987C42.3394 37.1894 43.4478 36.8839 44.4793 36.3957C45.19 36.0736 45.8567 35.662 46.463 35.1709C46.9765 34.7571 47.4152 34.2583 47.7599 33.6962C47.7752 33.6625 47.7983 33.6329 47.8272 33.6098C47.8571 33.5722 47.8971 33.5439 47.9425 33.5281C47.9936 33.5046 48.0495 33.4931 48.1058 33.4945H48.149C48.2052 33.4936 48.261 33.5051 48.3123 33.5281C48.3564 33.5463 48.3958 33.5742 48.4276 33.6098C48.4537 33.6355 48.4764 33.6646 48.4948 33.6962C48.8396 34.2583 49.2783 34.7571 49.7917 35.1709C50.3957 35.6629 51.0609 36.0746 51.7707 36.3957C52.2965 36.6429 52.841 36.8485 53.399 37.0105C53.9433 37.1585 54.4993 37.2598 55.0609 37.3131H55.0993C55.4701 37.329 55.8228 37.4773 56.0936 37.731C56.3294 37.9944 56.4549 38.3383 56.4443 38.6917V45.0656Z" fill="#219D69"/>
<path fill-rule="evenodd" clip-rule="evenodd" d="M55.9016 38.1401C55.7646 38.0328 55.5952 37.9753 55.4212 37.9768C54.7715 37.9183 54.1284 37.801 53.4999 37.6261C52.8557 37.4504 52.2274 37.2206 51.6218 36.9393C50.7991 36.5598 50.029 36.0755 49.3307 35.4983C48.8867 35.1352 48.4841 34.7245 48.1299 34.2734C47.7833 34.7264 47.3851 35.1374 46.9434 35.4983C46.2437 36.076 45.4719 36.5603 44.6475 36.9393C44.0464 37.2182 43.423 37.4464 42.7838 37.6213C42.1552 37.7956 41.5121 37.9129 40.8625 37.972C40.6886 37.9754 40.5203 38.0343 40.3822 38.1401C40.2959 38.2581 40.2535 38.4024 40.2621 38.5484V45.2729C40.2638 47.5482 41.0474 49.7537 42.4815 51.5201C43.9156 53.2865 45.9131 54.5064 48.1395 54.9756C50.3655 54.5086 52.3634 53.2907 53.7984 51.526C55.2334 49.7613 56.0183 47.5571 56.0216 45.2826V38.558C56.0377 38.4083 55.9946 38.2584 55.9016 38.1401ZM51.1703 43.0106L47.6399 46.541C47.5514 46.622 47.4357 46.6669 47.3157 46.6669C47.1957 46.6669 47.08 46.622 46.9915 46.541L45.1134 44.6581C45.0665 44.5659 45.0507 44.461 45.0682 44.359C45.0858 44.257 45.1358 44.1634 45.2108 44.0922C45.2858 44.0209 45.3819 43.9758 45.4846 43.9635C45.5874 43.9513 45.6913 43.9725 45.781 44.0241L47.3373 45.5756L50.5411 42.3766C50.5832 42.3331 50.6336 42.2986 50.6893 42.275C50.745 42.2514 50.8048 42.2393 50.8653 42.2393C50.9258 42.2393 50.9857 42.2514 51.0414 42.275C51.0971 42.2986 51.1474 42.3331 51.1895 42.3766C51.2322 42.4186 51.2661 42.4687 51.2893 42.5239C51.3124 42.5792 51.3244 42.6385 51.3244 42.6984C51.3244 42.7583 51.3124 42.8176 51.2893 42.8729C51.2661 42.9281 51.2322 42.9782 51.1895 43.0202L51.1703 43.0106Z" fill="#66D5A6"/>
<path fill-rule="evenodd" clip-rule="evenodd" d="M51.1658 42.3604C51.2103 42.4023 51.2457 42.4529 51.2697 42.5091C51.2937 42.5653 51.3057 42.6259 51.3051 42.687C51.3056 42.7474 51.2935 42.8073 51.2695 42.8627C51.2455 42.9181 51.2102 42.9679 51.1658 43.0089L47.6402 46.5393C47.5523 46.624 47.4356 46.672 47.3136 46.6738C47.1932 46.6708 47.0784 46.6228 46.9917 46.5393L45.1137 44.6564C45.0488 44.6191 44.9936 44.5672 44.9524 44.5048C44.9111 44.4424 44.8851 44.3712 44.8762 44.297C44.8673 44.2227 44.8759 44.1474 44.9013 44.077C44.9267 44.0067 44.9681 43.9432 45.0224 43.8917C45.0766 43.8402 45.1421 43.8021 45.2137 43.7804C45.2853 43.7587 45.3609 43.754 45.4346 43.7666C45.5083 43.7793 45.578 43.8091 45.6382 43.8535C45.6984 43.8978 45.7474 43.9557 45.7813 44.0224L47.3376 45.5786L50.5414 42.3748C50.6229 42.2913 50.7339 42.243 50.8506 42.2404C50.9673 42.2377 51.0805 42.2808 51.1658 42.3604Z" fill="white"/>
<path fill-rule="evenodd" clip-rule="evenodd" d="M56.5644 37.3329C56.2786 37.0635 55.905 36.9066 55.5125 36.891H55.4693C54.8752 36.834 54.2871 36.7263 53.7113 36.5691C53.1183 36.4002 52.54 36.1833 51.9821 35.9207C51.2295 35.5815 50.5252 35.1438 49.8879 34.619C49.3425 34.1813 48.8762 33.6533 48.5093 33.0579C48.4926 33.0223 48.4698 32.9898 48.4421 32.9619C48.4055 32.9276 48.3633 32.9 48.3172 32.8802C48.263 32.8551 48.204 32.842 48.1443 32.8418H48.0963C48.0366 32.8425 47.9777 32.8556 47.9233 32.8802C47.8788 32.9 47.8381 32.9277 47.8033 32.9619C47.774 32.9896 47.7497 33.0221 47.7312 33.0579C47.3661 33.6531 46.9014 34.1812 46.3575 34.619C45.7177 35.1427 45.012 35.5804 44.2584 35.9207C43.1646 36.4379 41.9898 36.7629 40.7857 36.8814C40.389 36.8906 40.0102 37.0483 39.7241 37.3233C39.4678 37.6045 39.3331 37.9758 39.3495 38.356V45.0806C39.3532 47.5829 40.2216 50.007 41.8078 51.9424C43.3939 53.8778 45.6002 55.2055 48.053 55.7006H48.2452C50.6909 55.2025 52.8903 53.8769 54.4729 51.9469C56.0556 50.0169 56.9249 47.6005 56.9343 45.1046V38.38C56.945 38.1897 56.9178 37.9991 56.8543 37.8194C56.7908 37.6396 56.6923 37.4743 56.5644 37.3329ZM56.0169 45.2823C56.0127 47.5553 55.228 49.7579 53.794 51.5215C52.36 53.2851 50.3638 54.5027 48.1395 54.9705C45.9173 54.5 43.9238 53.2813 42.4919 51.5181C41.06 49.7548 40.2763 47.5537 40.2717 45.2823V38.5577C40.2629 38.4125 40.3035 38.2686 40.387 38.1494C40.5259 38.0451 40.6937 37.9864 40.8673 37.9813C41.5166 37.9199 42.1595 37.8026 42.7886 37.6307C43.4256 37.4536 44.0472 37.2255 44.6475 36.9486C45.4732 36.5692 46.2465 36.0849 46.9483 35.5076C47.39 35.1468 47.7881 34.7357 48.1347 34.2828C48.4872 34.7337 48.8883 35.1445 49.3307 35.5076C50.0327 36.0822 50.804 36.5663 51.6267 36.9486C52.2331 37.2279 52.8612 37.4576 53.5047 37.6355C54.1338 37.8078 54.7767 37.9252 55.4261 37.9861C55.6 37.985 55.7692 38.0425 55.9064 38.1494C55.9962 38.2655 56.0375 38.4118 56.0217 38.5577L56.0169 45.2823Z" fill="white"/>
<path fill-rule="evenodd" clip-rule="evenodd" d="M37.2699 33.5522C37.4491 33.4755 37.6239 33.3889 37.7935 33.2928V34.8539L33.1871 39.4986L28.6096 34.8251V33.2832C29.7208 33.9059 30.9719 34.2365 32.2457 34.2439H34.167H34.5225C34.5976 34.2486 34.673 34.2486 34.7482 34.2439H35.0268C35.2219 34.2232 35.4159 34.1927 35.608 34.1526C35.7137 34.1334 35.8193 34.1094 35.925 34.0805L36.194 34.0133C36.3141 33.9845 36.439 33.9413 36.559 33.9028L36.8665 33.7924C37.0106 33.6675 37.1354 33.6146 37.2699 33.5522Z" fill="white"/>
<path d="M31.7987 62.3636C31.7987 63.1567 31.6484 63.8314 31.3477 64.3878C31.0494 64.9441 30.6423 65.3691 30.1262 65.6626C29.6124 65.9538 29.0348 66.0994 28.3932 66.0994C27.7469 66.0994 27.1669 65.9527 26.6531 65.6591C26.1394 65.3655 25.7334 64.9406 25.4351 64.3842C25.1368 63.8279 24.9877 63.1544 24.9877 62.3636C24.9877 61.5705 25.1368 60.8958 25.4351 60.3395C25.7334 59.7831 26.1394 59.3594 26.6531 59.0682C27.1669 58.7746 27.7469 58.6278 28.3932 58.6278C29.0348 58.6278 29.6124 58.7746 30.1262 59.0682C30.6423 59.3594 31.0494 59.7831 31.3477 60.3395C31.6484 60.8958 31.7987 61.5705 31.7987 62.3636ZM30.2398 62.3636C30.2398 61.8499 30.1628 61.4167 30.009 61.0639C29.8575 60.7112 29.6432 60.4437 29.3662 60.2614C29.0892 60.0791 28.7649 59.9879 28.3932 59.9879C28.0215 59.9879 27.6972 60.0791 27.4202 60.2614C27.1432 60.4437 26.9278 60.7112 26.7739 61.0639C26.6224 61.4167 26.5466 61.8499 26.5466 62.3636C26.5466 62.8774 26.6224 63.3106 26.7739 63.6634C26.9278 64.0161 27.1432 64.2836 27.4202 64.4659C27.6972 64.6482 28.0215 64.7393 28.3932 64.7393C28.7649 64.7393 29.0892 64.6482 29.3662 64.4659C29.6432 64.2836 29.8575 64.0161 30.009 63.6634C30.1628 63.3106 30.2398 62.8774 30.2398 62.3636ZM32.9378 66V58.7273H37.7531V59.995H34.4754V61.728H37.4335V62.9957H34.4754V66H32.9378ZM40.4244 66L38.3435 58.7273H40.0232L41.227 63.7805H41.2874L42.6155 58.7273H44.0537L45.3783 63.7912H45.4422L46.646 58.7273H48.3257L46.2448 66H44.7462L43.3612 61.245H43.3044L41.923 66H40.4244Z" fill="#219D69"/>
</svg>
