<svg width="74" height="75" viewBox="0 0 74 75" fill="none" xmlns="http://www.w3.org/2000/svg">
<rect y="0.5" width="74" height="74" rx="8" fill="#EFFFF8"/>
<g clip-path="url(#clip0_2774_5165)">
<path d="M21.5312 40.249V48.125C21.5312 50.0057 20.0067 51.5302 18.126 51.5302C16.2453 51.5302 14.7207 50.0057 14.7207 48.125V40.249C14.7207 38.3683 16.2453 36.8438 18.126 36.8438C20.0067 36.8438 21.5312 38.3683 21.5312 40.249ZM59.2774 40.249V48.125C59.2774 50.0057 57.7529 51.5302 55.8722 51.5302C53.9915 51.5302 52.4669 50.0057 52.4669 48.125V40.249C52.4669 38.3683 53.9915 36.8438 55.8722 36.8438C57.7529 36.8438 59.2774 38.3683 59.2774 40.249Z" fill="#66D5A6"/>
<path d="M45.3083 41.7165C45.3083 46.3049 41.5844 50.0211 36.996 50.0211C32.4076 50.0211 28.6914 46.305 28.6914 41.7165C28.6914 37.128 32.4076 33.4043 36.996 33.4043C41.5844 33.4043 45.3083 37.128 45.3083 41.7165Z" fill="#FEFEFE"/>
<path d="M40.0575 57.3954C40.0575 58.5254 38.7735 59.4431 37.1816 59.4431C35.6005 59.4431 34.3164 58.5254 34.3164 57.3954C34.3164 56.2653 35.6005 55.3477 37.1816 55.3477C38.7735 55.3477 40.0575 56.2654 40.0575 57.3954Z" fill="#AFF1D5"/>
<path d="M24.3946 26.4517C25.0995 26.4517 25.7584 26.1091 26.1662 25.5341C28.5749 22.1374 32.5278 19.9107 36.9996 19.9107C41.4717 19.9107 45.4244 22.1374 47.8331 25.534C48.2409 26.109 48.8999 26.4516 49.6048 26.4516C51.3719 26.4516 52.4159 24.453 51.393 23.012C48.1938 18.5053 42.9349 15.5586 36.9996 15.5586C31.0641 15.5586 25.8052 18.5053 22.6061 23.0121C21.5832 24.4531 22.6272 26.4517 24.3943 26.4517H24.3946Z" fill="#66D5A6"/>
<path d="M55.874 36.1258C54.8477 36.1258 53.9099 36.5051 53.1875 37.1277V33.2024C53.1875 30.7439 52.6319 28.4148 51.6456 26.3267C52.6869 25.2938 52.7823 23.7261 51.9803 22.5959C48.5324 17.7394 42.9326 14.8398 37.0009 14.8398C31.0687 14.8398 25.469 17.7394 22.0214 22.5963C21.223 23.7211 21.3074 25.294 22.3639 26.3343C21.3779 28.4214 20.8142 30.745 20.8142 33.2025V37.1277C20.0918 36.5051 19.154 36.1259 18.1277 36.1259C15.8539 36.1259 14.0039 37.9759 14.0039 40.2497V48.1258C14.0039 50.3996 15.8539 52.2496 18.1277 52.2496C20.4016 52.2496 22.2516 50.3996 22.2516 48.1258C22.2516 42.7344 22.2516 38.3782 22.2516 33.2025C22.2516 31.0089 22.7413 28.9318 23.607 27.0618C24.8055 27.3983 26.0559 26.9335 26.7536 25.9499C29.116 22.6184 32.9468 20.6295 37.0009 20.6295C41.0552 20.6295 44.8857 22.6184 47.2481 25.9496C47.9535 26.9451 49.2065 27.3929 50.3898 27.0628C51.2571 28.9326 51.7502 31.0084 51.7502 33.2025C51.7502 38.229 51.7502 42.6944 51.7502 48.1258C51.7502 52.8399 47.9148 56.675 43.2007 56.675H40.6426C40.2384 55.4864 38.8698 54.6289 37.1813 54.6289C35.1716 54.6289 33.5975 55.8441 33.5975 57.3951C33.5975 58.9464 35.1716 60.1616 37.1813 60.1616C38.8711 60.1616 40.2409 59.3027 40.6437 58.1123H43.2007C47.7575 58.1123 51.6032 55.0408 52.7971 50.8619C53.5529 51.711 54.6505 52.2497 55.8741 52.2497C58.1479 52.2497 59.9979 50.3997 59.9979 48.1259V40.2498C59.9979 37.9758 58.1479 36.1258 55.874 36.1258ZM20.8142 48.1258C20.8142 49.6073 19.6093 50.8123 18.1277 50.8123C16.6462 50.8123 15.4412 49.6073 15.4412 48.1258V40.2497C15.4412 38.7682 16.6462 37.5632 18.1277 37.5632C19.6093 37.5632 20.8142 38.7682 20.8142 40.2497V48.1258ZM48.4201 25.1182C45.7889 21.4074 41.5198 19.1921 37.0009 19.1921C32.4819 19.1921 28.2128 21.4074 25.5809 25.1186C25.1053 25.7896 24.1955 25.9122 23.5667 25.4808C22.9364 25.0486 22.6892 24.1382 23.1933 23.4283C26.3719 18.9504 31.5338 16.2772 37.0009 16.2772C42.4679 16.2772 47.6291 18.9504 50.8083 23.4279C51.3297 24.1635 51.0442 25.1085 50.3748 25.5198C49.7446 25.9069 48.8777 25.7635 48.4201 25.1182ZM37.1813 58.7242C36.0376 58.7242 35.0348 58.1031 35.0348 57.395C35.0348 56.6872 36.0377 56.0661 37.1813 56.0661C38.3308 56.0661 39.3387 56.6872 39.3387 57.395C39.3386 58.1031 38.3308 58.7242 37.1813 58.7242ZM58.5606 48.1258C58.5606 49.6073 57.3556 50.8123 55.8741 50.8123C54.3925 50.8123 53.1876 49.6073 53.1876 48.1258V40.2497C53.1876 38.7682 54.3925 37.5632 55.8741 37.5632C57.3556 37.5632 58.5606 38.7682 58.5606 40.2497V48.1258Z" fill="#219D69"/>
<path d="M46.0271 41.7165C46.0271 36.7368 41.9755 32.6855 36.9958 32.6855C32.0203 32.6855 27.9727 36.7368 27.9727 41.7165C27.9727 46.692 32.0204 50.7396 36.9958 50.7396C41.9755 50.7396 46.0271 46.692 46.0271 41.7165ZM29.41 41.7165C29.41 37.5295 32.8131 34.1229 36.9958 34.1229C41.1832 34.1229 44.5898 37.5295 44.5898 41.7165C44.5898 45.8992 41.1832 49.3023 36.9958 49.3023C32.8131 49.3024 29.41 45.8993 29.41 41.7165Z" fill="#219D69"/>
<path d="M40.5646 39.0035C40.2839 38.7228 39.8292 38.7228 39.5484 39.0035L35.6477 42.9046L34.4455 41.7024C34.1648 41.4216 33.7101 41.4216 33.4293 41.7024C33.1486 41.9831 33.1486 42.4378 33.4293 42.7186L35.1397 44.4289C35.4198 44.7091 35.8748 44.7101 36.1559 44.4289L40.5647 40.0198C40.8453 39.739 40.8453 39.2843 40.5646 39.0035Z" fill="#219D69"/>
</g>
<defs>
<clipPath id="clip0_2774_5165">
<rect width="46" height="46" fill="white" transform="translate(14 14.5)"/>
</clipPath>
</defs>
</svg>
