<svg width="65" height="65" viewBox="0 0 65 65" fill="none" xmlns="http://www.w3.org/2000/svg">
<rect width="65" height="65" fill="#F5F5F5"/>
<g id="Home">
<rect width="1440" height="800" transform="translate(-817 -1015)" fill="white"/>
<g id="Coverages">
<rect width="1440" height="708" transform="translate(-817 -228)" fill="#FEFEFE"/>
<g id="Frame 1000000798">
<g id="Group 1000000776">
<g id="Pricing">
<g id="Base">
<rect x="-282.5" y="-36.5" width="371" height="485" rx="15.5" fill="white"/>
<rect x="-282.5" y="-36.5" width="371" height="485" rx="15.5" stroke="#DCDCDC"/>
</g>
<g id="Frame 237443">
<g id="Frame 4447">
<g id="Frame 4446">
<g id="Group 4230">
<path id="Star 1" d="M33.5281 10.1366C35.1007 5.88719 35.887 3.76247 37.2794 3.76247C38.6718 3.76247 39.4581 5.88719 41.0308 10.1366L44.1289 18.5081C44.4429 19.3567 44.5999 19.781 44.9095 20.0905C45.219 20.4001 45.6433 20.5571 46.4919 20.8711L54.8634 23.9692C59.1128 25.5419 61.2375 26.3282 61.2375 27.7206C61.2375 29.113 59.1128 29.8993 54.8634 31.4719L46.4919 34.57C45.6433 34.8841 45.219 35.0411 44.9095 35.3506C44.5999 35.6602 44.4429 36.0845 44.1289 36.9331L41.0308 45.3045C39.4581 49.554 38.6718 51.6787 37.2794 51.6787C35.887 51.6787 35.1007 49.554 33.5281 45.3045L30.43 36.9331C30.1159 36.0845 29.9589 35.6602 29.6494 35.3506C29.3398 35.0411 28.9155 34.8841 28.0669 34.57L19.6955 31.4719C15.446 29.8993 13.3213 29.113 13.3213 27.7206C13.3213 26.3282 15.446 25.5419 19.6955 23.9692L28.0669 20.8711C28.9155 20.5571 29.3398 20.4001 29.6494 20.0905C29.9589 19.781 30.1159 19.3567 30.43 18.5081L33.5281 10.1366Z" fill="#E4E7EC"/>
<path id="Star 2" d="M18.3067 46.1712C19.0931 44.0465 19.4862 42.9841 20.1824 42.9841C20.8786 42.9841 21.2718 44.0465 22.0581 46.1712L23.0907 48.9616C23.2478 49.3859 23.3263 49.598 23.481 49.7528C23.6358 49.9076 23.848 49.9861 24.2723 50.1431L27.0626 51.1758C29.1873 51.9621 30.2497 52.3552 30.2497 53.0514C30.2497 53.7476 29.1874 54.1408 27.0626 54.9271L24.2723 55.9598C23.848 56.1168 23.6358 56.1953 23.481 56.3501C23.3263 56.5048 23.2478 56.717 23.0907 57.1413L22.0581 59.9316C21.2718 62.0564 20.8786 63.1187 20.1824 63.1187C19.4862 63.1187 19.0931 62.0564 18.3067 59.9316L17.2741 57.1413C17.1171 56.717 17.0386 56.5048 16.8838 56.3501C16.729 56.1953 16.5169 56.1168 16.0926 55.9598L13.3022 54.9271C11.1775 54.1408 10.1151 53.7476 10.1151 53.0514C10.1151 52.3552 11.1775 51.9621 13.3022 51.1758L16.0926 50.1431C16.5169 49.9861 16.729 49.9076 16.8838 49.7528C17.0386 49.598 17.1171 49.3859 17.2741 48.9616L18.3067 46.1712Z" fill="#E4E7EC"/>
<circle id="Ellipse 1" cx="3.82353" cy="44.9264" r="3.82353" fill="#E4E7EC"/>
</g>
</g>
</g>
</g>
</g>
</g>
</g>
</g>
</g>
</svg>
