<svg width="16" height="16" viewBox="0 0 16 16" fill="none" xmlns="http://www.w3.org/2000/svg">
<g clip-path="url(#clip0_2478_1055)">
<path d="M14.8052 3.51759L7.47492 10.8534C7.18904 11.1395 6.72724 11.1395 6.44136 10.8534L4.3669 8.77735C4.08102 8.49125 4.08102 8.0291 4.3669 7.743C4.65278 7.4569 5.11458 7.4569 5.40046 7.743L6.95447 9.29819L13.7643 2.48324C14.0502 2.19715 14.512 2.19715 14.7978 2.48324C15.091 2.76934 15.091 3.23149 14.8052 3.51759ZM10.7589 1.20682C9.52006 0.700649 8.11265 0.52459 6.6466 0.788679C3.66319 1.32419 1.28086 3.73033 0.775074 6.71599C-0.0605739 11.6676 4.05903 15.9077 8.97762 15.2695C11.8804 14.8954 14.314 12.7313 15.0764 9.90706C15.3696 8.8287 15.3989 7.78702 15.2303 6.81136C15.135 6.22449 14.4093 5.99708 13.9842 6.41522C13.8156 6.58395 13.7423 6.83336 13.7863 7.06811C13.9475 8.04377 13.8742 9.08545 13.4051 10.1932C12.5548 12.1811 10.7076 13.641 8.5598 13.839C4.82137 14.1838 1.72068 11.0148 2.18248 7.2515C2.49768 4.65464 4.5868 2.54193 7.17438 2.18248C8.44251 2.00642 9.64467 2.2485 10.6709 2.77668C10.9568 2.92339 11.3013 2.87204 11.5285 2.64463C11.8804 2.29251 11.7924 1.69832 11.3526 1.47091C11.1547 1.38288 10.9568 1.28751 10.7589 1.20682Z" fill="#FFC01D"/>
</g>
<defs>
<clipPath id="clip0_2478_1055">
<rect width="16" height="16" fill="white"/>
</clipPath>
</defs>
</svg>
