<svg width="74" height="74" viewBox="0 0 74 74" fill="none" xmlns="http://www.w3.org/2000/svg">
<rect width="74" height="74" rx="8" fill="#EFFFF8"/>
<g clip-path="url(#clip0_2790_9371)">
<path fill-rule="evenodd" clip-rule="evenodd" d="M51.3659 64.9951H12.6557C12.5695 64.9974 12.4836 64.9822 12.4034 64.9504C12.3232 64.9186 12.2503 64.871 12.189 64.8103C12.1277 64.7496 12.0794 64.6771 12.0469 64.5972C12.0144 64.5174 11.9985 64.4317 12 64.3455C11.9951 64.2582 12.0088 64.1709 12.04 64.0892C12.0712 64.0075 12.1194 63.9333 12.1812 63.8715C12.2431 63.8097 12.3174 63.7616 12.3991 63.7304C12.4809 63.6992 12.5683 63.6856 12.6557 63.6904H51.3659C51.4528 63.6873 51.5395 63.7021 51.6205 63.7339C51.7015 63.7657 51.775 63.8139 51.8365 63.8753C51.8981 63.9368 51.9463 64.0103 51.9781 64.0912C52.0099 64.1721 52.0248 64.2587 52.0216 64.3455C52.0201 64.5183 51.9504 64.6835 51.8276 64.8052C51.7048 64.9268 51.5388 64.9951 51.3659 64.9951Z" fill="#219D69"/>
<path fill-rule="evenodd" clip-rule="evenodd" d="M30.8479 51.0292C30.7425 51.0266 30.6393 50.9982 30.5475 50.9464C30.4556 50.8947 30.3779 50.8212 30.3211 50.7325L29.2002 49.0526C29.1059 48.9074 29.0713 48.7315 29.1037 48.5614C29.1361 48.3914 29.2329 48.2404 29.3739 48.1399C29.4465 48.0905 29.5284 48.0564 29.6146 48.0395C29.7008 48.0226 29.7895 48.0233 29.8754 48.0416C29.9613 48.06 30.0426 48.0955 30.1144 48.1461C30.1861 48.1966 30.2469 48.2612 30.293 48.3359L31.4139 50.0157C31.4644 50.085 31.4995 50.1642 31.517 50.2481C31.5345 50.332 31.5339 50.4186 31.5154 50.5023C31.4969 50.5859 31.4607 50.6647 31.4094 50.7333C31.3581 50.802 31.2928 50.8589 31.2178 50.9004C31.1704 50.9461 31.1141 50.9817 31.0524 51.0048C30.9907 51.0279 30.9249 51.0381 30.8591 51.0348L30.8479 51.0292Z" fill="#219D69"/>
<path fill-rule="evenodd" clip-rule="evenodd" d="M33.1737 51.0294C33.0427 51.025 32.9167 50.9778 32.8151 50.8951C32.7459 50.8479 32.6868 50.7875 32.6411 50.7174C32.5954 50.6473 32.5641 50.5689 32.549 50.4866C32.5339 50.4043 32.5353 50.3199 32.553 50.2381C32.5708 50.1564 32.6046 50.0789 32.6525 50.0103L33.7342 48.3305C33.7792 48.2593 33.8379 48.1977 33.9069 48.1493C33.9759 48.1008 34.0538 48.0665 34.1361 48.0483C34.2184 48.0301 34.3035 48.0283 34.3865 48.0431C34.4695 48.0579 34.5488 48.089 34.6197 48.1345C34.7671 48.2307 34.8704 48.3813 34.9072 48.5533C34.9439 48.7253 34.9111 48.9049 34.8159 49.0528L33.7342 50.7327C33.6692 50.8211 33.585 50.8938 33.488 50.9452C33.3909 50.9966 33.2835 51.0254 33.1737 51.0294Z" fill="#219D69"/>
<path fill-rule="evenodd" clip-rule="evenodd" d="M31.9968 62.0821C31.9158 62.0821 31.8359 62.0646 31.7623 62.0307C31.6888 61.9969 31.6235 61.9475 31.5709 61.8861L28.976 59.4895C28.8955 59.4154 28.8353 59.322 28.801 59.2181C28.7667 59.1143 28.7594 59.0034 28.7798 58.896L30.2258 50.2392C30.2498 50.0919 30.3256 49.9579 30.4397 49.8614C30.5537 49.765 30.6984 49.7123 30.8479 49.7129H33.1793C33.3325 49.7121 33.4813 49.7639 33.6007 49.8598C33.7201 49.9556 33.8029 50.0896 33.8351 50.2392L35.2474 58.8624C35.2678 58.9698 35.2606 59.0807 35.2262 59.1845C35.1919 59.2884 35.1317 59.3818 35.0512 59.4559L32.4564 61.8861C32.3351 62.0094 32.1699 62.0799 31.9968 62.0821ZM30.1249 58.7672L31.9968 60.5142L33.9023 58.7448L32.6189 51.0232H31.4083L30.1249 58.7672Z" fill="#219D69"/>
<path fill-rule="evenodd" clip-rule="evenodd" d="M19.3531 64.9937C19.2998 64.9785 19.2455 64.9673 19.1906 64.9601C19.0242 64.9093 18.8835 64.7971 18.797 64.6462C18.7106 64.4954 18.685 64.3173 18.7254 64.1482L20.5637 57.1937C20.6157 57.0261 20.7302 56.8849 20.8836 56.7994C21.037 56.7139 21.2174 56.6907 21.3875 56.7345C21.5545 56.7877 21.6949 56.9024 21.7803 57.0553C21.8657 57.2082 21.8895 57.3878 21.8471 57.5577L20.0144 64.5066C19.9698 64.6476 19.8819 64.771 19.7633 64.8595C19.6446 64.9479 19.5011 64.9968 19.3531 64.9993V64.9937Z" fill="#219D69"/>
<path fill-rule="evenodd" clip-rule="evenodd" d="M44.6685 64.9935C44.5239 64.9956 44.383 64.9477 44.2696 64.8579C44.1563 64.7681 44.0774 64.642 44.0464 64.5008L42.1745 57.5575C42.149 57.4733 42.1407 57.3849 42.1502 57.2974C42.1596 57.2099 42.1866 57.1253 42.2295 57.0485C42.2724 56.9717 42.3303 56.9043 42.3998 56.8503C42.4693 56.7963 42.549 56.7569 42.6341 56.7344C42.8034 56.6907 42.9831 56.7141 43.1356 56.7997C43.288 56.8852 43.4015 57.0263 43.4524 57.1935L45.3243 64.148C45.3622 64.3215 45.3323 64.5028 45.2406 64.6549C45.1488 64.8069 45.0023 64.9181 44.8311 64.9655C44.7777 64.9801 44.7234 64.9914 44.6685 64.9991V64.9935Z" fill="#219D69"/>
<path fill-rule="evenodd" clip-rule="evenodd" d="M51.3659 64.9936C51.1924 64.9921 51.0265 64.9226 50.9038 64.8001C50.7812 64.6775 50.7116 64.5117 50.7102 64.3384V51.7789C50.7102 47.5177 46.787 44.0405 41.9784 44.0405H40.2018C40.0376 44.0253 39.885 43.9495 39.7739 43.8278C39.6628 43.706 39.6012 43.5473 39.6012 43.3825C39.6012 43.2178 39.6628 43.059 39.7739 42.9373C39.885 42.8156 40.0376 42.7398 40.2018 42.7246H41.9784C47.5268 42.7246 52.0216 46.7954 52.0216 51.7789V64.344C52.0201 64.5168 51.9504 64.682 51.8276 64.8037C51.7048 64.9253 51.5388 64.9936 51.3659 64.9936ZM12.6557 64.9936C12.5695 64.9959 12.4836 64.9807 12.4034 64.9489C12.3232 64.9171 12.2502 64.8695 12.189 64.8088C12.1277 64.7481 12.0794 64.6756 12.0469 64.5957C12.0144 64.5159 11.9985 64.4302 12 64.344V51.7789C12 46.7954 16.4836 42.7246 22.0488 42.7246H23.8199C23.984 42.7398 24.1366 42.8156 24.2477 42.9373C24.3588 43.059 24.4204 43.2178 24.4204 43.3825C24.4204 43.5473 24.3588 43.706 24.2477 43.8278C24.1366 43.9495 23.984 44.0253 23.8199 44.0405H22.0488C17.2178 44.0405 13.3114 47.5177 13.3114 51.7789V64.344C13.31 64.5168 13.2402 64.682 13.1174 64.8037C12.9946 64.9253 12.8287 64.9936 12.6557 64.9936Z" fill="#219D69"/>
<path fill-rule="evenodd" clip-rule="evenodd" d="M29.4355 49.6452C29.3496 49.6454 29.2646 49.6281 29.1856 49.5944C29.1066 49.5607 29.0353 49.5113 28.976 49.4492L23.1305 43.6146C23.0681 43.5555 23.0184 43.4843 22.9844 43.4053C22.9505 43.3264 22.9329 43.2414 22.9329 43.1555C22.9329 43.0695 22.9505 42.9845 22.9844 42.9056C23.0184 42.8266 23.0681 42.7554 23.1305 42.6963L25.6918 40.1374C25.7512 40.075 25.8224 40.0251 25.9013 39.9905C25.9802 39.9559 26.0652 39.9373 26.1513 39.9358C26.243 39.9334 26.3342 39.95 26.4191 39.9847C26.504 40.0194 26.5808 40.0714 26.6445 40.1374L32.4564 45.9552C32.5188 46.0143 32.5685 46.0855 32.6024 46.1644C32.6364 46.2434 32.6539 46.3284 32.6539 46.4143C32.6539 46.5003 32.6364 46.5853 32.6024 46.6642C32.5685 46.7432 32.5188 46.8144 32.4564 46.8735L29.9343 49.4492C29.8701 49.5142 29.7932 49.5651 29.7083 49.5988C29.6234 49.6325 29.5325 49.6483 29.4412 49.6452H29.4355ZM24.5428 43.1555L29.4355 48.0438L31.0552 46.4367L26.1289 41.5148L24.5428 43.1555Z" fill="#219D69"/>
<path fill-rule="evenodd" clip-rule="evenodd" d="M34.558 49.6466C34.472 49.6475 34.3868 49.6305 34.3077 49.5968C34.2286 49.563 34.1574 49.5133 34.0985 49.4507L31.5372 46.8917C31.4743 46.8327 31.424 46.7617 31.3893 46.6828C31.3547 46.6038 31.3363 46.5187 31.3355 46.4326C31.3311 46.3456 31.347 46.2589 31.382 46.1792C31.4171 46.0995 31.4702 46.029 31.5372 45.9734L37.4107 40.1388C37.4699 40.0764 37.5412 40.0268 37.6202 39.9928C37.6992 39.9589 37.7843 39.9414 37.8703 39.9414C37.9563 39.9414 38.0414 39.9589 38.1204 39.9928C38.1994 40.0268 38.2707 40.0764 38.3299 40.1388L40.8911 42.6977C40.9571 42.7539 41.0092 42.8246 41.0432 42.9043C41.0773 42.9839 41.0924 43.0704 41.0873 43.1569C41.0839 43.3296 41.0136 43.4942 40.8911 43.616L35.0176 49.4507C34.9601 49.515 34.8891 49.5659 34.8097 49.5998C34.7303 49.6337 34.6444 49.6497 34.558 49.6466ZM32.944 46.4326L34.558 48.0396L39.5124 43.1569L37.8703 41.5163L32.944 46.4326Z" fill="#219D69"/>
<path fill-rule="evenodd" clip-rule="evenodd" d="M26.1513 41.2525C25.9779 41.251 25.8119 41.1815 25.6893 41.059C25.5666 40.9365 25.4971 40.7707 25.4956 40.5974V36.9969C25.4956 36.8232 25.5647 36.6565 25.6877 36.5337C25.8106 36.4108 25.9774 36.3418 26.1513 36.3418C26.3252 36.3418 26.492 36.4108 26.615 36.5337C26.738 36.6565 26.807 36.8232 26.807 36.9969V40.6086C26.8027 40.7799 26.7319 40.9429 26.6095 41.063C26.4872 41.1832 26.3229 41.2511 26.1513 41.2525Z" fill="#219D69"/>
<path fill-rule="evenodd" clip-rule="evenodd" d="M37.8703 41.252C37.6978 41.2491 37.5333 41.179 37.4119 41.0566C37.2904 40.9342 37.2216 40.7692 37.2202 40.5969V36.9965C37.2353 36.8324 37.3113 36.68 37.4331 36.569C37.5549 36.458 37.7138 36.3965 37.8787 36.3965C38.0436 36.3965 38.2025 36.458 38.3243 36.569C38.4461 36.68 38.5221 36.8324 38.5372 36.9965V40.6081C38.5328 40.7814 38.4604 40.946 38.3357 41.0664C38.2109 41.1869 38.0438 41.2536 37.8703 41.252Z" fill="#219D69"/>
<path fill-rule="evenodd" clip-rule="evenodd" d="M42.763 31.1179H41.0817C40.9175 31.1028 40.7649 31.0269 40.6538 30.9052C40.5427 30.7835 40.4812 30.6247 40.4812 30.46C40.4812 30.2953 40.5427 30.1365 40.6538 30.0148C40.7649 29.8931 40.9175 29.8172 41.0817 29.8021H42.763C43.041 29.8006 43.3073 29.69 43.5045 29.4941C43.7016 29.2982 43.8137 29.0327 43.8167 28.755V26.1288C43.8182 25.9902 43.7919 25.8526 43.7395 25.7242C43.6871 25.5958 43.6095 25.4792 43.5114 25.3811C43.4133 25.2831 43.2965 25.2056 43.168 25.1532C43.0395 25.1008 42.9018 25.0746 42.763 25.0761H41.0817C40.9078 25.0761 40.741 25.0071 40.618 24.8843C40.495 24.7614 40.4259 24.5948 40.4259 24.421C40.4259 24.2473 40.495 24.0806 40.618 23.9578C40.741 23.8349 40.9078 23.7659 41.0817 23.7659H42.763C43.0749 23.7613 43.3844 23.8194 43.6734 23.9365C43.9624 24.0537 44.225 24.2276 44.4455 24.4479C44.666 24.6682 44.84 24.9305 44.9573 25.2192C45.0746 25.508 45.1326 25.8173 45.1281 26.1288V28.755C45.1296 29.0657 45.0694 29.3736 44.9511 29.661C44.8328 29.9483 44.6586 30.2094 44.4387 30.4291C44.2188 30.6489 43.9575 30.8229 43.6698 30.9411C43.3822 31.0593 43.074 31.1194 42.763 31.1179Z" fill="#219D69"/>
<path fill-rule="evenodd" clip-rule="evenodd" d="M22.9343 31.1177H21.253C20.6267 31.1148 20.0268 30.8649 19.5839 30.4223C19.141 29.9798 18.8909 29.3805 18.8879 28.7547V26.1286C18.8872 25.8181 18.9478 25.5105 19.0664 25.2235C19.185 24.9364 19.3592 24.6756 19.579 24.4561C19.7987 24.2365 20.0598 24.0625 20.347 23.944C20.6343 23.8255 20.9422 23.7649 21.253 23.7656H22.9343C23.1083 23.7656 23.275 23.8347 23.398 23.9575C23.521 24.0804 23.5901 24.247 23.5901 24.4208C23.5901 24.5945 23.521 24.7612 23.398 24.884C23.275 25.0069 23.1083 25.0759 22.9343 25.0759H21.253C20.9745 25.0788 20.7082 25.1907 20.5112 25.3874C20.3142 25.5842 20.2023 25.8503 20.1994 26.1286V28.7547C20.2079 29.0307 20.3218 29.293 20.5177 29.4877C20.7136 29.6824 20.9767 29.7948 21.253 29.8018H22.9343C23.0985 29.817 23.2511 29.8928 23.3622 30.0146C23.4733 30.1363 23.5349 30.295 23.5349 30.4598C23.5349 30.6245 23.4733 30.7833 23.3622 30.905C23.2511 31.0267 23.0985 31.1025 22.9343 31.1177Z" fill="#219D69"/>
<path fill-rule="evenodd" clip-rule="evenodd" d="M33.1121 39.237H30.9095C28.6262 39.2341 26.4369 38.3284 24.8197 36.718C23.2025 35.1075 22.289 32.9231 22.2786 30.6419V23.077C22.2786 22.9033 22.3477 22.7366 22.4707 22.6138C22.5937 22.4909 22.7604 22.4219 22.9344 22.4219C23.1083 22.4219 23.275 22.4909 23.398 22.6138C23.521 22.7366 23.5901 22.9033 23.5901 23.077V30.6251C23.599 32.5587 24.374 34.4102 25.7457 35.7743C27.1174 37.1385 28.9741 37.9043 30.9095 37.9043H33.1121C33.2763 37.9195 33.4288 37.9953 33.5399 38.1171C33.651 38.2388 33.7126 38.3975 33.7126 38.5623C33.7126 38.727 33.651 38.8858 33.5399 39.0075C33.4288 39.1292 33.2763 39.205 33.1121 39.2202V39.237Z" fill="#219D69"/>
<path fill-rule="evenodd" clip-rule="evenodd" d="M33.1121 39.2365C32.9479 39.2214 32.7953 39.1455 32.6842 39.0238C32.5732 38.9021 32.5116 38.7433 32.5116 38.5786C32.5116 38.4139 32.5732 38.2551 32.6842 38.1334C32.7953 38.0117 32.9479 37.9358 33.1121 37.9207C34.0689 37.9207 35.0163 37.7324 35.9003 37.3666C36.7842 37.0007 37.5874 36.4645 38.264 35.7886C38.9405 35.1127 39.4772 34.3102 39.8433 33.427C40.2095 32.5439 40.3979 31.5973 40.3979 30.6414V23.0765C40.4131 22.9125 40.489 22.7601 40.6108 22.6491C40.7327 22.5381 40.8916 22.4766 41.0564 22.4766C41.2213 22.4766 41.3802 22.5381 41.5021 22.6491C41.6239 22.7601 41.6998 22.9125 41.715 23.0765V30.6246C41.7165 32.9062 40.8111 35.095 39.1979 36.7098C37.5847 38.3247 35.3957 39.2336 33.1121 39.2365Z" fill="#219D69"/>
<path fill-rule="evenodd" clip-rule="evenodd" d="M20.2778 25.3783C20.1024 25.3783 19.9342 25.3087 19.8102 25.1848C19.6862 25.0608 19.6165 24.8928 19.6165 24.7175V17.7686C19.6165 17.735 19.6501 17.7015 19.6501 17.6679C20.4067 12.7459 24.6773 9.86223 28.5837 9.1735C31.8959 8.57996 34.7878 9.55987 36.2618 11.5981C37.7078 11.0381 41.6477 9.86223 43.3235 12.4548C43.7158 12.9475 44.1417 13.9946 44.3098 17.8358C44.4388 20.2268 44.4051 22.8753 44.3379 24.6896C44.341 24.7764 44.3262 24.863 44.2943 24.9439C44.2625 25.0248 44.2143 25.0983 44.1528 25.1598C44.0913 25.2212 44.0177 25.2694 43.9367 25.3012C43.8558 25.333 43.7691 25.3478 43.6821 25.3447C43.5086 25.3376 43.3442 25.2648 43.2224 25.1411C43.1006 25.0173 43.0305 24.8519 43.0264 24.6784C43.2226 17.6399 42.8247 13.8658 42.3034 13.2723C42.2642 13.2387 42.2642 13.2107 42.2642 13.2107C40.8855 11.0101 36.3571 13.0091 36.3235 13.0091C36.1761 13.0868 36.0041 13.1033 35.8446 13.0551C35.6851 13.0068 35.5511 12.8978 35.4716 12.7515C34.3843 10.8141 31.8567 9.95183 28.8415 10.4838C25.3947 11.0773 21.6565 13.6027 20.9335 17.8302V24.7175C20.9366 24.8047 20.9218 24.8915 20.8901 24.9727C20.8583 25.0539 20.8102 25.1277 20.7487 25.1896C20.6873 25.2515 20.6138 25.3002 20.5328 25.3327C20.4518 25.3651 20.365 25.3806 20.2778 25.3783Z" fill="#219D69"/>
<path fill-rule="evenodd" clip-rule="evenodd" d="M26.1177 24.2586C24.9578 24.2502 23.8063 24.0613 22.7046 23.6987C22.5467 23.6283 22.4214 23.5009 22.3538 23.3419C22.2862 23.1829 22.2814 23.0043 22.3403 22.842C22.369 22.7572 22.4146 22.6791 22.4744 22.6125C22.5342 22.5459 22.6069 22.4921 22.6881 22.4544C22.7694 22.4167 22.8574 22.3959 22.947 22.3932C23.0365 22.3905 23.1256 22.406 23.209 22.4388C24.3392 22.8605 25.5484 23.0288 26.751 22.9316C29.3459 22.7356 31.4812 21.4253 33.056 19.0119C33.1097 18.9203 33.1867 18.8445 33.2793 18.7923C33.3718 18.7402 33.4766 18.7136 33.5829 18.7152C33.6941 18.7116 33.8043 18.7371 33.9026 18.7892C34.0009 18.8412 34.0838 18.918 34.1433 19.0119C34.9337 20.065 35.9608 20.9177 37.1417 21.5013C38.3225 22.0848 39.6242 22.383 40.9416 22.3716H41.0705C41.1591 22.3744 41.2462 22.3951 41.3266 22.4324C41.407 22.4698 41.479 22.5231 41.5382 22.589C41.5974 22.655 41.6426 22.7322 41.671 22.8161C41.6995 22.9 41.7106 22.9888 41.7038 23.0771C41.7083 23.1618 41.6956 23.2465 41.6665 23.3262C41.6373 23.4058 41.5923 23.4787 41.5342 23.5404C41.476 23.6022 41.4059 23.6515 41.3282 23.6855C41.2504 23.7194 41.1665 23.7372 41.0817 23.7379H40.9191C39.5389 23.7429 38.1731 23.4562 36.9116 22.8964C35.6501 22.3367 34.5214 21.5167 33.5997 20.4902C32.8077 21.5809 31.785 22.484 30.6042 23.1353C29.4235 23.7866 28.1136 24.1701 26.7678 24.2586H26.1177Z" fill="#219D69"/>
<path fill-rule="evenodd" clip-rule="evenodd" d="M28.3819 27.9321C28.208 27.9321 28.0412 27.8631 27.9182 27.7402C27.7953 27.6174 27.7262 27.4507 27.7262 27.277V26.5883C27.7413 26.4242 27.8173 26.2718 27.9391 26.1608C28.0609 26.0498 28.2198 25.9883 28.3847 25.9883C28.5496 25.9883 28.7085 26.0498 28.8303 26.1608C28.9521 26.2718 29.0281 26.4242 29.0432 26.5883V27.277C29.0432 27.3635 29.0261 27.4491 28.9928 27.529C28.9595 27.6088 28.9107 27.6813 28.8492 27.7422C28.7877 27.8031 28.7148 27.8513 28.6346 27.8839C28.5544 27.9165 28.4685 27.9329 28.3819 27.9321Z" fill="#219D69"/>
<path fill-rule="evenodd" clip-rule="evenodd" d="M35.6061 27.9306C35.4371 27.9234 35.2774 27.8512 35.1604 27.7291C35.0435 27.607 34.9782 27.4445 34.9784 27.2755V26.5868C34.9784 26.413 35.0475 26.2464 35.1704 26.1235C35.2934 26.0007 35.4602 25.9316 35.6341 25.9316C35.808 25.9316 35.9748 26.0007 36.0978 26.1235C36.2207 26.2464 36.2898 26.413 36.2898 26.5868V27.2755C36.2899 27.3639 36.2721 27.4515 36.2374 27.5329C36.2027 27.6142 36.1519 27.6877 36.088 27.7489C36.0241 27.8102 35.9485 27.8578 35.8656 27.889C35.7828 27.9203 35.6945 27.9344 35.6061 27.9306Z" fill="#219D69"/>
<path fill-rule="evenodd" clip-rule="evenodd" d="M31.9632 34.6573C31.4874 34.6544 31.0174 34.5535 30.5824 34.3608C30.1475 34.1681 29.7571 33.8878 29.4355 33.5374C29.375 33.4728 29.3278 33.3969 29.2967 33.314C29.2656 33.2312 29.2513 33.143 29.2544 33.0545C29.2575 32.9661 29.2781 32.8791 29.3149 32.7986C29.3518 32.7181 29.4042 32.6457 29.4692 32.5855C29.5974 32.4722 29.7644 32.4125 29.9355 32.4187C30.1066 32.425 30.2687 32.4967 30.3883 32.6191C30.5864 32.842 30.8286 33.0213 31.0998 33.1457C31.3709 33.27 31.6649 33.3367 31.9632 33.3415C32.28 33.3353 32.5922 33.2652 32.8812 33.1353C33.1702 33.0053 33.4298 32.8184 33.6445 32.5855C33.7631 32.4519 33.9298 32.3704 34.1082 32.3588C34.2866 32.3473 34.4624 32.4066 34.5973 32.5239C34.6619 32.5808 34.7143 32.6501 34.7512 32.7278C34.788 32.8055 34.8087 32.8899 34.8118 32.9759C34.815 33.0618 34.8006 33.1475 34.7695 33.2277C34.7383 33.3079 34.6912 33.3809 34.6309 33.4423C34.2978 33.8202 33.8883 34.1234 33.4295 34.3318C32.9706 34.5403 32.4728 34.6493 31.9688 34.6517L31.9632 34.6573Z" fill="#219D69"/>
<path fill-rule="evenodd" clip-rule="evenodd" d="M24.3803 18.8488H24.2794C24.1121 18.815 23.9648 18.7167 23.8694 18.5753C23.774 18.4338 23.7381 18.2606 23.7694 18.0929C24.2626 14.9404 27.3507 13.171 30.0072 13.2382C30.0929 13.2416 30.177 13.2624 30.2545 13.2994C30.3319 13.3363 30.401 13.3885 30.4576 13.4529C30.5142 13.5173 30.5571 13.5925 30.5837 13.674C30.6104 13.7555 30.6202 13.8415 30.6125 13.9269C30.612 14.0132 30.5937 14.0985 30.5587 14.1774C30.5237 14.2563 30.4728 14.3271 30.4091 14.3855C30.3455 14.4438 30.2704 14.4884 30.1888 14.5164C30.1071 14.5445 30.0204 14.5554 29.9343 14.5484C27.8663 14.4813 25.4059 15.8923 25.008 18.2889C24.9885 18.4472 24.9104 18.5925 24.789 18.6961C24.6676 18.7997 24.5118 18.8542 24.3523 18.8488H24.3803Z" fill="#219D69"/>
<path fill-rule="evenodd" clip-rule="evenodd" d="M32.6301 50.9956H31.4139L30.1361 58.7172L32.008 60.4587L33.9079 58.6836L32.6301 50.9956ZM32.6301 50.9956H31.4139L30.1361 58.7172L32.008 60.4587L33.9079 58.6836L32.6301 50.9956ZM32.6301 50.9956H31.4139L30.1361 58.7172L32.008 60.4587L33.9079 58.6836L32.6301 50.9956ZM32.6301 50.9956H31.4139L30.1361 58.7172L32.008 60.4587L33.9079 58.6836L32.6301 50.9956ZM32.6301 50.9956H31.4139L30.1361 58.7172L32.008 60.4587L33.9079 58.6836L32.6301 50.9956ZM32.6301 50.9956H31.4139L30.1361 58.7172L32.008 60.4587L33.9079 58.6836L32.6301 50.9956ZM33.1177 39.1864H30.9207C29.4853 39.1781 28.0748 38.8104 26.8183 38.1169V40.2335L32.008 45.4466L37.2202 40.2839V38.1169C35.962 38.8041 34.5517 39.166 33.1177 39.1696V39.1864ZM33.6109 20.4563C32.82 21.5473 31.7985 22.451 30.6187 23.1033C29.439 23.7555 28.13 24.1403 26.7846 24.2303H26.1289C25.277 24.2295 24.4284 24.1261 23.6013 23.9223V30.5744C23.6035 31.7045 23.8689 32.8186 24.3767 33.8284C24.8845 34.8381 25.6206 35.716 26.5268 36.3923C27.7902 37.3364 29.3262 37.8453 30.9039 37.8425H33.1009C35.0332 37.8425 36.8864 37.0756 38.2527 35.7105C39.6191 34.3453 40.3867 32.4938 40.3867 30.5632V23.6759C37.7881 23.5368 35.351 22.3728 33.6109 20.4395V20.4563ZM29.0488 27.226C29.0488 27.3997 28.9798 27.5664 28.8568 27.6892C28.7338 27.8121 28.567 27.8811 28.3931 27.8811C28.2192 27.8811 28.0524 27.8121 27.9295 27.6892C27.8065 27.5664 27.7374 27.3997 27.7374 27.226V26.5372C27.7374 26.3635 27.8065 26.1969 27.9295 26.074C28.0524 25.9511 28.2192 25.8821 28.3931 25.8821C28.567 25.8821 28.7338 25.9511 28.8568 26.074C28.9798 26.1969 29.0488 26.3635 29.0488 26.5372V27.226ZM34.6533 33.3854C34.322 33.7644 33.9138 34.0688 33.4558 34.2783C32.9978 34.4878 32.5005 34.5976 31.9968 34.6004C31.5211 34.5972 31.0512 34.4961 30.6163 34.3034C30.1814 34.1107 29.7909 33.8306 29.4692 33.4806C29.3476 33.3501 29.2823 33.177 29.2876 32.9988C29.2928 32.8207 29.3681 32.6517 29.4972 32.5286C29.6254 32.4153 29.7924 32.3556 29.9635 32.3618C30.1346 32.3681 30.2967 32.4398 30.4163 32.5622C30.6155 32.7853 30.8587 32.9646 31.1308 33.0889C31.4028 33.2133 31.6977 33.2799 31.9968 33.2846C32.3135 33.2778 32.6256 33.2074 32.9144 33.0775C33.2033 32.9476 33.463 32.761 33.6781 32.5286C33.7958 32.3953 33.9615 32.314 34.139 32.3024C34.3165 32.2909 34.4914 32.3501 34.6253 32.4671C34.6898 32.5259 34.7415 32.5975 34.777 32.6772C34.8125 32.757 34.8311 32.8433 34.8317 32.9306C34.8322 33.0179 34.8146 33.1044 34.7801 33.1845C34.7455 33.2647 34.6947 33.3369 34.6309 33.3966L34.6533 33.3854ZM36.2954 27.226C36.2954 27.3997 36.2264 27.5664 36.1034 27.6892C35.9804 27.8121 35.8136 27.8811 35.6397 27.8811C35.4658 27.8811 35.299 27.8121 35.176 27.6892C35.0531 27.5664 34.984 27.3997 34.984 27.226V26.5372C34.984 26.3635 35.0531 26.1969 35.176 26.074C35.299 25.9511 35.4658 25.8821 35.6397 25.8821C35.8136 25.8821 35.9804 25.9511 36.1034 26.074C36.2264 26.1969 36.2954 26.3635 36.2954 26.5372V27.226ZM42.7966 25.031H41.7038V29.7513H42.7574C43.0359 29.7513 43.303 29.6412 43.5005 29.445C43.6979 29.2488 43.8096 28.9824 43.8111 28.7042V26.0781C43.8125 25.9411 43.7868 25.8052 43.7354 25.6782C43.6839 25.5513 43.6078 25.4357 43.5114 25.3383C43.4149 25.241 43.3001 25.1637 43.1736 25.1109C43.0471 25.0581 42.9113 25.031 42.7742 25.031H42.7966ZM21.2922 25.031C21.0142 25.0324 20.7479 25.1431 20.5508 25.339C20.3537 25.5348 20.2415 25.8003 20.2386 26.0781V28.7042C20.2457 28.9806 20.3592 29.2437 20.5554 29.4387C20.7517 29.6337 21.0155 29.7457 21.2922 29.7513H22.3066V25.031H21.2922ZM32.008 47.3056L30.5957 48.7558L31.2178 49.6853H32.8487L33.4484 48.7558L32.008 47.3056ZM32.6301 50.9956H31.4139L30.1361 58.7172L32.008 60.4587L33.9079 58.6836L32.6301 50.9956ZM32.6301 50.9956H31.4139L30.1361 58.7172L32.008 60.4587L33.9079 58.6836L32.6301 50.9956ZM32.6301 50.9956H31.4139L30.1361 58.7172L32.008 60.4587L33.9079 58.6836L32.6301 50.9956ZM32.6301 50.9956H31.4139L30.1361 58.7172L32.008 60.4587L33.9079 58.6836L32.6301 50.9956ZM32.6301 50.9956H31.4139L30.1361 58.7172L32.008 60.4587L33.9079 58.6836L32.6301 50.9956Z" fill="white"/>
<path fill-rule="evenodd" clip-rule="evenodd" d="M26.1457 41.5218L24.5316 43.1568L29.4243 48.0451L31.0552 46.4437L26.1457 41.5218ZM41.9672 44.0471H40.454L35.0064 49.4562C34.9508 49.5232 34.8802 49.5763 34.8005 49.6113C34.7207 49.6463 34.6339 49.6622 34.5468 49.6578H34.4347L33.8743 50.5257L35.2418 58.8857C35.2629 58.9922 35.2559 59.1025 35.2215 59.2055C35.1871 59.3086 35.1265 59.401 35.0456 59.4736L32.4508 61.9038C32.3288 62.0261 32.164 62.0964 31.9912 62.0997C31.9096 62.0984 31.8293 62.0803 31.755 62.0466C31.6808 62.0129 31.6143 61.9643 31.5596 61.9038L28.9704 59.5072C28.889 59.4348 28.8276 59.3427 28.7923 59.2397C28.7569 59.1367 28.7488 59.0263 28.7686 58.9193L30.1697 50.5201L29.6093 49.641C29.5553 49.6468 29.5008 49.6468 29.4468 49.641C29.3606 49.6395 29.2756 49.6209 29.1967 49.5863C29.1178 49.5517 29.0466 49.5018 28.9872 49.4394L23.5733 44.0303H22.0601C17.2122 44.0471 13.3058 47.5244 13.3058 51.7856V63.6956H18.8487L20.5637 57.2002C20.5811 57.1095 20.6173 57.0233 20.6699 56.9473C20.7225 56.8712 20.7903 56.807 20.8691 56.7585C20.9479 56.7101 21.0359 56.6786 21.1276 56.666C21.2192 56.6533 21.3125 56.6599 21.4014 56.6853C21.4904 56.7106 21.5731 56.7541 21.6443 56.8131C21.7155 56.8721 21.7737 56.9453 21.8151 57.028C21.8564 57.1106 21.8802 57.201 21.8847 57.2933C21.8893 57.3856 21.8745 57.4779 21.8415 57.5642L20.2218 63.7236H43.8111L42.1633 57.5642C42.1386 57.48 42.1309 57.3917 42.1407 57.3045C42.1505 57.2174 42.1776 57.133 42.2204 57.0564C42.2632 56.9797 42.3208 56.9124 42.3899 56.8583C42.459 56.8041 42.5382 56.7643 42.6229 56.7411C42.7929 56.6987 42.9727 56.7225 43.1258 56.8078C43.2788 56.8931 43.3936 57.0334 43.4468 57.2002L45.1954 63.6956H50.7046V51.7856C50.7046 47.5244 46.7926 44.0471 41.9672 44.0471ZM37.8647 41.5162L32.9384 46.4381L34.5468 48.0451L39.5068 43.1568L37.8647 41.5162ZM42.2978 13.2782C42.2642 13.2782 42.2642 13.2166 42.2306 13.2166C40.8519 11.016 36.3235 13.0206 36.2898 13.0206C36.1407 13.0966 35.9678 13.1117 35.8077 13.0626C35.6477 13.0134 35.5131 12.904 35.4323 12.7575C34.3507 10.8201 31.8231 9.95775 28.8022 10.5177C25.3891 11.0832 21.6453 13.6086 20.9223 17.8362V23.7996C21.0313 23.7789 21.1421 23.7695 21.253 23.7716H22.2674V23.0884C22.2648 22.9614 22.2995 22.8365 22.3672 22.729C22.435 22.6215 22.5328 22.5362 22.6485 22.4837H22.7158H22.7718C22.8992 22.4418 23.0367 22.4418 23.1641 22.4837C24.2956 22.9082 25.5073 23.0765 26.7118 22.9764C29.3066 22.7805 31.442 21.4702 33.0168 19.0568C33.0666 18.9631 33.1421 18.8855 33.2343 18.8329C33.3266 18.7804 33.4319 18.7551 33.538 18.7601C33.649 18.7576 33.7588 18.7836 33.8569 18.8355C33.955 18.8875 34.0382 18.9637 34.0985 19.0568C34.8883 20.1091 35.9145 20.9613 37.0943 21.5449C38.2742 22.1284 39.5747 22.427 40.8911 22.4165H41.0256C41.1148 22.4142 41.2036 22.43 41.2865 22.4629C41.3694 22.4958 41.4449 22.5451 41.5082 22.6079C41.5716 22.6707 41.6216 22.7456 41.6552 22.8282C41.6888 22.9108 41.7053 22.9993 41.7038 23.0884V23.7716H42.7574C42.8526 23.7658 42.948 23.7658 43.0432 23.7716C43.1833 17.3322 42.7686 13.8494 42.2978 13.2782ZM29.9343 14.5549C27.8663 14.4877 25.4003 15.8988 25.008 18.2953C24.9873 18.4531 24.9088 18.5976 24.7877 18.701C24.6666 18.8044 24.5115 18.8594 24.3523 18.8553H24.2738C24.1068 18.8215 23.96 18.723 23.8654 18.5813C23.7709 18.4397 23.7364 18.2664 23.7694 18.0993C24.2626 14.9525 27.3507 13.1774 30.0072 13.2446C30.1811 13.2543 30.3441 13.3326 30.4602 13.4622C30.5763 13.5919 30.6362 13.7624 30.6265 13.9362C30.6168 14.1099 30.5385 14.2727 30.4087 14.3887C30.2789 14.5048 30.1083 14.5645 29.9343 14.5549Z" fill="#66D5A6"/>
<path d="M58.691 46.745H54.9752V44.2421C54.9752 43.8425 54.8175 43.4591 54.5363 43.175C54.2551 42.8909 53.8731 42.729 53.4732 42.7246H45.8231C45.4212 42.7261 45.0363 42.8866 44.7527 43.171C44.4691 43.4555 44.3098 43.8406 44.3098 44.2421V46.745H40.5829C39.9709 46.7465 39.3845 46.99 38.9518 47.4223C38.519 47.8547 38.2753 48.4406 38.2738 49.052V62.3786C38.2753 62.99 38.519 63.576 38.9518 64.0083C39.3845 64.4406 39.9709 64.6841 40.5829 64.6856H58.6854C59.2968 64.6841 59.8827 64.4404 60.3145 64.0079C60.7463 63.5755 60.9888 62.9895 60.9888 62.3786V49.052C60.9873 48.4406 60.7436 47.8547 60.3109 47.4223C59.8781 46.99 59.2917 46.7465 58.6797 46.745H58.691ZM45.8006 44.2421H53.4732V46.745H45.8231L45.8006 44.2421ZM59.4868 62.3786C59.4868 62.5886 59.4037 62.79 59.2557 62.9389C59.1076 63.0879 58.9067 63.1723 58.6966 63.1738H40.5829C40.3723 63.1723 40.1707 63.0881 40.0217 62.9393C39.8728 62.7905 39.7885 62.5891 39.787 62.3786V61.6339H59.4868V62.3786ZM59.4868 60.1389H39.7982V55.1442C40.2572 55.4194 40.7818 55.5664 41.3171 55.5697H46.8655V55.8161C46.8668 56.0793 46.9361 56.3377 47.0667 56.5662C47.1973 56.7948 47.3847 56.9858 47.6109 57.1208L48.8719 57.8599C49.1052 58.0006 49.3728 58.0743 49.6453 58.0727C49.9157 58.0716 50.1808 57.9981 50.4131 57.8599L51.6741 57.1208C51.8989 56.9847 52.0849 56.7933 52.2144 56.5649C52.344 56.3365 52.4127 56.0786 52.4139 55.8161V55.5697H57.9568C58.4903 55.5662 59.013 55.4192 59.47 55.1442L59.4868 60.1389ZM48.3787 55.8161V53.7051H50.9063V55.8161L49.6453 56.5608L48.3787 55.8161ZM59.4868 50.5302V52.5404C59.4868 52.9414 59.3274 53.3259 59.0436 53.6095C58.7598 53.893 58.3749 54.0523 57.9736 54.0523H52.4195V53.7051C52.4195 53.3036 52.2603 52.9185 51.9767 52.6341C51.693 52.3497 51.3082 52.1891 50.9063 52.1877H48.3787C47.9769 52.1891 47.592 52.3497 47.3084 52.6341C47.0247 52.9185 46.8655 53.3036 46.8655 53.7051V54.0523H41.3171C40.9152 54.0523 40.5297 53.8932 40.2451 53.6098C39.9604 53.3264 39.7997 52.9419 39.7982 52.5404V49.052C39.7997 48.8435 39.8824 48.6437 40.029 48.4952C40.1755 48.3467 40.3742 48.2612 40.5829 48.2569H58.6854C58.8954 48.2583 59.0964 48.3428 59.2445 48.4917C59.3925 48.6407 59.4756 48.8421 59.4756 49.052L59.4868 50.5302Z" fill="#219D69"/>
<path d="M49.6453 56.5552L48.3843 55.8161V53.7051H50.9063V55.8161L49.6453 56.5552Z" fill="white"/>
<path d="M59.4868 48.9848V52.4733C59.4868 52.8743 59.3274 53.2588 59.0436 53.5423C58.7598 53.8258 58.3749 53.9851 57.9736 53.9851H52.4251V53.638C52.4251 53.235 52.2653 52.8485 51.9806 52.563C51.696 52.2775 51.3097 52.1164 50.9063 52.1149H48.3787C47.9769 52.1164 47.592 52.2769 47.3084 52.5613C47.0247 52.8458 46.8655 53.2309 46.8655 53.6324V53.9795H41.3171C41.1179 53.9803 40.9205 53.9417 40.7363 53.8661C40.552 53.7904 40.3845 53.6792 40.2434 53.5387C40.1023 53.3982 39.9904 53.2313 39.914 53.0475C39.8376 52.8637 39.7982 52.6667 39.7982 52.4677V48.9848C39.7997 48.7769 39.8826 48.5777 40.0293 48.4301C40.176 48.2825 40.3747 48.1982 40.5829 48.1953H58.691C58.9011 48.1953 59.1026 48.2783 59.2517 48.4262C59.4008 48.5741 59.4853 48.7749 59.4868 48.9848Z" fill="#66D5A6"/>
<path d="M57.9568 55.5037C58.4903 55.5002 59.013 55.3532 59.47 55.0781V60.0728H39.7982V55.0781C40.2572 55.3534 40.7818 55.5004 41.3171 55.5037H46.8655V55.7501C46.8674 56.0131 46.9369 56.2713 47.0674 56.4998C47.198 56.7283 47.3851 56.9194 47.6109 57.0547L48.8775 57.7939C49.1092 57.9336 49.3747 58.0072 49.6453 58.0066C49.9157 58.0055 50.1808 57.932 50.4131 57.7939L51.6741 57.0547C51.8992 56.9185 52.0857 56.7273 52.2162 56.499C52.3466 56.2707 52.4166 56.0129 52.4195 55.7501V55.5037H57.9568Z" fill="#66D5A6"/>
<path d="M39.7982 61.5898H59.4868V62.3122C59.4868 62.5231 59.4029 62.7253 59.2537 62.8744C59.1044 63.0235 58.902 63.1073 58.691 63.1073H40.5829C40.3723 63.1058 40.1707 63.0216 40.0217 62.8728C39.8728 62.724 39.7885 62.5226 39.787 62.3122L39.7982 61.5898Z" fill="#66D5A6"/>
<path d="M53.4564 44.2422H45.8231V46.7507H53.4564V44.2422Z" fill="white"/>
</g>
<defs>
<clipPath id="clip0_2790_9371">
<rect width="49" height="56" fill="white" transform="translate(12 9)"/>
</clipPath>
</defs>
</svg>
