<svg width="74" height="74" viewBox="0 0 74 74" fill="none" xmlns="http://www.w3.org/2000/svg">
<rect width="74" height="74" rx="8" fill="#EFFFF8"/>
<path d="M13.51 55.9117V57.455C13.5111 57.8407 13.588 58.2228 13.7368 58.5816C13.4164 58.368 13.1549 58.0839 12.9744 57.7534C12.7939 57.4229 12.6998 57.0558 12.7 56.6833V44.337C12.698 43.1627 13.0978 42.0197 13.8389 41.0813C14.5799 40.1428 15.6218 39.46 16.8067 39.1362L19.2934 38.4648C19.2177 38.875 19.1797 39.2907 19.18 39.7072V42.0221C18.5355 42.0221 17.9175 42.266 17.4617 42.7001C17.006 43.1343 16.75 43.7231 16.75 44.337C16.75 44.951 17.006 45.5398 17.4617 45.9739C17.9175 46.4081 18.5355 46.652 19.18 46.652H19.2286C19.3351 47.5551 19.6283 48.4292 20.0912 49.2239C20.5542 50.0185 21.1777 50.718 21.9259 51.2818C20.3493 51.3787 18.8483 51.961 17.6491 52.9409H17.56V47.4236C17.56 47.219 17.4747 47.0227 17.3228 46.878C17.1709 46.7333 16.9648 46.652 16.75 46.652C16.5352 46.652 16.3292 46.7333 16.1773 46.878C16.0254 47.0227 15.94 47.219 15.94 47.4236V52.9409C15.2476 53.1112 14.6338 53.4949 14.1943 54.0323C13.7547 54.5696 13.5141 55.2304 13.51 55.9117Z" fill="#66D5A6"/>
<path d="M32.14 39.7062V42.0211H29.4346C28.7915 42.0226 28.174 41.7812 27.7174 41.3498L27.0451 40.7093C26.8933 40.5656 26.688 40.4849 26.474 40.4849C26.26 40.4849 26.0548 40.5656 25.903 40.7093L25.2307 41.3498C24.7741 41.7812 24.1566 42.0226 23.5135 42.0211H20.8V39.7062C20.8 38.9968 20.9466 38.2945 21.2316 37.6391C21.5165 36.9838 21.9342 36.3883 22.4607 35.8867C22.9872 35.3852 23.6123 34.9873 24.3002 34.7159C24.9881 34.4444 25.7254 34.3047 26.47 34.3047C27.2146 34.3047 27.9519 34.4444 28.6398 34.7159C29.3277 34.9873 29.9528 35.3852 30.4793 35.8867C31.0058 36.3883 31.4234 36.9838 31.7084 37.6391C31.9933 38.2945 32.14 38.9968 32.14 39.7062Z" fill="#66D5A6"/>
<path d="M33.76 46.6504V52.0519C32.9027 51.6359 31.9659 51.3892 31.006 51.3265C31.7675 50.7599 32.4031 50.0546 32.8759 49.2519C33.3487 48.4491 33.6492 47.5648 33.76 46.6504Z" fill="#66D5A6"/>
<path d="M33.76 39.7052C33.7771 39.4483 33.7771 39.1905 33.76 38.9336L34.57 39.1419C34.9848 39.2577 35.3842 39.4182 35.7607 39.6204C35.0684 40.3096 34.5309 41.1262 34.1812 42.0202C34.0409 42.0123 33.9003 42.0123 33.76 42.0202V39.7052Z" fill="#66D5A6"/>
<path d="M36.19 58.2238V58.9954H19.5445C19.8329 58.5273 19.9866 57.9949 19.99 57.4521V55.9088C19.988 55.1335 19.675 54.3882 19.1152 53.8254C20.0798 53.1704 21.2355 52.8196 22.42 52.8223H24.04C24.04 53.4362 24.2961 54.025 24.7518 54.4592C25.2075 54.8933 25.8256 55.1372 26.47 55.1372C27.1145 55.1372 27.7326 54.8933 28.1883 54.4592C28.644 54.025 28.9 53.4362 28.9 52.8223H30.52C32.0238 52.8223 33.466 53.3914 34.5293 54.4043C35.5927 55.4173 36.19 56.7912 36.19 58.2238Z" fill="#66D5A6"/>
<path d="M37 55.0935C36.5927 54.3386 36.0437 53.6613 35.38 53.095V46.0422C35.8415 45.6415 36.1233 45.0869 36.167 44.4935C36.2108 43.9002 36.013 43.3135 35.6149 42.8553C35.8508 42.0847 36.264 41.374 36.8245 40.7746C37.3849 40.1753 38.0786 39.7025 38.8549 39.3906C38.7033 40.0001 38.6245 40.6239 38.62 41.2503C38.6224 41.6513 38.734 42.0448 38.944 42.3923C38.4032 42.7116 38.0155 43.2202 37.864 43.8089C37.7126 44.3975 37.8095 45.0193 38.134 45.5406C38.178 45.608 38.2267 45.6724 38.2798 45.7335L36.9838 51.9067C36.9617 52.0093 36.9617 52.1151 36.9839 52.2177C37.0061 52.3203 37.05 52.4175 37.1129 52.5034C37.1758 52.5893 37.2564 52.6621 37.3498 52.7174C37.4432 52.7727 37.5474 52.8093 37.6561 52.8249H37.8181H38.9116C38.1162 53.4467 37.4652 54.2192 37 55.0935Z" fill="#66D5A6"/>
<path d="M40.0294 36.6869C39.6384 35.9471 39.4333 35.1308 39.43 34.3025V27.6973C39.6837 27.8371 39.9562 27.9436 40.24 28.0136V28.1294C40.2373 29.2312 40.4841 30.3207 40.9636 31.3234C41.443 32.3262 42.1439 33.2186 43.0183 33.9399C41.8102 34.6203 40.7865 35.5612 40.0294 36.6869Z" fill="#66D5A6"/>
<path d="M40.24 46.6519H40.2886C40.393 47.5531 40.6827 48.4258 41.1414 49.2203C41.6 50.0147 42.2186 50.7152 42.9616 51.2817H38.8063L39.7864 46.6133C39.9364 46.6372 40.088 46.6501 40.24 46.6519Z" fill="#66D5A6"/>
<path d="M47.53 34.3047C49.4634 34.3047 51.3177 35.0364 52.6848 36.3388C54.0519 37.6412 54.82 39.4076 54.82 41.2495C54.82 41.4541 54.7347 41.6504 54.5827 41.7951C54.4308 41.9398 54.2248 42.0211 54.01 42.0211H51.1102L49.7251 40.7093C49.5733 40.5656 49.368 40.4849 49.154 40.4849C48.9401 40.4849 48.7348 40.5656 48.583 40.7093L47.1979 42.0211H41.05C40.8352 42.0211 40.6291 41.9398 40.4772 41.7951C40.3253 41.6504 40.24 41.4541 40.24 41.2495C40.24 39.4076 41.008 37.6412 42.3752 36.3388C43.7423 35.0364 45.5966 34.3047 47.53 34.3047Z" fill="#66D5A6"/>
<path d="M54.01 55.9088V57.4521C54.0087 57.9955 54.1627 58.529 54.4555 58.9954H37.81V58.2238C37.81 56.7912 38.4074 55.4173 39.4707 54.4043C40.534 53.3913 41.9762 52.8223 43.48 52.8223H45.1C45.1 53.4362 45.356 54.025 45.8117 54.4592C46.2674 54.8933 46.8855 55.1372 47.53 55.1372C48.1745 55.1372 48.7926 54.8933 49.2483 54.4592C49.704 54.025 49.96 53.4362 49.96 52.8223H51.58C52.7599 52.825 53.9095 53.1784 54.8686 53.8331C54.3207 54.3988 54.0145 55.1391 54.01 55.9088Z" fill="#66D5A6"/>
<path d="M55.2898 46.6035L56.2699 51.2797H52.1065C52.857 50.7166 53.4832 50.0176 53.9489 49.223C54.4146 48.4284 54.7106 47.5539 54.82 46.6498C54.9776 46.6463 55.1347 46.6308 55.2898 46.6035Z" fill="#66D5A6"/>
<path d="M56.2699 37.3043L55.2574 37.0342C54.6621 36.0436 53.8632 35.1775 52.9084 34.4878C53.9949 33.7809 54.8843 32.8325 55.4996 31.7247C56.1149 30.6168 56.4377 29.3829 56.44 28.1295V28.0215C56.7234 27.9502 56.9958 27.8439 57.25 27.7051V34.3026C57.2505 35.3747 56.9086 36.4216 56.2699 37.3043Z" fill="#66D5A6"/>
<path d="M61.3 44.3343V48.1925H57.25L56.7316 45.7156C57.1135 45.2322 57.2815 44.6256 57.1997 44.0256C57.118 43.4257 56.793 42.88 56.2942 42.5055L56.0998 42.3744C56.3105 42.0319 56.4275 41.6445 56.44 41.2478C56.4364 40.4431 56.3137 39.643 56.0755 38.8711L57.1852 39.172C58.365 39.4926 59.4038 40.169 60.1458 41.0998C60.8877 42.0306 61.2927 43.1656 61.3 44.3343Z" fill="#66D5A6"/>
<path d="M58.06 49.7363H61.3V56.6811C61.2994 57.0543 61.204 57.4218 61.0221 57.7524C60.8401 58.0829 60.577 58.3666 60.2551 58.5793C60.4098 58.222 60.4896 57.8393 60.49 57.4527V55.9095C60.4859 55.2282 60.2453 54.5674 59.8058 54.0301C59.3662 53.4927 58.7524 53.1089 58.06 52.9386V49.7363Z" fill="#66D5A6"/>
<path d="M16.75 25.0439C16.7503 24.7733 16.8253 24.5075 16.9675 24.2732C17.1096 24.0389 17.314 23.8443 17.56 23.709V26.3866C17.3128 26.2506 17.1077 26.0548 16.9654 25.819C16.8232 25.5833 16.7489 25.3159 16.75 25.0439Z" fill="white"/>
<path d="M18.37 55.9085V57.4518C18.37 57.8611 18.1993 58.2536 17.8955 58.5431C17.5917 58.8325 17.1797 58.9951 16.75 58.9951C16.3204 58.9951 15.9083 58.8325 15.6045 58.5431C15.3007 58.2536 15.13 57.8611 15.13 57.4518V55.9085C15.13 55.4992 15.3007 55.1067 15.6045 54.8173C15.9083 54.5278 16.3204 54.3652 16.75 54.3652C17.1797 54.3652 17.5917 54.5278 17.8955 54.8173C18.1993 55.1067 18.37 55.4992 18.37 55.9085Z" fill="white"/>
<path d="M18.37 44.3341C18.37 44.1295 18.4553 43.9332 18.6072 43.7885C18.7591 43.6438 18.9652 43.5625 19.18 43.5625V45.1058C18.9652 45.1058 18.7591 45.0245 18.6072 44.8798C18.4553 44.7351 18.37 44.5388 18.37 44.3341Z" fill="white"/>
<path d="M25.66 52.8223H27.28C27.28 53.0269 27.1947 53.2232 27.0428 53.3679C26.8909 53.5126 26.6849 53.5939 26.47 53.5939C26.2552 53.5939 26.0492 53.5126 25.8973 53.3679C25.7454 53.2232 25.66 53.0269 25.66 52.8223Z" fill="white"/>
<path d="M16.75 18.3437C16.75 16.847 17.3736 15.4115 18.4838 14.3524C19.5939 13.2934 21.1 12.6974 22.6711 12.6953H28.9C29.1148 12.6953 29.3209 12.7766 29.4728 12.9213C29.6247 13.066 29.71 13.2623 29.71 13.467V14.2386C29.71 14.4432 29.7953 14.6395 29.9472 14.7842C30.0991 14.9289 30.3052 15.0102 30.52 15.0102H31.33C31.5448 15.0102 31.7509 15.0915 31.9028 15.2362C32.0547 15.381 32.14 15.5772 32.14 15.7819V21.8316C31.6647 21.6715 31.2535 21.3745 30.9632 20.9819C30.6729 20.5893 30.5181 20.1203 30.52 19.6401C30.5129 19.4961 30.4636 19.3569 30.3777 19.2383C30.2918 19.1196 30.1727 19.0263 30.034 18.9688C29.8911 18.9037 29.7313 18.88 29.5743 18.9006C29.4174 18.9211 29.2703 18.9851 29.1511 19.0845C26.7067 20.9455 23.6699 21.9579 20.5408 21.955C19.5354 21.955 18.5712 21.5745 17.8603 20.8973C17.1494 20.2201 16.75 19.3015 16.75 18.3437Z" fill="#66D5A6"/>
<path d="M26.47 51.2794C24.9662 51.2794 23.524 50.7103 22.4607 49.6973C21.3974 48.6843 20.8 47.3104 20.8 45.8779V43.5629H23.5054C24.0376 43.5639 24.5648 43.4648 25.0568 43.2715C25.5488 43.0782 25.996 42.7944 26.3728 42.4363L26.47 42.3438L26.5672 42.4363C26.9411 42.7959 27.3867 43.0807 27.8776 43.2742C28.3686 43.4676 28.8952 43.5658 29.4265 43.5629H32.14V45.8779C32.14 47.3104 31.5426 48.6843 30.4793 49.6973C29.416 50.7103 27.9738 51.2794 26.47 51.2794Z" fill="white"/>
<path d="M33.76 43.5625C33.9748 43.5625 34.1809 43.6438 34.3328 43.7885C34.4847 43.9332 34.57 44.1295 34.57 44.3341C34.57 44.5388 34.4847 44.7351 34.3328 44.8798C34.1809 45.0245 33.9748 45.1058 33.76 45.1058V43.5625Z" fill="white"/>
<path d="M33.76 26.3924V23.7148C34.0074 23.85 34.213 24.0449 34.3559 24.28C34.4989 24.5151 34.5742 24.782 34.5742 25.0536C34.5742 25.3253 34.4989 25.5922 34.3559 25.8273C34.213 26.0623 34.0074 26.2573 33.76 26.3924Z" fill="white"/>
<path d="M39.6487 24.2723C39.7906 24.0385 39.9945 23.8442 40.24 23.709V26.3866C40.055 26.2851 39.8929 26.1498 39.763 25.9885C39.6331 25.8272 39.538 25.643 39.483 25.4465C39.4281 25.25 39.4144 25.0452 39.4428 24.8437C39.4713 24.6421 39.5412 24.448 39.6487 24.2723Z" fill="white"/>
<path d="M39.43 44.3341C39.43 44.1295 39.5153 43.9332 39.6672 43.7885C39.8191 43.6438 40.0252 43.5625 40.24 43.5625V45.1058C40.0252 45.1058 39.8191 45.0245 39.6672 44.8798C39.5153 44.7351 39.43 44.5388 39.43 44.3341Z" fill="white"/>
<path d="M46.72 52.8223H48.34C48.34 53.0269 48.2547 53.2232 48.1028 53.3679C47.9509 53.5126 47.7449 53.5939 47.53 53.5939C47.3152 53.5939 47.1092 53.5126 46.9573 53.3679C46.8054 53.2232 46.72 53.0269 46.72 52.8223Z" fill="white"/>
<path d="M47.53 51.2795C46.0263 51.2795 44.5841 50.7104 43.5207 49.6974C42.4574 48.6844 41.86 47.3105 41.86 45.878V43.563H47.53C47.7425 43.5622 47.9462 43.4818 48.097 43.3393L49.15 42.3516L50.1949 43.347C50.3491 43.4886 50.5559 43.5663 50.77 43.563H53.2V45.878C53.2 47.3105 52.6027 48.6844 51.5393 49.6974C50.476 50.7104 49.0338 51.2795 47.53 51.2795Z" fill="white"/>
<path d="M44.6788 33.2219C43.8064 32.6584 43.093 31.8991 42.6014 31.011C42.1098 30.1228 41.8552 29.1331 41.86 28.129V23.4992H44.29C45.377 23.4995 46.4503 23.2682 47.4314 22.8222C48.4124 22.3763 49.2764 21.727 49.96 20.9219C51.1588 22.3591 52.9061 23.2857 54.82 23.4992V28.129C54.8181 29.2557 54.4925 30.3605 53.8785 31.3235C53.2646 32.2865 52.3856 33.0711 51.337 33.5922C49.2549 32.6401 46.8631 32.5071 44.6788 33.2219Z" fill="white"/>
<path d="M55.63 44.3341C55.63 44.5388 55.5447 44.7351 55.3928 44.8798C55.2409 45.0245 55.0348 45.1058 54.82 45.1058V43.5625C55.0348 43.5625 55.2409 43.6438 55.3928 43.7885C55.5447 43.9332 55.63 44.1295 55.63 44.3341Z" fill="white"/>
<path d="M57.25 25.0421C57.2511 25.314 57.1768 25.5814 57.0346 25.8172C56.8923 26.053 56.6872 26.2488 56.44 26.3847V23.7148C56.6848 23.8495 56.8884 24.0429 57.0305 24.2757C57.1726 24.5085 57.2483 24.7727 57.25 25.0421Z" fill="white"/>
<path d="M41.05 21.955C40.4795 21.9607 39.9206 22.1097 39.43 22.3871V21.1834C39.43 18.9322 40.3687 16.7732 42.0397 15.1814C43.7106 13.5896 45.9769 12.6953 48.34 12.6953C50.7031 12.6953 52.9694 13.5896 54.6403 15.1814C56.3113 16.7732 57.25 18.9322 57.25 21.1834V22.3871C56.7594 22.1097 56.2005 21.9607 55.63 21.955C54.7498 21.955 53.8816 21.7598 53.0943 21.3848C52.307 21.0098 51.6221 20.4653 51.094 19.7944L50.608 19.1771C50.5403 19.0926 50.4551 19.0224 50.3576 18.9708C50.2601 18.9192 50.1525 18.8873 50.0414 18.8772C49.9304 18.867 49.8184 18.8788 49.7124 18.9119C49.6064 18.9449 49.5087 18.9984 49.4254 19.0691C49.3856 19.1031 49.3477 19.1392 49.312 19.1771L48.826 19.7944C48.2978 20.4653 47.613 21.0098 46.8257 21.3848C46.0384 21.7598 45.1702 21.955 44.29 21.955H41.05Z" fill="#66D5A6"/>
<path d="M58.87 55.9085V57.4518C58.87 57.8611 58.6993 58.2536 58.3955 58.5431C58.0917 58.8325 57.6797 58.9951 57.25 58.9951C56.8204 58.9951 56.4083 58.8325 56.1045 58.5431C55.8007 58.2536 55.63 57.8611 55.63 57.4518V55.9085C55.63 55.4992 55.8007 55.1067 56.1045 54.8173C56.4083 54.5278 56.8204 54.3652 57.25 54.3652C57.6797 54.3652 58.0917 54.5278 58.3955 54.8173C58.6993 55.1067 58.87 55.4992 58.87 55.9085Z" fill="white"/>
<path d="M44.29 24.2715C44.0752 24.2715 43.8692 24.3528 43.7173 24.4975C43.5654 24.6422 43.48 24.8385 43.48 25.0431V25.8148C43.48 26.0194 43.5654 26.2157 43.7173 26.3604C43.8692 26.5051 44.0752 26.5864 44.29 26.5864C44.5049 26.5864 44.7109 26.5051 44.8628 26.3604C45.0147 26.2157 45.1 26.0194 45.1 25.8148V25.0431C45.1 24.8385 45.0147 24.6422 44.8628 24.4975C44.7109 24.3528 44.5049 24.2715 44.29 24.2715Z" fill="#219D69"/>
<path d="M52.39 26.5864C52.6048 26.5864 52.8109 26.5051 52.9628 26.3604C53.1147 26.2157 53.2 26.0194 53.2 25.8148V25.0431C53.2 24.8385 53.1147 24.6422 52.9628 24.4975C52.8109 24.3528 52.6048 24.2715 52.39 24.2715C52.1752 24.2715 51.9692 24.3528 51.8173 24.4975C51.6654 24.6422 51.58 24.8385 51.58 25.0431V25.8148C51.58 26.0194 51.6654 26.2157 51.8173 26.3604C51.9692 26.5051 52.1752 26.5864 52.39 26.5864Z" fill="#219D69"/>
<path d="M49.3849 30.6773C49.2969 30.8083 49.1826 30.9215 49.0485 31.0103C48.9145 31.0991 48.7633 31.1618 48.6038 31.1948C48.4442 31.2278 48.2793 31.2304 48.1187 31.2025C47.9581 31.1746 47.8048 31.1167 47.6677 31.0322C47.5204 30.9382 47.3938 30.8176 47.2951 30.6773C47.1436 30.532 46.9378 30.4499 46.7229 30.4492C46.5079 30.4485 46.3015 30.5291 46.149 30.6734C45.9964 30.8177 45.9103 31.0138 45.9096 31.2186C45.9088 31.4233 45.9935 31.62 46.1449 31.7653C46.3776 32.0403 46.6649 32.2688 46.9905 32.4379C47.316 32.6069 47.6733 32.7131 48.042 32.7504C48.4107 32.7876 48.7835 32.7553 49.139 32.6551C49.4945 32.5549 49.8258 32.3889 50.1139 32.1666C50.2681 32.0467 50.4092 31.9122 50.5351 31.7653C50.6101 31.6934 50.6695 31.608 50.7099 31.5142C50.7502 31.4204 50.7708 31.32 50.7705 31.2186C50.7701 31.1172 50.7487 31.0169 50.7077 30.9233C50.6666 30.8298 50.6066 30.7449 50.5311 30.6734C50.4555 30.602 50.366 30.5454 50.2675 30.507C50.169 30.4685 50.0636 30.4489 49.9571 30.4492C49.8507 30.4496 49.7454 30.4699 49.6472 30.509C49.549 30.5482 49.4599 30.6053 49.3849 30.6773Z" fill="#219D69"/>
<path d="M21.61 26.5864C21.8248 26.5864 22.0308 26.5051 22.1827 26.3604C22.3346 26.2157 22.42 26.0194 22.42 25.8148V25.0431C22.42 24.8385 22.3346 24.6422 22.1827 24.4975C22.0308 24.3528 21.8248 24.2715 21.61 24.2715C21.3952 24.2715 21.1891 24.3528 21.0372 24.4975C20.8853 24.6422 20.8 24.8385 20.8 25.0431V25.8148C20.8 26.0194 20.8853 26.2157 21.0372 26.3604C21.1891 26.5051 21.3952 26.5864 21.61 26.5864Z" fill="#219D69"/>
<path d="M29.71 26.5864C29.9248 26.5864 30.1309 26.5051 30.2828 26.3604C30.4347 26.2157 30.52 26.0194 30.52 25.8148V25.0431C30.52 24.8385 30.4347 24.6422 30.2828 24.4975C30.1309 24.3528 29.9248 24.2715 29.71 24.2715C29.4952 24.2715 29.2892 24.3528 29.1373 24.4975C28.9854 24.6422 28.9 24.8385 28.9 25.0431V25.8148C28.9 26.0194 28.9854 26.2157 29.1373 26.3604C29.2892 26.5051 29.4952 26.5864 29.71 26.5864Z" fill="#219D69"/>
<path d="M27.8551 30.6775C27.7798 30.6051 27.6902 30.5477 27.5915 30.5086C27.4928 30.4694 27.3869 30.4492 27.28 30.4492C27.1731 30.4492 27.0672 30.4694 26.9685 30.5086C26.8698 30.5477 26.7802 30.6051 26.7049 30.6775C26.6169 30.8085 26.5026 30.9217 26.3685 31.0105C26.2345 31.0993 26.0833 31.162 25.9238 31.195C25.7642 31.228 25.5993 31.2306 25.4387 31.2027C25.2781 31.1748 25.1248 31.1169 24.9877 31.0324C24.8404 30.9384 24.7138 30.8178 24.6151 30.6775C24.4637 30.5322 24.2578 30.4501 24.0429 30.4494C23.8279 30.4487 23.6215 30.5293 23.469 30.6736C23.3164 30.8179 23.2303 31.014 23.2296 31.2187C23.2288 31.4235 23.3135 31.6202 23.4649 31.7655C23.7419 32.0633 24.079 32.3049 24.4561 32.476C24.8333 32.647 25.2427 32.7439 25.66 32.7609C26.0775 32.7448 26.4872 32.6483 26.8645 32.4772C27.2417 32.3061 27.5787 32.064 27.8551 31.7655C28.006 31.6209 28.0907 31.4253 28.0907 31.2215C28.0907 31.0176 28.006 30.822 27.8551 30.6775Z" fill="#219D69"/>
<path d="M57.898 37.7682C58.5373 36.7153 58.8727 35.5199 58.87 34.3036V21.1856C58.87 18.5252 57.7606 15.9737 55.7859 14.0924C53.8111 12.2112 51.1327 11.1543 48.34 11.1543C45.5473 11.1543 42.8689 12.2112 40.8942 14.0924C38.9194 15.9737 37.81 18.5252 37.81 21.1856V34.3036C37.8111 35.5229 38.1491 36.7205 38.7901 37.776C38.1579 37.9749 37.556 38.2525 37 38.6016C36.37 38.1998 35.6788 37.8927 34.9507 37.6911L33.2659 37.2281C32.7582 35.9926 31.8897 34.9215 30.763 34.1415C31.7017 33.4161 32.4581 32.4997 32.9767 31.4596C33.4953 30.4194 33.7629 29.2819 33.76 28.1304V28.0224C34.443 27.8423 35.0451 27.4538 35.4742 26.9165C35.9032 26.3793 36.1356 25.7228 36.1356 25.0477C36.1356 24.3726 35.9032 23.7162 35.4742 23.1789C35.0451 22.6416 34.443 22.2532 33.76 22.073V15.7842C33.76 15.1702 33.504 14.5814 33.0483 14.1472C32.5926 13.7131 31.9745 13.4692 31.33 13.4692C31.33 12.8553 31.074 12.2665 30.6183 11.8323C30.1626 11.3982 29.5445 11.1543 28.9 11.1543H22.6711C20.671 11.1584 18.7542 11.9176 17.3406 13.2657C15.9271 14.6137 15.1322 16.4406 15.13 18.346C15.1306 19.088 15.2995 19.821 15.6253 20.4949C15.9511 21.1689 16.4259 21.7677 17.0173 22.2505C16.4174 22.5204 15.919 22.9591 15.5893 23.5075C15.2596 24.0559 15.1145 24.6875 15.1737 25.3169C15.2329 25.9464 15.4935 26.5433 15.9202 27.0272C16.347 27.511 16.9194 27.8584 17.56 28.0224V28.1304C17.5591 29.4508 17.9138 30.7493 18.5903 31.9018C19.2668 33.0542 20.2424 34.022 21.4237 34.7125C20.7904 35.2907 20.2718 35.9729 19.8928 36.7265L16.3693 37.6911C14.8515 38.1037 13.5153 38.9745 12.5615 40.1726C11.6077 41.3707 11.0878 42.8313 11.08 44.3349L11.08 56.6812C11.08 57.7044 11.5067 58.6858 12.2662 59.4094C13.0258 60.1329 14.0559 60.5394 15.13 60.5394H58.87C59.9441 60.5394 60.9743 60.1329 61.7338 59.4094C62.4933 58.6858 62.92 57.7044 62.92 56.6812V44.3349C62.9126 42.8767 62.4236 41.4576 61.5222 40.279C60.6208 39.1003 59.3528 38.2219 57.898 37.7682ZM33.76 23.7089C34.0074 23.8441 34.213 24.039 34.3559 24.2741C34.4989 24.5092 34.5742 24.776 34.5742 25.0477C34.5742 25.3194 34.4989 25.5863 34.3559 25.8213C34.213 26.0564 34.0074 26.2514 33.76 26.3865V23.7089ZM39.43 21.1856C39.43 18.9345 40.3687 16.7755 42.0397 15.1837C43.7106 13.5919 45.9769 12.6976 48.34 12.6976C50.7031 12.6976 52.9694 13.5919 54.6403 15.1837C56.3113 16.7755 57.25 18.9345 57.25 21.1856V22.3894C56.7594 22.112 56.2005 21.9629 55.63 21.9573C54.7498 21.9573 53.8816 21.7621 53.0943 21.387C52.307 21.012 51.6222 20.4675 51.094 19.7967L50.608 19.1794C50.5403 19.0949 50.4551 19.0247 50.3576 18.9731C50.2601 18.9215 50.1525 18.8896 50.0415 18.8794C49.9304 18.8693 49.8184 18.8811 49.7124 18.9141C49.6064 18.9472 49.5087 19.0007 49.4254 19.0713C49.3856 19.1054 49.3478 19.1415 49.312 19.1794L48.826 19.7967C48.2979 20.4675 47.613 21.012 46.8257 21.387C46.0384 21.7621 45.1703 21.9573 44.29 21.9573H41.05C40.4795 21.9629 39.9207 22.112 39.43 22.3894V21.1856ZM52.0984 51.2797C52.8415 50.7132 53.46 50.0127 53.9187 49.2182C54.3773 48.4238 54.6671 47.551 54.7714 46.6498H54.82C54.9737 46.6613 55.1281 46.6613 55.2817 46.6498L56.2618 51.2797H52.0984ZM56.44 52.823V52.9387H56.3266L56.1565 52.823H56.44ZM47.53 51.2797C46.0262 51.2797 44.5841 50.7106 43.5207 49.6976C42.4574 48.6847 41.86 47.3108 41.86 45.8782V43.5633H47.53C47.6366 43.5639 47.7423 43.5444 47.841 43.506C47.9397 43.4676 48.0294 43.411 48.1051 43.3395L49.15 42.3441L50.1949 43.3395C50.2706 43.411 50.3604 43.4676 50.4591 43.506C50.5577 43.5444 50.6634 43.5639 50.77 43.5633H53.2V45.8782C53.2 47.3108 52.6026 48.6847 51.5393 49.6976C50.476 50.7106 49.0338 51.2797 47.53 51.2797ZM48.34 52.823C48.34 53.0276 48.2547 53.2239 48.1028 53.3686C47.9509 53.5133 47.7448 53.5946 47.53 53.5946C47.3152 53.5946 47.1092 53.5133 46.9573 53.3686C46.8054 53.2239 46.72 53.0276 46.72 52.823H48.34ZM47.53 34.3036C49.4634 34.3036 51.3177 35.0352 52.6848 36.3376C54.052 37.64 54.82 39.4065 54.82 41.2483C54.82 41.453 54.7347 41.6493 54.5828 41.794C54.4309 41.9387 54.2248 42.02 54.01 42.02H51.1021L49.7251 40.7082C49.6498 40.6359 49.5602 40.5785 49.4615 40.5393C49.3628 40.5001 49.2569 40.4799 49.15 40.4799C49.0431 40.4799 48.9372 40.5001 48.8385 40.5393C48.7398 40.5785 48.6502 40.6359 48.5749 40.7082L47.1979 42.02H41.05C40.8352 42.02 40.6292 41.9387 40.4773 41.794C40.3254 41.6493 40.24 41.453 40.24 41.2483C40.24 39.4065 41.0081 37.64 42.3752 36.3376C43.7423 35.0352 45.5966 34.3036 47.53 34.3036ZM41.86 28.1304V23.5006H44.29C45.377 23.5009 46.4503 23.2696 47.4314 22.8236C48.4125 22.3777 49.2764 21.7284 49.96 20.9233C51.1617 22.3573 52.9075 23.2831 54.82 23.5006V28.1304C54.8181 29.2572 54.4925 30.3619 53.8786 31.3249C53.2646 32.288 52.3857 33.0725 51.337 33.5937C49.256 32.639 46.8641 32.5032 44.6788 33.2155C43.8111 32.6495 43.101 31.8907 42.6099 31.0048C42.1188 30.1188 41.8614 29.1323 41.86 28.1304ZM40.2886 46.6498C40.5045 48.4684 41.4651 50.1322 42.9616 51.2797H38.8063L39.7783 46.6498C39.932 46.6613 40.0864 46.6613 40.24 46.6498H40.2886ZM54.82 45.1066V43.5633C55.0348 43.5633 55.2409 43.6446 55.3928 43.7893C55.5447 43.934 55.63 44.1303 55.63 44.3349C55.63 44.5396 55.5447 44.7358 55.3928 44.8805C55.2409 45.0253 55.0348 45.1066 54.82 45.1066ZM55.2574 37.0429C54.6565 36.0561 53.8585 35.191 52.9084 34.4965C53.996 33.7888 54.8861 32.8392 55.5014 31.7299C56.1168 30.6206 56.439 29.3851 56.44 28.1304V28.0224C56.7238 27.9523 56.9963 27.8459 57.25 27.706V34.3036C57.2526 35.3784 56.9106 36.4283 56.2699 37.313L55.2574 37.0429ZM56.44 26.3865V23.7089C56.6874 23.8441 56.893 24.039 57.0359 24.2741C57.1789 24.5092 57.2542 24.776 57.2542 25.0477C57.2542 25.3194 57.1789 25.5863 57.0359 25.8213C56.893 26.0564 56.6874 26.2514 56.44 26.3865ZM40.24 23.7089V26.3865C40.0551 26.285 39.893 26.1498 39.7631 25.9884C39.6332 25.8271 39.538 25.6429 39.4831 25.4464C39.4281 25.25 39.4145 25.0451 39.4429 24.8436C39.4713 24.6421 39.5413 24.4479 39.6487 24.2722C39.7943 24.0411 39.9974 23.8476 40.24 23.7089ZM39.43 27.706C39.6837 27.8459 39.9562 27.9523 40.24 28.0224V28.1304C40.2389 29.2328 40.4872 30.3225 40.968 31.3252C41.4489 32.3278 42.1509 33.22 43.0264 33.9409C41.8109 34.6181 40.7833 35.5627 40.0294 36.6957C39.6375 35.9534 39.4323 35.1344 39.43 34.3036V27.706ZM40.24 43.5633V45.1066C40.0252 45.1066 39.8192 45.0253 39.6673 44.8805C39.5154 44.7358 39.43 44.5396 39.43 44.3349C39.43 44.1303 39.5154 43.934 39.6673 43.7893C39.8192 43.6446 40.0252 43.5633 40.24 43.5633ZM34.5052 39.1649C34.9224 39.2809 35.3246 39.4414 35.704 39.6433C35.0256 40.3401 34.5046 41.1622 34.1731 42.0586C34.0364 42.0377 33.8984 42.0248 33.76 42.02V39.7051C33.76 39.4581 33.76 39.2035 33.7195 38.9334L34.5052 39.1649ZM34.57 44.3349C34.57 44.5396 34.4847 44.7358 34.3328 44.8805C34.1809 45.0253 33.9748 45.1066 33.76 45.1066V43.5633C33.9748 43.5633 34.1809 43.6446 34.3328 43.7893C34.4847 43.934 34.57 44.1303 34.57 44.3349ZM33.7114 46.6498H33.76V52.0513C32.9067 51.6183 31.9696 51.3557 31.006 51.2797C32.5147 50.1377 33.4874 48.4731 33.7114 46.6498ZM17.56 26.3865C17.3126 26.2514 17.1071 26.0564 16.9641 25.8213C16.8211 25.5863 16.7459 25.3194 16.7459 25.0477C16.7459 24.776 16.8211 24.5092 16.9641 24.2741C17.1071 24.039 17.3126 23.8441 17.56 23.7089V26.3865ZM16.75 18.346C16.7522 16.8499 17.3764 15.4156 18.4861 14.3569C19.5959 13.2983 21.1007 12.7017 22.6711 12.6976H28.9C29.1148 12.6976 29.3209 12.7789 29.4728 12.9236C29.6247 13.0683 29.71 13.2646 29.71 13.4692V14.2409C29.71 14.4455 29.7954 14.6418 29.9473 14.7865C30.0992 14.9312 30.3052 15.0125 30.52 15.0125H31.33C31.5448 15.0125 31.7509 15.0938 31.9028 15.2385C32.0547 15.3832 32.14 15.5795 32.14 15.7842V21.8338C31.6647 21.6737 31.2535 21.3768 30.9632 20.9842C30.673 20.5915 30.5181 20.1226 30.52 19.6424C30.5129 19.4984 30.4636 19.3592 30.3777 19.2405C30.2918 19.1219 30.1728 19.0285 30.034 18.971C29.89 18.9106 29.7312 18.8895 29.5754 18.9099C29.4195 18.9304 29.2726 18.9916 29.1511 19.0868C26.7089 20.9461 23.6752 21.9585 20.5489 21.9573C20.0504 21.9583 19.5566 21.8656 19.0958 21.6846C18.6349 21.5036 18.216 21.2377 17.8632 20.9023C17.5103 20.5669 17.2304 20.1684 17.0393 19.7298C16.8483 19.2911 16.75 18.8209 16.75 18.346ZM19.7146 30.5534L19.2448 28.9484C19.18 28.6706 19.18 23.3308 19.18 23.3308C19.6264 23.445 20.0867 23.5021 20.5489 23.5006C23.6141 23.4967 26.6086 22.6236 29.1511 20.9927C29.3929 21.6048 29.7941 22.1483 30.3169 22.5721C30.8397 22.996 31.4671 23.2863 32.14 23.4157C32.14 23.4157 32.14 28.6783 32.0833 28.9484L31.6216 30.5688C31.1209 31.6772 30.2902 32.6215 29.2321 33.285C28.2098 32.8861 27.1052 32.7155 26.003 32.7864C24.9008 32.8573 23.8303 33.1678 22.8736 33.694C21.4555 33.0469 20.3328 31.9307 19.7146 30.5534ZM20.8 39.7051C20.8 38.2725 21.3974 36.8986 22.4607 35.8856C23.5241 34.8726 24.9662 34.3036 26.47 34.3036C27.9738 34.3036 29.416 34.8726 30.4793 35.8856C31.5426 36.8986 32.14 38.2725 32.14 39.7051V42.02H29.4346C28.7915 42.0215 28.174 41.7801 27.7174 41.3487L27.0451 40.7082C26.9698 40.6359 26.8802 40.5785 26.7815 40.5393C26.6828 40.5001 26.5769 40.4799 26.47 40.4799C26.3631 40.4799 26.2572 40.5001 26.1585 40.5393C26.0598 40.5785 25.9702 40.6359 25.8949 40.7082L25.2226 41.3487C24.766 41.7801 24.1485 42.0215 23.5054 42.02H20.8V39.7051ZM20.8 43.5633H23.5054C24.0376 43.5642 24.5648 43.4651 25.0568 43.2718C25.5488 43.0785 25.996 42.7947 26.3728 42.4367L26.47 42.3441L26.5672 42.4367C26.944 42.7947 27.3912 43.0785 27.8832 43.2718C28.3752 43.4651 28.9024 43.5642 29.4346 43.5633H32.14V45.8782C32.14 47.3108 31.5426 48.6847 30.4793 49.6976C29.416 50.7106 27.9738 51.2797 26.47 51.2797C24.9662 51.2797 23.5241 50.7106 22.4607 49.6976C21.3974 48.6847 20.8 47.3108 20.8 45.8782V43.5633ZM27.28 52.823C27.28 53.0276 27.1947 53.2239 27.0428 53.3686C26.8909 53.5133 26.6848 53.5946 26.47 53.5946C26.2552 53.5946 26.0492 53.5133 25.8973 53.3686C25.7454 53.2239 25.66 53.0276 25.66 52.823H27.28ZM13.51 55.9095V57.4528C13.5111 57.8386 13.588 58.2207 13.7368 58.5794C13.4164 58.3658 13.1549 58.0818 12.9744 57.7513C12.7939 57.4208 12.6998 57.0537 12.7 56.6812V44.3349C12.7056 43.1649 13.1098 42.0282 13.8518 41.0958C14.5939 40.1634 15.6337 39.4858 16.8148 39.1649L19.3015 38.4936C19.221 38.8929 19.1803 39.2985 19.18 39.7051V42.02C18.5355 42.02 17.9175 42.2639 17.4617 42.698C17.006 43.1321 16.75 43.721 16.75 44.3349C16.75 44.9489 17.006 45.5377 17.4617 45.9718C17.9175 46.4059 18.5355 46.6498 19.18 46.6498H19.2286C19.4506 48.4719 20.4203 50.1363 21.9259 51.2797C20.3493 51.3766 18.8483 51.9588 17.6491 52.9387H17.56V47.4215C17.56 47.2168 17.4747 47.0206 17.3228 46.8758C17.1709 46.7311 16.9648 46.6498 16.75 46.6498C16.5352 46.6498 16.3292 46.7311 16.1773 46.8758C16.0254 47.0206 15.94 47.2168 15.94 47.4215V52.9387C15.2476 53.109 14.6338 53.4928 14.1943 54.0301C13.7547 54.5675 13.5141 55.2283 13.51 55.9095ZM19.18 43.5633V45.1066C18.9652 45.1066 18.7592 45.0253 18.6073 44.8805C18.4554 44.7358 18.37 44.5396 18.37 44.3349C18.37 44.1303 18.4554 43.934 18.6073 43.7893C18.7592 43.6446 18.9652 43.5633 19.18 43.5633ZM18.37 57.4528C18.37 57.8621 18.1993 58.2547 17.8955 58.5441C17.5917 58.8335 17.1797 58.9961 16.75 58.9961C16.3204 58.9961 15.9083 58.8335 15.6045 58.5441C15.3007 58.2547 15.13 57.8621 15.13 57.4528V55.9095C15.13 55.5002 15.3007 55.1077 15.6045 54.8183C15.9083 54.5289 16.3204 54.3663 16.75 54.3663C17.1797 54.3663 17.5917 54.5289 17.8955 54.8183C18.1993 55.1077 18.37 55.5002 18.37 55.9095V57.4528ZM36.19 58.9961H19.5364C19.8316 58.5304 19.9884 57.9969 19.99 57.4528V55.9095C19.9853 55.1362 19.676 54.3926 19.1233 53.8261C20.0836 53.1688 21.2376 52.8177 22.42 52.823H24.04C24.04 53.4369 24.296 54.0257 24.7517 54.4599C25.2075 54.894 25.8255 55.1379 26.47 55.1379C27.1145 55.1379 27.7326 54.894 28.1883 54.4599C28.644 54.0257 28.9 53.4369 28.9 52.823H30.52C32.0238 52.823 33.466 53.3921 34.5293 54.405C35.5926 55.418 36.19 56.7919 36.19 58.2245V58.9961ZM35.38 53.1008V46.048C35.8415 45.6472 36.1233 45.0927 36.167 44.4993C36.2108 43.9059 36.0131 43.3193 35.6149 42.8611C35.8508 42.0905 36.264 41.3797 36.8245 40.7804C37.3849 40.1811 38.0786 39.7083 38.8549 39.3964C38.7039 40.0034 38.6251 40.6246 38.62 41.2483C38.6224 41.6493 38.734 42.0429 38.944 42.3904C38.41 42.7158 38.0307 43.2272 37.8869 43.8154C37.7432 44.4036 37.8464 45.022 38.1745 45.5387C38.2157 45.6059 38.2617 45.6704 38.3122 45.7316L37.0243 51.9047C37.0018 52.0046 37.0004 52.1077 37.02 52.2081C37.0397 52.3085 37.0801 52.4042 37.1389 52.4896C37.1976 52.575 37.2736 52.6485 37.3624 52.7057C37.4512 52.7629 37.551 52.8028 37.6561 52.823H37.8181H38.9116C38.1062 53.4538 37.454 54.2436 37 55.1379C36.5931 54.3715 36.0443 53.6814 35.38 53.1008ZM54.4636 58.9961H37.81V58.2245C37.81 56.7919 38.4074 55.418 39.4707 54.405C40.5341 53.3921 41.9762 52.823 43.48 52.823H45.1C45.1 53.4369 45.356 54.0257 45.8117 54.4599C46.2675 54.894 46.8855 55.1379 47.53 55.1379C48.1745 55.1379 48.7926 54.894 49.2483 54.4599C49.704 54.0257 49.96 53.4369 49.96 52.823H51.58C52.7599 52.8257 53.9095 53.1791 54.8686 53.8338C54.3208 54.3995 54.0145 55.1399 54.01 55.9095V57.4528C54.0159 57.9963 54.1724 58.5287 54.4636 58.9961ZM58.87 57.4528C58.87 57.8621 58.6993 58.2547 58.3955 58.5441C58.0917 58.8335 57.6797 58.9961 57.25 58.9961C56.8204 58.9961 56.4083 58.8335 56.1045 58.5441C55.8007 58.2547 55.63 57.8621 55.63 57.4528V55.9095C55.63 55.5002 55.8007 55.1077 56.1045 54.8183C56.4083 54.5289 56.8204 54.3663 57.25 54.3663C57.6797 54.3663 58.0917 54.5289 58.3955 54.8183C58.6993 55.1077 58.87 55.5002 58.87 55.9095V57.4528ZM61.3 56.6812C61.3003 57.0537 61.2062 57.4208 61.0257 57.7513C60.8452 58.0818 60.5836 58.3658 60.2632 58.5794C60.4121 58.2207 60.489 57.8386 60.49 57.4528V55.9095C60.4859 55.2283 60.2453 54.5675 59.8058 54.0301C59.3662 53.4928 58.7524 53.109 58.06 52.9387V49.7364H61.3V56.6812ZM61.3 48.1931H57.25L56.7316 45.7162C57.1144 45.2337 57.2838 44.6277 57.2035 44.0278C57.1233 43.4279 56.7998 42.8817 56.3023 42.5061C56.2381 42.458 56.1704 42.4142 56.0998 42.3749C56.3128 42.0334 56.43 41.6455 56.44 41.2483C56.4404 40.4435 56.3176 39.6428 56.0755 38.8717L57.1852 39.1726C58.365 39.4932 59.4039 40.1696 60.1458 41.1004C60.8877 42.0312 61.2927 43.1662 61.3 44.3349V48.1931Z" fill="#219D69"/>
<path d="M23.23 46.5023C23.4449 46.5023 23.6509 46.421 23.8028 46.2763C23.9547 46.1316 24.04 45.9353 24.04 45.7307V45.1056C24.04 44.901 23.9547 44.7047 23.8028 44.56C23.6509 44.4153 23.4449 44.334 23.23 44.334C23.0152 44.334 22.8092 44.4153 22.6573 44.56C22.5054 44.7047 22.42 44.901 22.42 45.1056V45.7307C22.42 45.9353 22.5054 46.1316 22.6573 46.2763C22.8092 46.421 23.0152 46.5023 23.23 46.5023Z" fill="#219D69"/>
<path d="M29.71 46.5023C29.9248 46.5023 30.1309 46.421 30.2828 46.2763C30.4347 46.1316 30.52 45.9353 30.52 45.7307V45.1056C30.52 44.901 30.4347 44.7047 30.2828 44.56C30.1309 44.4153 29.9248 44.334 29.71 44.334C29.4952 44.334 29.2892 44.4153 29.1373 44.56C28.9854 44.7047 28.9 44.901 28.9 45.1056V45.7307C28.9 45.9353 28.9854 46.1316 29.1373 46.2763C29.2892 46.421 29.4952 46.5023 29.71 46.5023Z" fill="#219D69"/>
<path d="M24.275 49.5133C24.5519 49.8112 24.8891 50.0528 25.2662 50.2238C25.6433 50.3948 26.0528 50.4918 26.4701 50.5088C26.8875 50.4926 27.2973 50.3961 27.6745 50.225C28.0518 50.054 28.3888 49.8119 28.6652 49.5133C28.816 49.3688 28.9007 49.1732 28.9007 48.9693C28.9007 48.7655 28.816 48.5699 28.6652 48.4253C28.5141 48.2863 28.3123 48.2085 28.1022 48.2085C27.8921 48.2085 27.6903 48.2863 27.5393 48.4253C27.4513 48.5564 27.337 48.6695 27.2029 48.7584C27.0688 48.8472 26.9177 48.9099 26.7581 48.9429C26.5985 48.9758 26.4337 48.9785 26.2731 48.9506C26.1124 48.9227 25.9591 48.8648 25.8221 48.7803C25.6729 48.6884 25.5459 48.5674 25.4495 48.4253C25.298 48.28 25.0922 48.198 24.8772 48.1973C24.6623 48.1965 24.4558 48.2772 24.3033 48.4215C24.1508 48.5658 24.0647 48.7618 24.0639 48.9666C24.0631 49.1714 24.1478 49.368 24.2993 49.5133H24.275Z" fill="#219D69"/>
<path d="M44.29 46.5023C44.5049 46.5023 44.7109 46.421 44.8628 46.2763C45.0147 46.1316 45.1 45.9353 45.1 45.7307V45.1056C45.1 44.901 45.0147 44.7047 44.8628 44.56C44.7109 44.4153 44.5049 44.334 44.29 44.334C44.0752 44.334 43.8692 44.4153 43.7173 44.56C43.5654 44.7047 43.48 44.901 43.48 45.1056V45.7307C43.48 45.9353 43.5654 46.1316 43.7173 46.2763C43.8692 46.421 44.0752 46.5023 44.29 46.5023Z" fill="#219D69"/>
<path d="M50.77 46.5023C50.9848 46.5023 51.1909 46.421 51.3428 46.2763C51.4947 46.1316 51.58 45.9353 51.58 45.7307V45.1056C51.58 44.901 51.4947 44.7047 51.3428 44.56C51.1909 44.4153 50.9848 44.334 50.77 44.334C50.5552 44.334 50.3492 44.4153 50.1973 44.56C50.0454 44.7047 49.96 44.901 49.96 45.1056V45.7307C49.96 45.9353 50.0454 46.1316 50.1973 46.2763C50.3492 46.421 50.5552 46.5023 50.77 46.5023Z" fill="#219D69"/>
<path d="M45.3349 49.5133C45.5676 49.7883 45.8549 50.0169 46.1805 50.1859C46.506 50.355 46.8633 50.4611 47.232 50.4984C47.6007 50.5357 47.9735 50.5033 48.329 50.4031C48.6845 50.303 49.0158 50.1369 49.3039 49.9146C49.4581 49.7947 49.5992 49.6603 49.7251 49.5133C49.8766 49.368 49.9612 49.1714 49.9605 48.9666C49.9597 48.7618 49.8736 48.5658 49.7211 48.4215C49.5685 48.2772 49.3621 48.1965 49.1471 48.1973C48.9322 48.198 48.7264 48.28 48.5749 48.4253C48.4869 48.5564 48.3726 48.6695 48.2385 48.7584C48.1045 48.8472 47.9533 48.9099 47.7938 48.9429C47.6342 48.9758 47.4693 48.9785 47.3087 48.9506C47.1481 48.9227 46.9948 48.8648 46.8577 48.7803C46.7104 48.6862 46.5838 48.5656 46.4851 48.4253C46.3337 48.28 46.1278 48.198 45.9129 48.1973C45.6979 48.1965 45.4915 48.2772 45.339 48.4215C45.1864 48.5658 45.1003 48.7618 45.0996 48.9666C45.0988 49.1714 45.1835 49.368 45.3349 49.5133Z" fill="#219D69"/>
<path d="M29.1592 20.916C26.6167 22.5469 23.6221 23.4199 20.557 23.4239C20.0921 23.4261 19.629 23.369 19.18 23.2541C19.18 23.2541 19.18 28.5939 19.2448 28.8639L19.7308 30.4458C20.3466 31.8176 21.463 32.9305 22.8736 33.5787C23.8303 33.0525 24.9008 32.742 26.003 32.6711C27.1052 32.6002 28.2098 32.7708 29.2321 33.1697C30.3051 32.512 31.1505 31.5671 31.6621 30.4535L32.1238 28.8331C32.1238 28.563 32.1805 23.3004 32.1805 23.3004C31.5061 23.1794 30.875 22.8971 30.3465 22.48C29.8181 22.0629 29.4095 21.5248 29.1592 20.916ZM22.42 25.7388C22.42 25.9434 22.3347 26.1397 22.1827 26.2844C22.0308 26.4291 21.8248 26.5104 21.61 26.5104C21.3952 26.5104 21.1891 26.4291 21.0372 26.2844C20.8853 26.1397 20.8 25.9434 20.8 25.7388V24.9671C20.8 24.7625 20.8853 24.5662 21.0372 24.4215C21.1891 24.2768 21.3952 24.1955 21.61 24.1955C21.8248 24.1955 22.0308 24.2768 22.1827 24.4215C22.3347 24.5662 22.42 24.7625 22.42 24.9671V25.7388ZM27.8551 31.6881C27.5787 31.9867 27.2417 32.2288 26.8645 32.3998C26.4872 32.5709 26.0775 32.6674 25.66 32.6836C25.2427 32.6665 24.8333 32.5696 24.4561 32.3986C24.079 32.2276 23.7419 31.986 23.4649 31.6881C23.3134 31.5428 23.2288 31.3462 23.2295 31.1414C23.2303 30.9366 23.3164 30.7405 23.4689 30.5963C23.6215 30.452 23.8279 30.3713 24.0429 30.3721C24.2578 30.3728 24.4636 30.4548 24.6151 30.6001C24.7138 30.7404 24.8404 30.861 24.9877 30.9551C25.1248 31.0396 25.2781 31.0975 25.4387 31.1253C25.5993 31.1532 25.7642 31.1506 25.9237 31.1176C26.0833 31.0847 26.2345 31.022 26.3685 30.9331C26.5026 30.8443 26.6169 30.7312 26.7049 30.6001C26.7802 30.5278 26.8698 30.4704 26.9685 30.4312C27.0672 30.392 27.1731 30.3719 27.28 30.3719C27.3869 30.3719 27.4928 30.392 27.5915 30.4312C27.6902 30.4704 27.7798 30.5278 27.8551 30.6001C28.007 30.7437 28.0932 30.9387 28.0947 31.1425C28.0962 31.3464 28.013 31.5425 27.8632 31.6881H27.8551ZM30.52 25.7388C30.52 25.9434 30.4347 26.1397 30.2827 26.2844C30.1308 26.4291 29.9248 26.5104 29.71 26.5104C29.4952 26.5104 29.2891 26.4291 29.1372 26.2844C28.9853 26.1397 28.9 25.9434 28.9 25.7388V24.9671C28.9 24.7625 28.9853 24.5662 29.1372 24.4215C29.2891 24.2768 29.4952 24.1955 29.71 24.1955C29.9248 24.1955 30.1308 24.2768 30.2827 24.4215C30.4347 24.5662 30.52 24.7625 30.52 24.9671V25.7388Z" fill="white"/>
<path fill-rule="evenodd" clip-rule="evenodd" d="M43.3585 49.6829C43.2346 49.5807 43.0769 49.5233 42.913 49.5209C42.3902 49.4728 41.8726 49.3824 41.3659 49.2508C40.8524 49.1179 40.3512 48.9449 39.8674 48.7338C39.2076 48.4454 38.5896 48.0771 38.0287 47.6381C37.6442 47.3507 37.2986 47.019 37 46.6504C36.7075 47.0281 36.3674 47.3701 35.9875 47.669C35.4286 48.1106 34.8102 48.4791 34.1488 48.7647C33.6637 48.9749 33.1628 49.1503 32.6503 49.2894C32.1446 49.43 31.6269 49.5281 31.1032 49.5826C30.9374 49.5804 30.7764 49.6352 30.6496 49.737C30.5626 49.8394 30.5167 49.9679 30.52 50.0996V55.2928C30.5215 57.0703 31.1671 58.7929 32.3478 60.1693C33.5285 61.5457 35.1718 62.4917 37 62.8472C38.8282 62.4917 40.4715 61.5457 41.6522 60.1693C42.8329 58.7929 43.4785 57.0703 43.48 55.2928V50.0533C43.4899 49.9197 43.4465 49.7875 43.3585 49.6829ZM42.3622 55.0844C42.3627 56.5377 41.8354 57.9464 40.8699 59.0716C39.9043 60.1967 38.56 60.9691 37.0648 61.2576H37C35.5012 60.9736 34.1522 60.2029 33.1832 59.0772C32.2142 57.9514 31.6852 56.5403 31.6864 55.0844V51.1799C31.6789 50.9614 31.7601 50.7486 31.9132 50.5858C32.085 50.4201 32.3169 50.3235 32.5612 50.3157C33.2843 50.2355 33.9881 50.0399 34.6429 49.737C35.1003 49.5292 35.5299 49.2702 35.9227 48.9653C36.2418 48.7077 36.5153 48.4029 36.7327 48.0625C36.7414 48.0416 36.7553 48.0231 36.7732 48.0085L36.8461 47.9545H36.9514H37.0567L37.1296 48.0085C37.1475 48.0231 37.1614 48.0416 37.1701 48.0625C37.3856 48.4042 37.6593 48.7093 37.9801 48.9653C38.3667 49.2744 38.7943 49.5339 39.2518 49.737C39.5919 49.889 39.944 50.0154 40.3048 50.1151C40.6547 50.2072 41.0125 50.2692 41.374 50.3003C41.6149 50.3089 41.8447 50.3992 42.022 50.5549C42.1684 50.7215 42.2487 50.9318 42.2488 51.1491L42.3622 55.0844Z" fill="#219D69"/>
<path fill-rule="evenodd" clip-rule="evenodd" d="M42.0058 50.8314C41.919 50.7642 41.8099 50.7286 41.698 50.7311C41.2788 50.6917 40.8641 50.6168 40.4587 50.5074C40.0417 50.3992 39.6353 50.2573 39.2437 50.083C38.7293 49.8477 38.2476 49.5522 37.81 49.2033C37.5125 48.9737 37.241 48.7151 37 48.4316C36.7817 48.7187 36.5259 48.978 36.2386 49.2033C35.7873 49.5594 35.289 49.8578 34.7563 50.0907C34.3679 50.2637 33.964 50.4031 33.5494 50.5074C33.1448 50.6179 32.7297 50.6903 32.3101 50.7234C32.1984 50.7288 32.091 50.7665 32.0023 50.8314C31.9466 50.9022 31.9206 50.9903 31.9294 51.0784V55.2144C31.9305 56.6113 32.4346 57.9655 33.3574 59.0511C34.2802 60.1366 35.566 60.8878 37 61.1792C38.4357 60.8912 39.7242 60.1424 40.65 59.0582C41.5759 57.9739 42.0831 56.6198 42.0868 55.2221V51.0861C42.092 51.0406 42.0875 50.9946 42.0736 50.9509C42.0597 50.9071 42.0366 50.8665 42.0058 50.8314ZM38.9602 53.8254L36.676 55.9937C36.6194 56.0425 36.5458 56.0696 36.4695 56.0696C36.3931 56.0696 36.3195 56.0425 36.2629 55.9937L35.0479 54.8363C35.0287 54.802 35.017 54.7644 35.0135 54.7257C35.0101 54.687 35.015 54.6481 35.0278 54.6113C35.0407 54.5744 35.0614 54.5405 35.0885 54.5115C35.1156 54.4825 35.1487 54.4591 35.1856 54.4427C35.2305 54.4198 35.2805 54.4077 35.3314 54.4077C35.3823 54.4077 35.4324 54.4198 35.4772 54.4427L36.4816 55.3996L38.5471 53.4319C38.6028 53.3814 38.6768 53.3532 38.7537 53.3532C38.8306 53.3532 38.9045 53.3814 38.9602 53.4319C38.9874 53.4577 39.009 53.4884 39.0237 53.5221C39.0384 53.5559 39.046 53.5921 39.046 53.6286C39.046 53.6652 39.0384 53.7014 39.0237 53.7352C39.009 53.7689 38.9874 53.7996 38.9602 53.8254Z" fill="#66D5A6"/>
<path fill-rule="evenodd" clip-rule="evenodd" d="M38.9521 53.4241C38.9805 53.45 39.0031 53.4812 39.0186 53.5157C39.034 53.5501 39.042 53.5873 39.042 53.6247C39.042 53.6622 39.034 53.6993 39.0186 53.7338C39.0031 53.7683 38.9805 53.7994 38.9521 53.8254L36.676 55.9937C36.6487 56.0206 36.616 56.042 36.5798 56.0566C36.5436 56.0712 36.5047 56.0787 36.4654 56.0786C36.3897 56.0732 36.3182 56.0432 36.2629 55.9937L35.0479 54.8362C35.0127 54.817 34.9819 54.7914 34.9572 54.7608C34.9324 54.7302 34.9142 54.6953 34.9037 54.658C34.8932 54.6208 34.8905 54.5819 34.8958 54.5436C34.901 54.5053 34.9142 54.4684 34.9345 54.435C34.9571 54.4004 34.9871 54.3708 35.0227 54.3481C35.0583 54.3255 35.0985 54.3104 35.1407 54.3038C35.1829 54.2973 35.2261 54.2994 35.2674 54.31C35.3086 54.3206 35.347 54.3396 35.38 54.3655C35.4335 54.3893 35.4765 54.4303 35.5015 54.4813L36.5059 55.4381L38.5714 53.4704C38.6182 53.4201 38.6826 53.3877 38.7526 53.3792C38.8226 53.3707 38.8935 53.3866 38.9521 53.4241Z" fill="white"/>
<path fill-rule="evenodd" clip-rule="evenodd" d="M42.4352 50.3317C42.248 50.1694 42.0075 50.0739 41.7547 50.0617C41.3717 50.028 40.9923 49.9635 40.6208 49.8687C40.2383 49.7614 39.8647 49.6273 39.503 49.4675C39.0184 49.2681 38.5636 49.0086 38.1502 48.6958C37.8023 48.4257 37.504 48.1024 37.2674 47.739L37.2188 47.6773C37.1949 47.6574 37.1674 47.6417 37.1378 47.631C37.1004 47.623 37.0617 47.623 37.0244 47.631C36.987 47.623 36.9483 47.623 36.911 47.631C36.8813 47.6417 36.8539 47.6574 36.83 47.6773C36.8136 47.696 36.8 47.7168 36.7895 47.739C36.548 48.1012 36.2471 48.4242 35.8985 48.6958C35.4851 49.0086 35.0303 49.2681 34.5458 49.4675C33.8381 49.7841 33.0797 49.9849 32.3021 50.0617C32.0472 50.0647 31.8034 50.1615 31.6217 50.3317C31.5391 50.4166 31.4751 50.5162 31.4334 50.6248C31.3917 50.7335 31.3731 50.8489 31.3787 50.9645V55.1391C31.3804 56.677 31.9401 58.1671 32.9632 59.3568C33.9862 60.5466 35.4095 61.3628 36.992 61.6671H37.1135C38.6841 61.3492 40.0926 60.5276 41.1039 59.3395C42.1152 58.1514 42.668 56.6687 42.6701 55.1391V50.9799C42.6834 50.7429 42.5991 50.5104 42.4352 50.3317ZM42.0868 55.2239C42.0827 56.6207 41.5753 57.9737 40.6493 59.0567C39.7233 60.1397 38.4351 60.8869 37.0001 61.1733C35.5665 60.8853 34.2801 60.1375 33.3558 59.0546C32.4314 57.9718 31.9251 56.6196 31.9214 55.2239V51.0879C31.9184 50.9993 31.9469 50.9123 32.0024 50.841C32.0905 50.7752 32.1982 50.7374 32.3102 50.733C32.7294 50.6935 33.1441 50.6187 33.5495 50.5092C33.9603 50.4015 34.3612 50.2621 34.7483 50.0925C35.2809 49.8596 35.7792 49.5613 36.2306 49.2051C36.5162 48.9758 36.7743 48.717 37.0001 48.4335C37.2407 48.7172 37.5122 48.9759 37.8101 49.2051C38.2634 49.5587 38.7613 49.8568 39.2924 50.0925C39.6835 50.2613 40.0868 50.4032 40.4993 50.5169C40.9086 50.6194 41.3256 50.6916 41.7467 50.733C41.8589 50.7283 41.9688 50.7641 42.0545 50.8333C42.1109 50.9037 42.137 50.9921 42.1274 51.0802L42.0868 55.2239Z" fill="white"/>
</svg>
