<svg width="74" height="74" viewBox="0 0 74 74" fill="none" xmlns="http://www.w3.org/2000/svg">
<rect width="74" height="74" rx="8" fill="#EFFFF8"/>
<g clip-path="url(#clip0_2784_9195)">
<path d="M30.2631 58.2676C25.1115 56.3448 20.8269 52.7194 18.1664 48.0318C18.0947 47.9197 17.9811 47.8387 17.8494 47.8056C17.7177 47.7724 17.5778 47.7896 17.4589 47.8537C17.3399 47.9177 17.2509 48.0237 17.2104 48.1496C17.1698 48.2755 17.1808 48.4117 17.2411 48.53C20.0272 53.4303 24.5084 57.2206 29.8954 59.2333C29.9567 59.2528 30.0207 59.2631 30.0852 59.2639C30.2097 59.2663 30.3312 59.2258 30.4278 59.1495C30.5244 59.0733 30.5899 58.9663 30.6127 58.8476C30.6355 58.7289 30.614 58.6062 30.5522 58.5014C30.4904 58.3965 30.3921 58.3164 30.275 58.2752L30.2631 58.2676Z" fill="#219D69"/>
<path d="M56.6868 47.8231C56.5646 47.7568 56.4202 47.7402 56.2854 47.7769C56.1505 47.8135 56.0361 47.9004 55.9671 48.0185C53.3099 52.684 49.049 56.2991 43.9258 58.2351C43.813 58.2798 43.7195 58.3609 43.6612 58.4645C43.6028 58.5682 43.5831 58.6882 43.6054 58.8044C43.6277 58.9205 43.6906 59.0256 43.7836 59.102C43.8765 59.1784 43.9938 59.2214 44.1156 59.2238C44.1814 59.2233 44.2468 59.213 44.3094 59.1932C49.6675 57.1733 54.1227 53.393 56.8964 48.5129C56.9648 48.3944 56.9819 48.2545 56.9441 48.1238C56.9063 47.9931 56.8167 47.8822 56.6948 47.8154L56.6868 47.8231Z" fill="#219D69"/>
<path d="M17.3914 27.2715C17.5134 27.3305 17.654 27.3423 17.7847 27.3046C17.9153 27.2668 18.0264 27.1825 18.0953 27.0684C20.7472 22.3287 25.0557 18.6602 30.2473 16.7215C30.3122 16.6963 30.3714 16.659 30.4214 16.6117C30.4715 16.5644 30.5114 16.508 30.5389 16.4457C30.5665 16.3834 30.5811 16.3165 30.5819 16.2488C30.5828 16.181 30.5699 16.1138 30.5439 16.0509C30.5179 15.988 30.4794 15.9306 30.4306 15.8821C30.3818 15.8337 30.3236 15.795 30.2593 15.7683C30.1951 15.7416 30.126 15.7274 30.0561 15.7266C29.9862 15.7258 29.9168 15.7383 29.8519 15.7635C24.4265 17.7873 19.9232 21.6188 17.1502 26.5702C17.0835 26.6899 17.0682 26.8301 17.1074 26.9606C17.1466 27.0911 17.2373 27.2015 17.3597 27.2677L17.3914 27.2715Z" fill="#219D69"/>
<path d="M43.9258 16.7452C49.0971 18.6837 53.3869 22.3437 56.0264 27.0691C56.0722 27.15 56.1398 27.2173 56.222 27.2638C56.3042 27.3104 56.3979 27.3345 56.4931 27.3335C56.5812 27.3328 56.668 27.3117 56.7461 27.2722C56.807 27.2401 56.8608 27.1967 56.9043 27.1444C56.9478 27.0922 56.9803 27.0321 56.9997 26.9676C57.0192 26.9032 57.0254 26.8356 57.0178 26.7688C57.0103 26.7021 56.9892 26.6374 56.9557 26.5786C54.1952 21.6392 49.7088 17.8146 44.3015 15.7909C44.2368 15.7658 44.1677 15.7532 44.098 15.7539C44.0283 15.7547 43.9595 15.7687 43.8954 15.7952C43.8313 15.8217 43.7733 15.8602 43.7245 15.9084C43.6758 15.9567 43.6374 16.0138 43.6114 16.0764C43.5854 16.1391 43.5725 16.2061 43.5732 16.2736C43.574 16.3411 43.5884 16.4078 43.6158 16.4699C43.6431 16.532 43.6829 16.5883 43.7327 16.6355C43.7824 16.6827 43.8414 16.72 43.906 16.7452H43.9258Z" fill="#219D69"/>
<path d="M34.9333 50.7487C35.0959 50.7467 35.2512 50.6829 35.3659 50.5711C35.4805 50.4594 35.5453 50.3084 35.5463 50.1509V49.8596C35.5463 49.7816 35.5304 49.7044 35.4996 49.6323C35.4688 49.5602 35.4237 49.4948 35.3668 49.4396C35.3098 49.3844 35.2423 49.3407 35.1679 49.3108C35.0935 49.281 35.0138 49.2656 34.9333 49.2656C34.8529 49.2656 34.7731 49.281 34.6988 49.3108C34.6244 49.3407 34.5568 49.3844 34.4999 49.4396C34.443 49.4948 34.3979 49.5602 34.3671 49.6323C34.3363 49.7044 34.3204 49.7816 34.3204 49.8596V50.1509C34.3214 50.3084 34.3862 50.4594 34.5008 50.5711C34.6154 50.6829 34.7707 50.7467 34.9333 50.7487Z" fill="#219D69"/>
<path d="M39.3307 50.7476C39.4937 50.7456 39.6494 50.682 39.7647 50.5703C39.8799 50.4586 39.9456 50.3077 39.9476 50.1498V49.8585C39.9544 49.7763 39.9436 49.6935 39.9158 49.6155C39.888 49.5375 39.8438 49.4659 39.786 49.4052C39.7282 49.3446 39.6581 49.2962 39.5801 49.2631C39.5021 49.23 39.4179 49.2129 39.3327 49.2129C39.2475 49.2129 39.1633 49.23 39.0852 49.2631C39.0072 49.2962 38.9371 49.3446 38.8794 49.4052C38.8216 49.4659 38.7774 49.5375 38.7496 49.6155C38.7218 49.6935 38.711 49.7763 38.7178 49.8585V50.1498C38.7188 50.3074 38.7836 50.4583 38.8982 50.5701C39.0128 50.6819 39.1681 50.7456 39.3307 50.7476Z" fill="#219D69"/>
<path d="M41.0311 57.7838H40.7939V56.0555C41.8519 55.1747 42.5376 53.9467 42.7197 52.6065C43.7288 51.3704 44.2791 49.841 44.2818 48.2648C44.2845 46.6886 43.7395 45.1574 42.7346 43.918C41.7297 42.6786 40.3235 41.8032 38.7425 41.4328C37.1616 41.0624 35.498 41.2187 34.0199 41.8764C33.4206 42.1532 32.903 42.5718 32.5146 43.0935C32.1262 43.6152 31.8796 44.2233 31.7975 44.8617C31.3759 44.9564 30.9891 45.1611 30.6789 45.4536C30.3687 45.7461 30.147 46.1152 30.0377 46.521C29.764 47.5665 29.7436 48.6593 29.9782 49.7137C30.2128 50.7681 30.6961 51.7556 31.3902 52.5989C31.5834 54.0026 32.3251 55.281 33.4623 56.1705V57.78H33.225C32.617 57.7795 32.0148 57.8952 31.4529 58.1206C30.8911 58.346 30.3807 58.6766 29.9509 59.0935C29.5211 59.5103 29.1804 60.0052 28.9483 60.5499C28.7162 61.0946 28.5973 61.6782 28.5983 62.2675C28.6004 62.4251 28.6662 62.5756 28.7815 62.6866C28.8969 62.7977 29.0526 62.8605 29.2152 62.8615H45.033C45.1149 62.863 45.1963 62.8488 45.2724 62.8198C45.3486 62.7907 45.4181 62.7473 45.4769 62.6921C45.5357 62.6369 45.5827 62.5709 45.6151 62.4981C45.6475 62.4252 45.6647 62.3468 45.6658 62.2675C45.6668 61.6774 45.5476 61.0929 45.3151 60.5475C45.0825 60.0022 44.7412 59.5067 44.3106 59.0894C43.8801 58.6721 43.3687 58.3413 42.806 58.116C42.2432 57.8906 41.64 57.7752 41.0311 57.7762V57.7838ZM31.3229 50.0045C30.9821 48.9653 30.9465 47.8546 31.2201 46.7969C31.2915 46.5568 31.4416 46.3457 31.6478 46.1957C31.854 46.0456 32.1051 45.9648 32.363 45.9653C32.5197 45.9648 32.6703 45.9068 32.7848 45.803C32.8992 45.6992 32.9689 45.5573 32.9798 45.4058C32.9732 44.9004 33.1141 44.4035 33.3863 43.9722C33.6585 43.541 34.0508 43.1931 34.5181 42.9686C35.6385 42.4681 36.8896 42.3104 38.1048 42.5164C39.3656 42.7286 40.523 43.327 41.407 44.2236C42.291 45.1203 42.855 46.268 43.0163 47.4982C43.1168 48.3284 43.0332 49.1698 42.7711 49.9662V47.4676C42.7708 47.3818 42.7516 47.2971 42.7148 47.2191C42.678 47.1411 42.6243 47.0716 42.5575 47.0154C42.4891 46.9601 42.4092 46.9195 42.3233 46.8964C42.2374 46.8732 42.1474 46.8681 42.0593 46.8812C41.4551 46.9867 40.8319 46.9045 40.2787 46.6464C39.7256 46.3884 39.2706 45.9676 38.9788 45.4442C38.9357 45.3554 38.8705 45.2784 38.789 45.2202C38.7075 45.162 38.6124 45.1244 38.5121 45.1108C38.4116 45.0947 38.3085 45.1035 38.2124 45.1363C38.1163 45.1691 38.0304 45.2249 37.9625 45.2985C36.1592 47.253 32.0308 46.8812 31.9794 46.8697H31.9359C31.9003 46.8697 31.8686 46.8697 31.837 46.8697C31.7952 46.8718 31.754 46.8796 31.7144 46.8927C31.6702 46.9113 31.629 46.9358 31.5918 46.9655L31.5167 47.0039C31.4695 47.048 31.4306 47.0999 31.402 47.1572C31.402 47.1572 31.402 47.1802 31.3783 47.1955C31.3396 47.2691 31.3193 47.3505 31.319 47.4331V50.0045H31.3229ZM32.5844 52.3038C32.5883 52.2477 32.5883 52.1913 32.5844 52.1352C32.5844 52.0394 32.5844 51.9436 32.5844 51.8516V48.1037C33.838 48.1267 36.5389 48.0156 38.3579 46.6283C38.7399 47.0949 39.2256 47.472 39.7788 47.7314C40.332 47.9909 40.9385 48.126 41.5531 48.1267H41.5848V51.8554C41.585 52.0065 41.5771 52.1574 41.561 52.3076C41.4468 53.3821 40.9254 54.3774 40.0979 55.101C39.2703 55.8245 38.1953 56.2251 37.0806 56.2251C35.966 56.2251 34.8909 55.8245 34.0634 55.101C33.2358 54.3774 32.7145 53.3821 32.6002 52.3076L32.5844 52.3038ZM34.704 56.9024C35.4481 57.2342 36.2576 57.4055 37.0767 57.4044C37.9507 57.403 38.8131 57.2104 39.5996 56.8411V57.7838H34.704V56.9024ZM29.8835 61.6658C30.0269 60.9118 30.4387 60.2304 31.0471 59.7403C31.6555 59.2501 32.422 58.9823 33.2132 58.9833H41.0311C41.8223 58.9823 42.5888 59.2501 43.1972 59.7403C43.8056 60.2304 44.2174 60.9118 44.3608 61.6658H29.8835Z" fill="#219D69"/>
<path d="M35.7243 52.6063C35.6678 52.7177 35.659 52.8462 35.6997 52.9638C35.7405 53.0815 35.8274 53.1788 35.9417 53.2348C36.3105 53.4118 36.7165 53.5038 37.1281 53.5038C37.5396 53.5038 37.9456 53.4118 38.3144 53.2348C38.4186 53.1738 38.4955 53.0772 38.5298 52.9641C38.5641 52.8509 38.5534 52.7293 38.4998 52.6235C38.4461 52.5176 38.3535 52.435 38.2401 52.3921C38.1267 52.3492 38.0008 52.349 37.8873 52.3917C37.6536 52.5033 37.3965 52.5613 37.136 52.5613C36.8754 52.5613 36.6184 52.5033 36.3846 52.3917C36.3279 52.3634 36.2658 52.3462 36.2022 52.3413C36.1385 52.3364 36.0745 52.3438 36.0138 52.363C35.9531 52.3823 35.8969 52.413 35.8486 52.4535C35.8003 52.4939 35.7607 52.5432 35.7322 52.5986L35.7243 52.6063Z" fill="#219D69"/>
<path d="M15.3271 35.7409C15.4894 35.7399 15.6447 35.677 15.7594 35.5658C15.8741 35.4546 15.939 35.3041 15.9401 35.1469V34.8518C15.9401 34.6943 15.8755 34.5432 15.7606 34.4318C15.6456 34.3204 15.4897 34.2578 15.3271 34.2578C15.1646 34.2578 15.0087 34.3204 14.8937 34.4318C14.7788 34.5432 14.7142 34.6943 14.7142 34.8518V35.1469C14.7152 35.3041 14.7802 35.4546 14.8949 35.5658C15.0096 35.677 15.1649 35.7399 15.3271 35.7409Z" fill="#219D69"/>
<path d="M19.7324 35.7409C19.8947 35.7399 20.05 35.677 20.1647 35.5658C20.2794 35.4546 20.3443 35.3041 20.3454 35.1469V34.8518C20.3454 34.6943 20.2808 34.5432 20.1658 34.4318C20.0509 34.3204 19.895 34.2578 19.7324 34.2578C19.5699 34.2578 19.414 34.3204 19.299 34.4318C19.1841 34.5432 19.1195 34.6943 19.1195 34.8518V35.1469C19.1205 35.3041 19.1854 35.4546 19.3001 35.5658C19.4149 35.677 19.5702 35.7399 19.7324 35.7409Z" fill="#219D69"/>
<path d="M26.0595 47.265C26.0585 46.0782 25.5715 44.9403 24.7056 44.1011C23.8396 43.2619 22.6654 42.79 21.4407 42.789H21.2074V41.0607C22.2606 40.176 22.9452 38.95 23.1332 37.6117C23.9815 36.5773 24.5116 35.3321 24.6625 34.019C24.8135 32.7058 24.5792 31.3781 23.9867 30.1882C23.3941 28.9982 22.4672 27.9944 21.3125 27.2919C20.1578 26.5894 18.822 26.2168 17.4586 26.2168C16.0952 26.2168 14.7594 26.5894 13.6047 27.2919C12.45 27.9944 11.5231 28.9982 10.9305 30.1882C10.3379 31.3781 10.1037 32.7058 10.2546 34.019C10.4056 35.3321 10.9357 36.5773 11.7839 37.6117C11.9753 39.0182 12.7172 40.2996 13.8561 41.191V42.8005H13.6188C12.3962 42.8015 11.2238 43.2718 10.3582 44.1085C9.49253 44.9452 9.00418 46.0802 9 47.265C9.00104 47.4222 9.06595 47.5727 9.18067 47.6839C9.2954 47.7951 9.4507 47.858 9.61294 47.859H25.4506C25.6128 47.858 25.7681 47.7951 25.8828 47.6839C25.9976 47.5727 26.0625 47.4222 26.0635 47.265H26.0595ZM17.4546 27.3951C19.0527 27.3981 20.5841 28.0157 21.7126 29.1122C22.8411 30.2087 23.4744 31.6944 23.4733 33.243C23.4727 33.8463 23.3767 34.446 23.1886 35.0211V32.534C23.2281 32.2888 23.1609 31.9247 22.6389 31.5032C21.852 30.9208 20.9006 30.5847 19.9115 30.5395C18.9225 30.4943 17.9427 30.7422 17.1027 31.2503C16.6389 31.5409 16.1303 31.7582 15.596 31.8941C14.5808 32.1495 13.515 32.1495 12.4997 31.8941C12.4087 31.8703 12.3134 31.867 12.2209 31.8842C12.1284 31.9015 12.0412 31.9389 11.9658 31.9937C11.8892 32.049 11.8265 32.1206 11.7826 32.203C11.7388 32.2853 11.7149 32.3763 11.7128 32.4689V35.0173C11.4225 34.1422 11.3497 33.2131 11.5002 32.3056C11.6507 31.398 12.0202 30.5378 12.5787 29.7949C13.1372 29.0519 13.8688 28.4474 14.7141 28.0303C15.5593 27.6133 16.4943 27.3956 17.4428 27.3951H17.4546ZM12.9821 37.309C12.9651 37.1588 12.9559 37.0078 12.9545 36.8568V33.2123C13.9488 33.3612 14.9643 33.3077 15.9361 33.0552C16.5955 32.889 17.223 32.6212 17.7947 32.262C18.1903 32.0143 18.6346 31.849 19.0995 31.7764C19.5644 31.7038 20.0398 31.7256 20.4956 31.8404C21.0358 31.9453 21.5402 32.1798 21.9627 32.5225V36.8568C21.9567 37.9715 21.5111 39.0419 20.7172 39.8487C19.9233 40.6555 18.8411 41.1376 17.6924 41.1964C16.5436 41.2552 15.4151 40.8861 14.5379 40.1648C13.6608 39.4436 13.1014 38.4246 12.9742 37.3166L12.9821 37.309ZM15.0899 41.9076C15.8605 42.2466 16.6989 42.4165 17.5452 42.4052C18.3915 42.394 19.2247 42.2018 19.9855 41.8424V42.789H15.0938V41.9076H15.0899ZM10.2892 46.671C10.4334 45.9167 10.846 45.2352 11.455 44.7451C12.0641 44.255 12.8311 43.9873 13.6228 43.9885H21.4486C22.2401 43.988 23.0067 44.256 23.6156 44.746C24.2245 45.236 24.6373 45.917 24.7823 46.671H10.2892Z" fill="#219D69"/>
<path d="M16.4502 38.1701C16.4102 38.2495 16.4039 38.341 16.4327 38.4248C16.4616 38.5087 16.5232 38.5782 16.6044 38.6185C16.8672 38.7433 17.156 38.8082 17.4487 38.8082C17.7414 38.8082 18.0302 38.7433 18.293 38.6185C18.3338 38.5991 18.3702 38.5721 18.4002 38.5391C18.4302 38.5061 18.4532 38.4677 18.4679 38.426C18.4826 38.3844 18.4887 38.3404 18.4858 38.2964C18.4829 38.2525 18.4712 38.2096 18.4512 38.1701C18.4312 38.1306 18.4033 38.0953 18.3693 38.0662C18.3352 38.0371 18.2956 38.0148 18.2526 38.0006C18.1658 37.9718 18.0708 37.9777 17.9885 38.0168C17.8218 38.0963 17.6385 38.1376 17.4527 38.1376C17.2669 38.1376 17.0836 38.0963 16.9168 38.0168C16.8356 37.9767 16.7411 37.9695 16.6544 37.9968C16.5676 38.0241 16.4956 38.0837 16.4542 38.1624L16.4502 38.1701Z" fill="#219D69"/>
<path d="M53.1713 36.3691C53.007 36.3712 52.8501 36.4358 52.7346 36.5492C52.6192 36.6625 52.5544 36.8154 52.5544 36.9746V37.2659C52.5476 37.3481 52.5585 37.4309 52.5863 37.5089C52.6141 37.5869 52.6583 37.6585 52.716 37.7192C52.7738 37.7798 52.8439 37.8282 52.9219 37.8613C52.9999 37.8944 53.0842 37.9115 53.1694 37.9115C53.2545 37.9115 53.3388 37.8944 53.4168 37.8613C53.4948 37.8282 53.5649 37.7798 53.6227 37.7192C53.6804 37.6585 53.7246 37.5869 53.7524 37.5089C53.7802 37.4309 53.7911 37.3481 53.7843 37.2659V36.9746C53.7853 36.8157 53.7215 36.6629 53.6066 36.5494C53.4918 36.436 53.3353 36.3712 53.1713 36.3691Z" fill="#219D69"/>
<path d="M57.5766 37.8571C57.7392 37.8551 57.8945 37.7914 58.0091 37.6796C58.1237 37.5678 58.1885 37.4169 58.1895 37.2593V36.9757C58.1964 36.8935 58.1855 36.8107 58.1577 36.7327C58.1299 36.6547 58.0857 36.5831 58.028 36.5224C57.9702 36.4618 57.9001 36.4134 57.8221 36.3803C57.7441 36.3472 57.6598 36.3301 57.5746 36.3301C57.4895 36.3301 57.4052 36.3472 57.3272 36.3803C57.2492 36.4134 57.1791 36.4618 57.1213 36.5224C57.0635 36.5831 57.0194 36.6547 56.9915 36.7327C56.9637 36.8107 56.9529 36.8935 56.9597 36.9757V37.267C56.9638 37.4236 57.0303 37.5725 57.1454 37.6826C57.2604 37.7926 57.415 37.8552 57.5766 37.8571Z" fill="#219D69"/>
<path d="M60.9893 43.4011C61.7193 42.8561 62.3003 42.146 62.6816 41.3329C63.0628 40.5199 63.2326 39.6287 63.1761 38.7373L62.8321 33.3953C62.7162 31.55 61.8781 29.8172 60.4888 28.5504C59.0995 27.2835 57.2638 26.5781 55.3562 26.5781C53.4486 26.5781 51.6128 27.2835 50.2236 28.5504C48.8343 29.8172 47.9962 31.55 47.8803 33.3953L47.5283 38.7373C47.4711 39.6272 47.6389 40.5173 48.0172 41.33C48.3956 42.1428 48.973 42.8537 49.6993 43.4011C49.1277 43.626 48.6077 43.9581 48.1689 44.3783C47.7387 44.793 47.3976 45.2863 47.1654 45.8297C46.9333 46.373 46.8147 46.9556 46.8165 47.5437C46.8176 47.7009 46.8825 47.8514 46.9972 47.9626C47.1119 48.0738 47.2672 48.1367 47.4295 48.1377H63.2473C63.4095 48.1367 63.5648 48.0738 63.6796 47.9626C63.7943 47.8514 63.8592 47.7009 63.8602 47.5437C63.8571 46.6542 63.5814 45.7856 63.0682 45.0481C62.5549 44.3106 61.8273 43.7373 60.9774 43.4011H60.9893ZM48.7305 38.8025L49.0745 33.4604C49.1801 31.9227 49.885 30.4814 51.0462 29.4285C52.2074 28.3756 53.7382 27.7898 55.3285 27.7898C56.9188 27.7898 58.4496 28.3756 59.6108 29.4285C60.772 30.4814 61.4769 31.9227 61.5825 33.4604L61.9265 38.8025C61.9759 39.5188 61.8375 40.2355 61.5243 40.8861C61.2111 41.5367 60.7332 42.1 60.1351 42.5235C59.9189 42.6788 59.6886 42.8148 59.4471 42.9298L59.19 43.0409C58.8352 42.9909 58.477 42.9666 58.1184 42.9681V41.9564C58.8789 41.5442 59.5343 40.9719 60.0363 40.2817C60.7151 39.3445 61.0784 38.2269 61.0763 37.0818V34.702C61.0753 34.5444 61.0105 34.3935 60.8959 34.2817C60.7813 34.17 60.626 34.1062 60.4634 34.1042H50.1818C50.0192 34.1062 49.8639 34.17 49.7492 34.2817C49.6346 34.3935 49.5698 34.5444 49.5688 34.702V37.0818C49.566 38.227 49.9293 39.3448 50.6088 40.2817C51.1136 40.9737 51.7733 41.5462 52.5386 41.9564V42.9642C52.18 42.9631 51.8219 42.9875 51.467 43.0371L51.2218 42.9298C50.4282 42.5622 49.7666 41.9724 49.3225 41.2366C48.8784 40.5009 48.6722 39.653 48.7305 38.8025ZM53.5945 41.1363L53.4047 41.0558C52.6908 40.7289 52.0764 40.2286 51.6212 39.6034C51.0889 38.8665 50.8031 37.989 50.8026 37.0895V35.3075H59.8504V37.0933C59.8551 37.9936 59.5689 38.8726 59.0318 39.6072C58.5778 40.2368 57.9615 40.7402 57.2444 41.0673L57.0625 41.1478C56.511 41.3698 55.9197 41.4841 55.3226 41.4841C54.7254 41.4841 54.1341 41.3698 53.5826 41.1478L53.5945 41.1363ZM48.0938 46.9382C48.2372 46.1842 48.649 45.5028 49.2574 45.0127C49.8658 44.5225 50.6323 44.2546 51.4235 44.2557C51.4483 44.2598 51.4737 44.2598 51.4986 44.2557C51.8475 44.1991 52.2007 44.1722 52.5544 44.1752H53.1555C53.3174 44.1732 53.4722 44.11 53.5867 43.999C53.7012 43.8881 53.7664 43.7381 53.7685 43.5812V42.4507C54.8018 42.7405 55.8987 42.7405 56.932 42.4507V43.5697C56.9341 43.7266 56.9993 43.8766 57.1138 43.9875C57.2283 44.0985 57.383 44.1617 57.545 44.1637H58.146C58.4997 44.1607 58.853 44.1876 59.2019 44.2442H59.3008C60.0874 44.2533 60.8466 44.5251 61.4504 45.0139C62.0541 45.5026 62.4653 46.1782 62.6146 46.9267H48.0938V46.9382Z" fill="#219D69"/>
<path d="M54.3379 39.1174C54.3176 39.1563 54.3055 39.1988 54.3023 39.2423C54.2991 39.2858 54.3048 39.3295 54.3192 39.3708C54.3335 39.4122 54.3562 39.4504 54.3859 39.4832C54.4156 39.516 54.4517 39.5427 54.4921 39.5619C54.7537 39.6884 55.0421 39.7543 55.3344 39.7543C55.6268 39.7543 55.9151 39.6884 56.1767 39.5619C56.2179 39.5435 56.2548 39.5172 56.2852 39.4846C56.3156 39.452 56.3389 39.4138 56.3536 39.3723C56.3684 39.3308 56.3744 39.2868 56.3711 39.243C56.3679 39.1992 56.3556 39.1564 56.3349 39.1174C56.2948 39.0382 56.2241 38.9777 56.1382 38.949C56.0522 38.9203 55.958 38.9257 55.8762 38.9641C55.7095 39.0435 55.5261 39.0849 55.3403 39.0849C55.1545 39.0849 54.9712 39.0435 54.8045 38.9641C54.7232 38.9239 54.6288 38.9167 54.5421 38.944C54.4553 38.9713 54.3833 39.0309 54.3418 39.1097L54.3379 39.1174Z" fill="#219D69"/>
<path d="M34.8859 18.002C34.7233 18.004 34.568 18.0677 34.4534 18.1795C34.3388 18.2913 34.274 18.4422 34.2729 18.5998V18.891C34.2729 19.0486 34.3375 19.1996 34.4525 19.311C34.5674 19.4224 34.7233 19.485 34.8859 19.485C35.0485 19.485 35.2044 19.4224 35.3193 19.311C35.4343 19.1996 35.4988 19.0486 35.4988 18.891V18.5998C35.4978 18.4422 35.433 18.2913 35.3184 18.1795C35.2038 18.0677 35.0485 18.004 34.8859 18.002Z" fill="#219D69"/>
<path d="M39.2912 19.4885C39.4538 19.4865 39.6091 19.4228 39.7237 19.311C39.8383 19.1992 39.9031 19.0483 39.9041 18.8907V18.5803C39.9041 18.4228 39.8395 18.2717 39.7246 18.1603C39.6096 18.0489 39.4537 17.9863 39.2912 17.9863C39.1286 17.9863 38.9727 18.0489 38.8577 18.1603C38.7428 18.2717 38.6782 18.4228 38.6782 18.5803V18.8754C38.6766 18.9547 38.6913 19.0336 38.7213 19.1074C38.7513 19.1812 38.7961 19.2486 38.853 19.3056C38.91 19.3626 38.978 19.4081 39.0532 19.4395C39.1284 19.4709 39.2093 19.4876 39.2912 19.4885Z" fill="#219D69"/>
<path d="M28.5311 29.9391C28.5321 30.0967 28.5969 30.2476 28.7115 30.3594C28.8261 30.4712 28.9814 30.5349 29.144 30.5369H44.9856C45.1482 30.5349 45.3035 30.4712 45.4181 30.3594C45.5327 30.2476 45.5975 30.0967 45.5985 29.9391C45.5955 29.0506 45.3207 28.1828 44.8091 27.4455C44.2974 26.7082 43.5717 26.1343 42.7236 25.7965C43.4496 25.2506 44.0269 24.541 44.4052 23.7295C44.7836 22.918 44.9516 22.0292 44.8946 21.1404L44.5427 15.7983C44.4221 13.9581 43.5833 12.2313 42.1967 10.9687C40.81 9.706 38.9794 9.00214 37.0767 9H29.8519C29.6896 9.001 29.5343 9.06391 29.4196 9.17509C29.3049 9.28626 29.24 9.43676 29.2389 9.59399V21.1404C29.1813 22.0309 29.349 22.9216 29.7273 23.735C30.1057 24.5484 30.6833 25.26 31.4099 25.808C30.5581 26.1407 29.8289 26.7132 29.3164 27.4517C28.8039 28.1902 28.5317 29.0607 28.535 29.9506L28.5311 29.9391ZM30.4529 21.171V10.1918H37.0529C38.6455 10.1896 40.1791 10.7758 41.3414 11.831C42.5037 12.8861 43.2073 14.3309 43.3089 15.8711L43.6608 21.2132C43.7101 22.0609 43.5014 22.9039 43.0606 23.6376C42.6198 24.3714 41.9664 24.9635 41.1814 25.3405C41.0983 25.3788 41.0074 25.4095 40.9243 25.4516C40.5669 25.4014 40.206 25.3771 39.8448 25.3788V24.3556C40.6044 23.9455 41.2597 23.3759 41.7627 22.6886C42.3649 21.8552 42.7201 20.8779 42.7899 19.8628C42.8597 18.8476 42.6413 17.8334 42.1585 16.9299C41.6757 16.0265 40.9468 15.2685 40.051 14.7379C39.1551 14.2074 38.1265 13.9248 37.0767 13.9205H31.9359C31.7732 13.9215 31.6175 13.9843 31.5022 14.0954C31.3868 14.2065 31.321 14.357 31.319 14.5145V19.4964C31.3109 20.6358 31.6643 21.7502 32.3313 22.6886C32.8369 23.3737 33.4916 23.9428 34.2492 24.3556V25.3788C33.8906 25.3774 33.5324 25.4018 33.1776 25.4516L32.9324 25.3443C32.1325 24.9739 31.4668 24.378 31.0222 23.6347C30.5777 22.8915 30.3751 22.0354 30.4411 21.1787L30.4529 21.171ZM35.3169 23.5355L35.135 23.455C34.4169 23.131 33.8012 22.627 33.3516 21.995C32.8197 21.2579 32.534 20.3804 32.533 19.4811V15.1009H37.0767C38.272 15.1069 39.4164 15.5708 40.2602 16.3914C41.104 17.212 41.5787 18.3226 41.5808 19.4811C41.5855 20.3813 41.2992 21.2604 40.7622 21.995C40.3098 22.6212 39.6964 23.1219 38.9827 23.4474L38.7968 23.5278C38.2454 23.7498 37.6541 23.8641 37.0569 23.8641C36.4597 23.8641 35.8684 23.7498 35.3169 23.5278V23.5355ZM33.1499 26.6549H33.225C33.5738 26.5981 33.9271 26.5711 34.2809 26.5744H34.878C35.0409 26.5744 35.1972 26.512 35.3128 26.4007C35.4284 26.2894 35.4938 26.1383 35.4949 25.9805V24.8615C36.5283 25.1506 37.625 25.1506 38.6584 24.8615V25.9805C38.6595 26.1377 38.7244 26.2882 38.8391 26.3994C38.9538 26.5105 39.1091 26.5734 39.2714 26.5744H39.8448C40.1985 26.5713 40.5518 26.5982 40.9006 26.6549H40.9441H40.9916C41.7803 26.658 42.5432 26.9277 43.1488 27.4173C43.7545 27.907 44.1649 28.586 44.3094 29.3375H29.8163C29.9598 28.5828 30.3721 27.9009 30.9814 27.4107C31.5906 26.9204 32.358 26.653 33.1499 26.6549Z" fill="#219D69"/>
<path d="M36.0604 20.879C36.0393 20.9179 36.0265 20.9605 36.0227 21.0043C36.0189 21.048 36.0241 21.0921 36.0381 21.1339C36.0521 21.1756 36.0746 21.2143 36.1042 21.2475C36.1338 21.2807 36.17 21.3079 36.2106 21.3274C36.4722 21.4539 36.7606 21.5198 37.0529 21.5198C37.3453 21.5198 37.6336 21.4539 37.8952 21.3274C37.9769 21.2886 38.0393 21.2201 38.069 21.1368C38.0986 21.0535 38.093 20.9622 38.0534 20.8829C38.0126 20.8035 37.9411 20.7429 37.8545 20.7142C37.7679 20.6855 37.6732 20.691 37.5907 20.7296C37.4252 20.8104 37.2423 20.8526 37.0569 20.8526C36.8715 20.8526 36.6886 20.8104 36.523 20.7296C36.4411 20.6908 36.3467 20.6847 36.2602 20.7126C36.1736 20.7406 36.1019 20.8003 36.0604 20.879Z" fill="#219D69"/>
<path d="M30.2631 58.2676C25.1115 56.3448 20.8269 52.7194 18.1664 48.0318C18.0947 47.9197 17.9811 47.8387 17.8494 47.8056C17.7177 47.7724 17.5778 47.7896 17.4589 47.8537C17.3399 47.9177 17.2509 48.0237 17.2104 48.1496C17.1698 48.2755 17.1808 48.4117 17.2411 48.53C20.0272 53.4303 24.5084 57.2206 29.8954 59.2333C29.9567 59.2528 30.0207 59.2631 30.0852 59.2639C30.2097 59.2663 30.3312 59.2258 30.4278 59.1495C30.5244 59.0733 30.5899 58.9663 30.6127 58.8476C30.6355 58.7289 30.614 58.6062 30.5522 58.5014C30.4904 58.3965 30.3921 58.3164 30.275 58.2752L30.2631 58.2676Z" fill="#219D69"/>
<path d="M56.6868 47.8231C56.5646 47.7568 56.4202 47.7402 56.2854 47.7769C56.1505 47.8135 56.0361 47.9004 55.9671 48.0185C53.3099 52.684 49.049 56.2991 43.9258 58.2351C43.813 58.2798 43.7195 58.3609 43.6612 58.4645C43.6028 58.5682 43.5831 58.6882 43.6054 58.8044C43.6277 58.9205 43.6906 59.0256 43.7836 59.102C43.8765 59.1784 43.9938 59.2214 44.1156 59.2238C44.1814 59.2233 44.2468 59.213 44.3094 59.1932C49.6675 57.1733 54.1227 53.393 56.8964 48.5129C56.9648 48.3944 56.9819 48.2545 56.9441 48.1238C56.9063 47.9931 56.8167 47.8822 56.6948 47.8154L56.6868 47.8231Z" fill="#219D69"/>
<path d="M17.3914 27.2715C17.5134 27.3305 17.654 27.3423 17.7847 27.3046C17.9153 27.2668 18.0264 27.1825 18.0953 27.0684C20.7472 22.3287 25.0557 18.6602 30.2473 16.7215C30.3122 16.6963 30.3714 16.659 30.4214 16.6117C30.4715 16.5644 30.5114 16.508 30.5389 16.4457C30.5665 16.3834 30.5811 16.3165 30.5819 16.2488C30.5828 16.181 30.5699 16.1138 30.5439 16.0509C30.5179 15.988 30.4794 15.9306 30.4306 15.8821C30.3818 15.8337 30.3236 15.795 30.2593 15.7683C30.1951 15.7416 30.126 15.7274 30.0561 15.7266C29.9862 15.7258 29.9168 15.7383 29.8519 15.7635C24.4265 17.7873 19.9232 21.6188 17.1502 26.5702C17.0835 26.6899 17.0682 26.8301 17.1074 26.9606C17.1466 27.0911 17.2373 27.2015 17.3597 27.2677L17.3914 27.2715Z" fill="#219D69"/>
<path d="M43.9258 16.7452C49.0971 18.6837 53.3869 22.3437 56.0264 27.0691C56.0722 27.15 56.1398 27.2173 56.222 27.2638C56.3042 27.3104 56.3979 27.3345 56.4931 27.3335C56.5812 27.3328 56.668 27.3117 56.7461 27.2722C56.807 27.2401 56.8608 27.1967 56.9043 27.1444C56.9478 27.0922 56.9803 27.0321 56.9997 26.9676C57.0192 26.9032 57.0254 26.8356 57.0178 26.7688C57.0103 26.7021 56.9892 26.6374 56.9557 26.5786C54.1952 21.6392 49.7088 17.8146 44.3015 15.7909C44.2368 15.7658 44.1677 15.7532 44.098 15.7539C44.0283 15.7547 43.9595 15.7687 43.8954 15.7952C43.8313 15.8217 43.7733 15.8602 43.7245 15.9084C43.6758 15.9567 43.6374 16.0138 43.6114 16.0764C43.5854 16.1391 43.5725 16.2061 43.5732 16.2736C43.574 16.3411 43.5884 16.4078 43.6158 16.4699C43.6431 16.532 43.6829 16.5883 43.7327 16.6355C43.7824 16.6827 43.8414 16.72 43.906 16.7452H43.9258Z" fill="#219D69"/>
<path d="M17.4625 42.4021C16.6443 42.4029 15.8354 42.2344 15.0899 41.9078V42.7815H19.9855V41.8388C19.2002 42.2077 18.3392 42.4002 17.4665 42.4021H17.4625ZM20.5035 31.8406C20.0471 31.726 19.5711 31.7042 19.1055 31.7768C18.64 31.8493 18.195 32.0146 17.7987 32.2621C17.2272 32.6218 16.5996 32.8897 15.9401 33.0554C14.9679 33.306 13.9529 33.3595 12.9584 33.2125V36.8569C12.9584 37.0064 12.9584 37.1558 12.9861 37.3091C13.1003 38.3836 13.6217 39.3789 14.4492 40.1025C15.2768 40.826 16.3519 41.2266 17.4665 41.2266C18.5811 41.2266 19.6562 40.826 20.4837 40.1025C21.3113 39.3789 21.8326 38.3836 21.9469 37.3091C21.9628 37.1589 21.9707 37.008 21.9706 36.8569V32.5227C21.5487 32.1792 21.044 31.9445 20.5035 31.8406ZM15.9519 35.1478C15.9395 35.2976 15.8694 35.4373 15.7554 35.5393C15.6415 35.6412 15.4921 35.6978 15.337 35.6978C15.1819 35.6978 15.0326 35.6412 14.9186 35.5393C14.8047 35.4373 14.7345 35.2976 14.7221 35.1478V34.8527C14.7345 34.7029 14.8047 34.5631 14.9186 34.4612C15.0326 34.3593 15.1819 34.3027 15.337 34.3027C15.4921 34.3027 15.6415 34.3593 15.7554 34.4612C15.8694 34.5631 15.9395 34.7029 15.9519 34.8527V35.1478ZM18.293 38.6197C18.0309 38.7445 17.7427 38.8094 17.4507 38.8094C17.1586 38.8094 16.8705 38.7445 16.6084 38.6197C16.5679 38.6006 16.5318 38.5738 16.5022 38.541C16.4726 38.5081 16.4501 38.4698 16.4361 38.4283C16.4221 38.3868 16.4168 38.3431 16.4206 38.2996C16.4244 38.2561 16.4371 38.2138 16.4581 38.1752C16.4974 38.0974 16.5667 38.0376 16.6511 38.0089C16.7354 37.9802 16.8281 37.9849 16.9089 38.0219C17.0749 38.1013 17.2576 38.1426 17.4428 38.1426C17.6279 38.1426 17.8106 38.1013 17.9766 38.0219C18.0589 37.9828 18.1539 37.977 18.2407 38.0057C18.3275 38.0344 18.3989 38.0954 18.4393 38.1752C18.4797 38.255 18.4857 38.347 18.456 38.4311C18.4264 38.5152 18.3634 38.5844 18.2811 38.6236L18.293 38.6197ZM20.3493 35.1478C20.3369 35.2976 20.2667 35.4373 20.1528 35.5393C20.0388 35.6412 19.8894 35.6978 19.7344 35.6978C19.5793 35.6978 19.4299 35.6412 19.316 35.5393C19.202 35.4373 19.1319 35.2976 19.1195 35.1478V34.8527C19.1319 34.7029 19.202 34.5631 19.316 34.4612C19.4299 34.3593 19.5793 34.3027 19.7344 34.3027C19.8894 34.3027 20.0388 34.3593 20.1528 34.4612C20.2667 34.5631 20.3369 34.7029 20.3493 34.8527V35.1478ZM37.0767 15.1016H32.533V19.4818C32.5336 20.3818 32.8209 21.2597 33.3555 21.9957C33.8041 22.6286 34.4201 23.1329 35.139 23.4557L35.3209 23.5362C36.4351 23.9825 37.6865 23.9825 38.8008 23.5362L38.9906 23.4557C39.7031 23.13 40.3152 22.6293 40.7662 22.0033C41.3043 21.2691 41.592 20.39 41.5887 19.4894C41.5887 18.3283 41.1138 17.2146 40.2681 16.3921C39.4224 15.5697 38.2748 15.1056 37.0767 15.1016ZM35.4949 18.8916C35.5017 18.9739 35.4908 19.0566 35.463 19.1346C35.4352 19.2127 35.391 19.2842 35.3333 19.3449C35.2755 19.4055 35.2054 19.4539 35.1274 19.4871C35.0494 19.5202 34.9651 19.5373 34.88 19.5373C34.7948 19.5373 34.7105 19.5202 34.6325 19.4871C34.5545 19.4539 34.4844 19.4055 34.4266 19.3449C34.3689 19.2842 34.3247 19.2127 34.2969 19.1346C34.2691 19.0566 34.2582 18.9739 34.265 18.8916V18.5812C34.2774 18.4314 34.3476 18.2916 34.4616 18.1897C34.5755 18.0878 34.7249 18.0312 34.88 18.0312C35.035 18.0312 35.1844 18.0878 35.2984 18.1897C35.4123 18.2916 35.4825 18.4314 35.4949 18.5812V18.8916ZM37.8913 21.3404C37.6295 21.4663 37.3412 21.5318 37.049 21.5318C36.7567 21.5318 36.4684 21.4663 36.2067 21.3404C36.1652 21.3202 36.1284 21.2921 36.0984 21.2578C36.0685 21.2235 36.046 21.1836 36.0323 21.1407C36.0187 21.0977 36.0141 21.0525 36.0189 21.0078C36.0237 20.9631 36.0378 20.9198 36.0604 20.8805C36.1019 20.8018 36.1736 20.7421 36.2602 20.7141C36.3467 20.6861 36.4411 20.6922 36.523 20.7311C36.6886 20.8119 36.8715 20.854 37.0569 20.854C37.2423 20.854 37.4252 20.8119 37.5907 20.7311C37.6316 20.708 37.677 20.6934 37.724 20.6881C37.771 20.6828 37.8186 20.6869 37.8639 20.7002C37.9091 20.7136 37.9511 20.7358 37.9871 20.7656C38.0231 20.7953 38.0523 20.832 38.0731 20.8732C38.0938 20.9144 38.1055 20.9593 38.1075 21.0051C38.1095 21.051 38.1017 21.0967 38.0847 21.1394C38.0676 21.1822 38.0416 21.2211 38.0084 21.2537C37.9751 21.2863 37.9352 21.3119 37.8913 21.3289V21.3404ZM39.9001 18.8916C39.907 18.9739 39.8961 19.0566 39.8683 19.1346C39.8405 19.2127 39.7963 19.2842 39.7385 19.3449C39.6808 19.4055 39.6107 19.4539 39.5327 19.4871C39.4546 19.5202 39.3704 19.5373 39.2852 19.5373C39.2001 19.5373 39.1158 19.5202 39.0378 19.4871C38.9598 19.4539 38.8897 19.4055 38.8319 19.3449C38.7741 19.2842 38.73 19.2127 38.7021 19.1346C38.6743 19.0566 38.6635 18.9739 38.6703 18.8916V18.5812C38.6827 18.4314 38.7529 18.2916 38.8668 18.1897C38.9808 18.0878 39.1302 18.0312 39.2852 18.0312C39.4403 18.0312 39.5897 18.0878 39.7036 18.1897C39.8176 18.2916 39.8877 18.4314 39.9001 18.5812V18.8916ZM50.8065 35.3087V37.0945C50.8083 37.927 51.0542 38.7419 51.5156 39.4441C51.977 40.1464 52.6349 40.7071 53.4125 41.0608L53.5984 41.1413C54.1492 41.3632 54.7399 41.4774 55.3364 41.4774C55.9329 41.4774 56.5235 41.3632 57.0744 41.1413L57.2563 41.0608C57.9719 40.7332 58.5868 40.2298 59.0397 39.6008C59.5779 38.8665 59.8655 37.9875 59.8623 37.0869V35.3087H50.8065ZM53.7763 37.2593C53.7763 37.3373 53.7605 37.4146 53.7297 37.4866C53.6989 37.5587 53.6537 37.6242 53.5968 37.6793C53.5399 37.7345 53.4723 37.7782 53.398 37.8081C53.3236 37.8379 53.2439 37.8533 53.1634 37.8533C53.0829 37.8533 53.0032 37.8379 52.9288 37.8081C52.8545 37.7782 52.7869 37.7345 52.73 37.6793C52.6731 37.6242 52.6279 37.5587 52.5971 37.4866C52.5663 37.4146 52.5505 37.3373 52.5505 37.2593V36.9757C52.5505 36.8977 52.5663 36.8205 52.5971 36.7484C52.6279 36.6763 52.6731 36.6109 52.73 36.5557C52.7869 36.5006 52.8545 36.4568 52.9288 36.427C53.0032 36.3971 53.0829 36.3817 53.1634 36.3817C53.2439 36.3817 53.3236 36.3971 53.398 36.427C53.4723 36.4568 53.5399 36.5006 53.5968 36.5557C53.6537 36.6109 53.6989 36.6763 53.7297 36.7484C53.7605 36.8205 53.7763 36.8977 53.7763 36.9757V37.2593ZM56.1727 39.5586C55.9103 39.6846 55.6214 39.7502 55.3285 39.7502C55.0356 39.7502 54.7466 39.6846 54.4842 39.5586C54.403 39.5184 54.3413 39.4489 54.3125 39.365C54.2836 39.2811 54.2899 39.1897 54.33 39.1103C54.3715 39.0316 54.4432 38.9718 54.5298 38.9438C54.6163 38.9159 54.7107 38.922 54.7926 38.9608C54.9582 39.0417 55.1411 39.0838 55.3265 39.0838C55.5119 39.0838 55.6948 39.0417 55.8603 38.9608C55.901 38.9404 55.9454 38.9281 55.9909 38.9246C56.0365 38.921 56.0824 38.9263 56.1258 38.9401C56.1693 38.954 56.2094 38.9761 56.244 39.0051C56.2785 39.0342 56.3067 39.0696 56.327 39.1093C56.3472 39.1491 56.3591 39.1923 56.3619 39.2366C56.3647 39.2808 56.3583 39.3251 56.3432 39.367C56.3281 39.4088 56.3046 39.4473 56.2739 39.4802C56.2433 39.5131 56.2062 39.5398 56.1648 39.5586H56.1727ZM58.1816 37.2593C58.1816 37.3373 58.1658 37.4146 58.135 37.4866C58.1042 37.5587 58.059 37.6242 58.0021 37.6793C57.9452 37.7345 57.8776 37.7782 57.8032 37.8081C57.7289 37.8379 57.6492 37.8533 57.5687 37.8533C57.4882 37.8533 57.4085 37.8379 57.3341 37.8081C57.2597 37.7782 57.1922 37.7345 57.1353 37.6793C57.0783 37.6242 57.0332 37.5587 57.0024 37.4866C56.9716 37.4146 56.9557 37.3373 56.9557 37.2593V36.9757C56.9557 36.8182 57.0203 36.6671 57.1353 36.5557C57.2502 36.4443 57.4061 36.3817 57.5687 36.3817C57.7312 36.3817 57.8871 36.4443 58.0021 36.5557C58.117 36.6671 58.1816 36.8182 58.1816 36.9757V37.2593ZM41.5294 48.1351C40.9148 48.1341 40.3084 47.9988 39.7552 47.7394C39.2021 47.48 38.7163 47.1031 38.3342 46.6367C36.5309 48.0239 33.8142 48.1351 32.5607 48.1121V51.8561C32.5607 51.9519 32.5607 52.0477 32.5607 52.1436C32.5664 52.1983 32.5664 52.2535 32.5607 52.3083C32.6749 53.3828 33.1962 54.3781 34.0238 55.1017C34.8514 55.8253 35.9264 56.2258 37.0411 56.2258C38.1557 56.2258 39.2307 55.8253 40.0583 55.1017C40.8859 54.3781 41.4072 53.3828 41.5215 52.3083C41.5376 52.1581 41.5455 52.0072 41.5452 51.8561V48.1274L41.5294 48.1351ZM35.5502 50.1508C35.557 50.2331 35.5462 50.3158 35.5184 50.3938C35.4906 50.4719 35.4464 50.5434 35.3886 50.6041C35.3309 50.6647 35.2608 50.7132 35.1828 50.7463C35.1047 50.7794 35.0205 50.7965 34.9353 50.7965C34.8501 50.7965 34.7659 50.7794 34.6879 50.7463C34.6099 50.7132 34.5398 50.6647 34.482 50.6041C34.4242 50.5434 34.38 50.4719 34.3522 50.3938C34.3244 50.3158 34.3136 50.2331 34.3204 50.1508V49.8557C34.3328 49.7059 34.403 49.5662 34.5169 49.4642C34.6309 49.3623 34.7802 49.3057 34.9353 49.3057C35.0904 49.3057 35.2398 49.3623 35.3537 49.4642C35.4677 49.5662 35.5378 49.7059 35.5502 49.8557V50.1508ZM38.3184 53.2357C37.9502 53.4147 37.5439 53.5079 37.132 53.5079C36.7201 53.5079 36.3139 53.4147 35.9457 53.2357C35.883 53.2116 35.8262 53.1751 35.7789 53.1285C35.7316 53.0819 35.6948 53.0264 35.6708 52.9653C35.6469 52.9042 35.6363 52.839 35.6397 52.7737C35.6432 52.7084 35.6606 52.6446 35.6908 52.5862C35.7211 52.5278 35.7636 52.4761 35.8155 52.4345C35.8675 52.3929 35.9278 52.3621 35.9927 52.3443C36.0576 52.3265 36.1256 52.3219 36.1923 52.3309C36.2591 52.3398 36.3233 52.3622 36.3807 52.3965C36.6144 52.508 36.8715 52.5661 37.132 52.5661C37.3926 52.5661 37.6496 52.508 37.8834 52.3965C37.9969 52.3538 38.1227 52.354 38.2361 52.3969C38.3495 52.4398 38.4422 52.5224 38.4958 52.6283C38.5494 52.7341 38.5602 52.8557 38.5258 52.9688C38.4915 53.082 38.4147 53.1786 38.3104 53.2396L38.3184 53.2357ZM39.9476 50.1508C39.9544 50.2331 39.9436 50.3158 39.9158 50.3938C39.8879 50.4719 39.8438 50.5434 39.786 50.6041C39.7282 50.6647 39.6581 50.7132 39.5801 50.7463C39.5021 50.7794 39.4178 50.7965 39.3327 50.7965C39.2475 50.7965 39.1633 50.7794 39.0852 50.7463C39.0072 50.7132 38.9371 50.6647 38.8794 50.6041C38.8216 50.5434 38.7774 50.4719 38.7496 50.3938C38.7218 50.3158 38.7109 50.2331 38.7178 50.1508V49.8557C38.7302 49.7059 38.8003 49.5662 38.9143 49.4642C39.0282 49.3623 39.1776 49.3057 39.3327 49.3057C39.4877 49.3057 39.6371 49.3623 39.7511 49.4642C39.865 49.5662 39.9352 49.7059 39.9476 49.8557V50.1508Z" fill="#EFFFF8"/>
<path d="M23.1847 35.024C23.3724 34.4488 23.4684 33.8492 23.4694 33.2459C23.4673 31.6996 22.8325 30.2172 21.7042 29.1239C20.576 28.0305 19.0463 27.4153 17.4507 27.4133C15.8574 27.4143 14.3293 28.0262 13.2001 29.1155C12.0709 30.2047 11.4324 31.6828 11.4241 33.2267C11.4253 33.83 11.5213 34.4296 11.7088 35.0049V32.4565C11.712 32.3649 11.7365 32.2753 11.7806 32.1943C11.8246 32.1133 11.8871 32.0431 11.9632 31.9888C12.0394 31.9346 12.1272 31.8978 12.2201 31.8813C12.313 31.8647 12.4086 31.8687 12.4997 31.8931C13.513 32.1534 14.5788 32.1534 15.5921 31.8931C16.1274 31.7586 16.6373 31.5426 17.1027 31.2531C17.9404 30.7488 18.9164 30.503 19.9015 30.5481C20.8866 30.5933 21.8343 30.9274 22.6192 31.5061C23.1451 31.9276 23.2084 32.2917 23.1688 32.5369L23.1847 35.024ZM21.4447 43.9837H13.6188C12.8276 43.9826 12.0611 44.2505 11.4527 44.7407C10.8443 45.2308 10.4326 45.9122 10.2892 46.6662H24.7783C24.6347 45.9116 24.2224 45.2297 23.6132 44.7394C23.004 44.2492 22.2365 43.9817 21.4447 43.9837ZM40.9916 26.666H40.9441H40.9046C40.5547 26.6067 40.2 26.5772 39.8448 26.5779H39.2477C39.0857 26.5759 38.931 26.5127 38.8165 26.4017C38.702 26.2907 38.6368 26.1408 38.6347 25.9839V24.8649C38.1288 25.0109 37.6045 25.0883 37.0767 25.0948C36.5416 25.0964 36.009 25.0241 35.4949 24.8802V25.9992C35.4928 26.1568 35.427 26.3073 35.3117 26.4184C35.1963 26.5294 35.0406 26.5922 34.878 26.5932H34.2769C33.9232 26.5902 33.5699 26.6171 33.2211 26.6737H33.1459C32.3548 26.6726 31.5883 26.9405 30.9799 27.4306C30.3715 27.9208 29.9597 28.6022 29.8163 29.3562H44.3094C44.1672 28.6031 43.7577 27.9218 43.1518 27.4305C42.5459 26.9392 41.7817 26.6687 40.9916 26.666ZM43.6569 21.2166L43.3049 15.8746C43.2034 14.334 42.4999 12.8888 41.3377 11.833C40.1756 10.7772 38.642 10.1902 37.049 10.1914H30.449V21.1821C30.3831 22.0388 30.5856 22.8949 31.0301 23.6382C31.4747 24.3814 32.1405 24.9773 32.9403 25.3477C33.0154 25.3822 33.1024 25.4205 33.1855 25.4512C33.5407 25.4046 33.8987 25.3815 34.2571 25.3822V24.359C33.4954 23.9489 32.8375 23.3794 32.3313 22.692C31.6513 21.7554 31.2879 20.6374 31.2913 19.4921V14.5103C31.2928 14.4303 31.3108 14.3514 31.3442 14.2782C31.3775 14.205 31.4256 14.139 31.4857 14.084C31.5457 14.0291 31.6164 13.9862 31.6937 13.9581C31.771 13.93 31.8534 13.9171 31.9359 13.9201H37.0767C38.3488 13.9236 39.5839 14.3361 40.5881 15.093C41.5923 15.8499 42.3089 16.9084 42.6255 18.1024C42.9421 19.2965 42.8409 20.5586 42.3376 21.6909C41.8344 22.8232 40.9576 23.7616 39.8448 24.359V25.3822C40.2032 25.3814 40.5613 25.4045 40.9165 25.4512L41.1735 25.3439C41.4151 25.2289 41.6454 25.093 41.8616 24.9377C42.4604 24.5145 42.939 23.9515 43.2529 23.3009C43.5668 22.6503 43.7058 21.9333 43.6569 21.2166ZM61.9305 38.8026L61.5943 33.4605C61.4962 31.9171 60.7944 30.4682 59.6319 29.4089C58.4695 28.3497 56.934 27.76 55.3384 27.76C53.7428 27.76 52.2072 28.3497 51.0448 29.4089C49.8824 30.4682 49.1805 31.9171 49.0824 33.4605L48.7384 38.8026C48.6894 39.5191 48.827 40.2361 49.1386 40.8877C49.4503 41.5392 49.9259 42.1044 50.5218 42.5313C50.7423 42.68 50.9766 42.8083 51.2218 42.9145C51.293 42.949 51.3839 42.9873 51.467 43.018C51.8221 42.9715 52.1802 42.9484 52.5386 42.949V41.9565C51.6424 41.4727 50.8958 40.7658 50.3758 39.9089C49.8558 39.052 49.5813 38.076 49.5807 37.0819V34.7021C49.5827 34.5452 49.648 34.3953 49.7625 34.2843C49.877 34.1733 50.0317 34.1101 50.1936 34.1081H60.4752C60.6378 34.1091 60.7935 34.1719 60.9089 34.283C61.0243 34.394 61.09 34.5445 61.0921 34.7021V37.0857C61.0935 38.2301 60.7288 39.3467 60.0481 40.2818C59.5473 40.973 58.8916 41.5455 58.1302 41.9565V42.9643C58.4886 42.9636 58.8467 42.9867 59.2019 43.0333L59.455 42.926C60.242 42.5512 60.8975 41.9596 61.3392 41.2255C61.781 40.4913 61.9894 39.6472 61.9384 38.7987L61.9305 38.8026ZM59.277 44.2558H59.1781C58.8293 44.1991 58.476 44.1721 58.1223 44.1753H57.5252C57.3626 44.1743 57.2069 44.1115 57.0915 44.0005C56.9761 43.8894 56.9104 43.7389 56.9083 43.5813V42.4546C55.8742 42.7393 54.7788 42.7393 53.7447 42.4546V43.5736C53.7437 43.7309 53.6788 43.8814 53.564 43.9926C53.4493 44.1037 53.294 44.1666 53.1318 44.1676H52.5347C52.1796 44.1645 51.825 44.1914 51.4749 44.2481C51.4513 44.2522 51.4272 44.2522 51.4037 44.2481C50.6119 44.2448 49.8442 44.5119 49.2353 45.0024C48.6264 45.4929 48.2153 46.1756 48.074 46.9307H62.575C62.4234 46.1868 62.0134 45.5156 61.4133 45.0289C60.8133 44.5423 60.0594 44.2694 59.277 44.2558ZM41.0311 58.9791H33.2132C32.4217 58.9786 31.6551 59.2466 31.0462 59.7366C30.4373 60.2266 30.0245 60.9076 29.8796 61.6616H44.3726C44.2274 60.9063 43.8135 60.2243 43.203 59.7341C42.5925 59.244 41.8239 58.9768 41.0311 58.9791ZM43.0084 47.4825C42.8465 46.2525 42.2822 45.1051 41.3984 44.2085C40.5145 43.312 39.3575 42.7134 38.0969 42.5006C36.8817 42.2969 35.6312 42.4545 34.5102 42.9528C34.0412 43.179 33.648 43.5296 33.3764 43.9637C33.1048 44.3979 32.9659 44.8978 32.9759 45.4054C32.9749 45.563 32.9101 45.7139 32.7955 45.8257C32.6809 45.9375 32.5256 46.0013 32.363 46.0033C32.1044 46.0018 31.8525 46.0823 31.6454 46.2324C31.4384 46.3825 31.2877 46.5941 31.2162 46.8348C31.098 47.3028 31.037 47.7825 31.0343 48.2643C31.0365 48.8366 31.1231 49.4056 31.2913 49.9543V47.4825C31.2936 47.4001 31.3138 47.3192 31.3506 47.2449C31.3506 47.2449 31.3743 47.2181 31.3743 47.2027C31.4054 47.1481 31.444 47.0978 31.489 47.0533L31.5602 47.015C31.5961 46.9836 31.6377 46.959 31.6828 46.9421C31.7218 46.9271 31.7634 46.9193 31.8054 46.9192C31.841 46.9192 31.8726 46.9192 31.9042 46.9192H31.9636C32.0031 46.9192 36.1434 47.3024 37.9466 45.348C38.0144 45.2746 38.0999 45.2187 38.1954 45.1851C38.2908 45.1514 38.3934 45.1412 38.494 45.1552C38.5945 45.1692 38.6899 45.2071 38.7718 45.2655C38.8536 45.3238 38.9192 45.4009 38.9629 45.4897C39.2542 46.0139 39.7089 46.4354 40.2621 46.6942C40.8154 46.953 41.4388 47.0357 42.0435 46.9307C42.1311 46.9147 42.2214 46.9179 42.3076 46.9399C42.3938 46.962 42.4739 47.0024 42.5421 47.0581C42.6102 47.1139 42.6647 47.1836 42.7016 47.2623C42.7385 47.3411 42.7568 47.4267 42.7553 47.5131V50.0156C43.0315 49.2049 43.118 48.3449 43.0084 47.4978V47.4825ZM31.2873 49.9198V50.0041H31.315C31.3111 50.0041 31.2992 49.9657 31.2913 49.9351L31.2873 49.9198Z" fill="#66D5A6"/>
<path d="M37.0529 57.4051C36.242 57.402 35.4411 57.2309 34.704 56.9031V57.7845H39.5719V56.8418C38.7868 57.211 37.9257 57.4036 37.0529 57.4051Z" fill="#EFFFF8"/>
</g>
<defs>
<clipPath id="clip0_2784_9195">
<rect width="54.88" height="53.8462" fill="white" transform="translate(9 9)"/>
</clipPath>
</defs>
</svg>
